Libre Franklin-Light.ufo
<glyph name="numbersign" format="1">
  <advance width="603"/>
  <unicode hex="0023"/>
  <outline>
    <contour>
      <point x="282" y="734"/>
      <point x="280" y="737"/>
      <point x="274" y="738" type="curve" smooth="yes"/>
      <point x="250" y="742" type="line" smooth="yes"/>
      <point x="247" y="743"/>
      <point x="244" y="740"/>
      <point x="243" y="736" type="curve" smooth="yes"/>
      <point x="131" y="10" type="line" smooth="yes"/>
      <point x="131" y="7"/>
      <point x="132" y="5"/>
      <point x="137" y="4" type="curve" smooth="yes"/>
      <point x="161" y="0" type="line" smooth="yes"/>
      <point x="165" y="-1"/>
      <point x="168" y="1"/>
      <point x="169" y="7" type="curve" smooth="yes"/>
      <point x="281" y="727" type="line" smooth="yes"/>
    </contour>
    <contour>
      <point x="485" y="734"/>
      <point x="483" y="737"/>
      <point x="477" y="738" type="curve" smooth="yes"/>
      <point x="453" y="742" type="line" smooth="yes"/>
      <point x="450" y="743"/>
      <point x="447" y="740"/>
      <point x="446" y="736" type="curve" smooth="yes"/>
      <point x="334" y="10" type="line" smooth="yes"/>
      <point x="334" y="7"/>
      <point x="335" y="5"/>
      <point x="340" y="4" type="curve" smooth="yes"/>
      <point x="364" y="0" type="line" smooth="yes"/>
      <point x="368" y="-1"/>
      <point x="371" y="1"/>
      <point x="372" y="7" type="curve" smooth="yes"/>
      <point x="484" y="727" type="line" smooth="yes"/>
    </contour>
    <contour>
      <point x="525" y="286"/>
      <point x="522" y="288"/>
      <point x="518" y="288" type="curve" smooth="yes"/>
      <point x="50" y="288" type="line" smooth="yes"/>
      <point x="47" y="288"/>
      <point x="45" y="286"/>
      <point x="45" y="281" type="curve" smooth="yes"/>
      <point x="45" y="257" type="line" smooth="yes"/>
      <point x="45" y="252"/>
      <point x="47" y="250"/>
      <point x="53" y="250" type="curve" smooth="yes"/>
      <point x="515" y="250" type="line" smooth="yes"/>
      <point x="522" y="250"/>
      <point x="525" y="252"/>
      <point x="525" y="258" type="curve" smooth="yes"/>
      <point x="525" y="282" type="line" smooth="yes"/>
    </contour>
    <contour>
      <point x="558" y="496"/>
      <point x="555" y="498"/>
      <point x="551" y="498" type="curve" smooth="yes"/>
      <point x="83" y="498" type="line" smooth="yes"/>
      <point x="80" y="498"/>
      <point x="78" y="496"/>
      <point x="78" y="491" type="curve" smooth="yes"/>
      <point x="78" y="467" type="line" smooth="yes"/>
      <point x="78" y="462"/>
      <point x="80" y="460"/>
      <point x="86" y="460" type="curve" smooth="yes"/>
      <point x="548" y="460" type="line" smooth="yes"/>
      <point x="555" y="460"/>
      <point x="558" y="462"/>
      <point x="558" y="468" type="curve" smooth="yes"/>
      <point x="558" y="492" type="line" smooth="yes"/>
    </contour>
  </outline>
</glyph>
<glyph name="quotesingle" format="1">
  <advance width="235"/>
  <unicode hex="0027"/>
  <outline>
    <contour>
      <point x="155" y="740"/>
      <point x="153" y="742"/>
      <point x="149" y="742" type="curve" smooth="yes"/>
      <point x="86" y="742" type="line" smooth="yes"/>
      <point x="83" y="742"/>
      <point x="80" y="740"/>
      <point x="80" y="736" type="curve" smooth="yes"/>
      <point x="99" y="557" type="line" smooth="yes"/>
      <point x="100" y="552"/>
      <point x="101" y="550"/>
      <point x="107" y="550" type="curve" smooth="yes"/>
      <point x="125" y="550" type="line" smooth="yes"/>
      <point x="132" y="550"/>
      <point x="134" y="553"/>
      <point x="135" y="559" type="curve" smooth="yes"/>
      <point x="155" y="736" type="line" smooth="yes"/>
    </contour>
  </outline>
</glyph>
<glyph name="plus" format="1">
  <advance width="541"/>
  <unicode hex="002B"/>
  <outline>
    <contour>
      <point x="471" y="390"/>
      <point x="468" y="392"/>
      <point x="464" y="392" type="curve" smooth="yes"/>
      <point x="75" y="391" type="line" smooth="yes"/>
      <point x="72" y="391"/>
      <point x="70" y="389"/>
      <point x="70" y="384" type="curve" smooth="yes"/>
      <point x="70" y="360" type="line" smooth="yes"/>
      <point x="70" y="355"/>
      <point x="72" y="353"/>
      <point x="78" y="353" type="curve" smooth="yes"/>
      <point x="461" y="354" type="line" smooth="yes"/>
      <point x="468" y="354"/>
      <point x="471" y="356"/>
      <point x="471" y="362" type="curve" smooth="yes"/>
      <point x="471" y="386" type="line" smooth="yes"/>
    </contour>
    <contour>
      <point x="288" y="172"/>
      <point x="290" y="175"/>
      <point x="290" y="179" type="curve" smooth="yes"/>
      <point x="289" y="568" type="line" smooth="yes"/>
      <point x="289" y="571"/>
      <point x="287" y="573"/>
      <point x="282" y="573" type="curve" smooth="yes"/>
      <point x="258" y="573" type="line" smooth="yes"/>
      <point x="253" y="573"/>
      <point x="251" y="571"/>
      <point x="251" y="565" type="curve" smooth="yes"/>
      <point x="252" y="182" type="line" smooth="yes"/>
      <point x="252" y="175"/>
      <point x="254" y="172"/>
      <point x="260" y="172" type="curve" smooth="yes"/>
      <point x="284" y="172" type="line" smooth="yes"/>
    </contour>
  </outline>
</glyph>
<glyph name="hyphen" format="1">
  <advance width="381"/>
  <unicode hex="002D"/>
  <outline>
    <contour>
      <point x="311" y="284"/>
      <point x="308" y="286"/>
      <point x="304" y="286" type="curve" smooth="yes"/>
      <point x="75" y="285" type="line" smooth="yes"/>
      <point x="72" y="285"/>
      <point x="70" y="283"/>
      <point x="70" y="278" type="curve" smooth="yes"/>
      <point x="70" y="252" type="line" smooth="yes"/>
      <point x="70" y="247"/>
      <point x="72" y="245"/>
      <point x="78" y="245" type="curve" smooth="yes"/>
      <point x="301" y="246" type="line" smooth="yes"/>
      <point x="308" y="246"/>
      <point x="311" y="248"/>
      <point x="311" y="254" type="curve" smooth="yes"/>
      <point x="311" y="280" type="line" smooth="yes"/>
    </contour>
  </outline>
</glyph>
<glyph name="period" format="1">
  <advance width="182"/>
  <unicode hex="002E"/>
  <outline>
    <contour>
      <point x="122" y="77"/>
      <point x="120" y="79"/>
      <point x="115" y="79" type="curve" smooth="yes"/>
      <point x="67" y="79" type="line" smooth="yes"/>
      <point x="63" y="79"/>
      <point x="60" y="77"/>
      <point x="60" y="70" type="curve" smooth="yes"/>
      <point x="60" y="10" type="line" smooth="yes"/>
      <point x="60" y="3"/>
      <point x="62" y="0"/>
      <point x="70" y="0" type="curve" smooth="yes"/>
      <point x="109" y="0" type="line" smooth="yes"/>
      <point x="119" y="0"/>
      <point x="122" y="3"/>
      <point x="122" y="11" type="curve" smooth="yes"/>
      <point x="122" y="71" type="line" smooth="yes"/>
    </contour>
  </outline>
</glyph>
<glyph name="slash" format="1">
  <advance width="328"/>
  <unicode hex="002F"/>
  <outline>
    <contour>
      <point x="51" y="-60" type="line" smooth="yes"/>
      <point x="56" y="-60"/>
      <point x="60" y="-58"/>
      <point x="62" y="-52" type="curve" smooth="yes"/>
      <point x="310" y="732" type="line" smooth="yes"/>
      <point x="312" y="739"/>
      <point x="311" y="742"/>
      <point x="305" y="742" type="curve" smooth="yes"/>
      <point x="276" y="742" type="line" smooth="yes"/>
      <point x="272" y="742"/>
      <point x="269" y="740"/>
      <point x="268" y="736" type="curve" smooth="yes"/>
      <point x="17" y="-55" type="line" smooth="yes"/>
      <point x="16" y="-58"/>
      <point x="17" y="-60"/>
      <point x="22" y="-60" type="curve" smooth="yes"/>
    </contour>
  </outline>
</glyph>
<glyph name="zero" format="1">
  <advance width="675"/>
  <unicode hex="0030"/>
  <outline>
    <contour>
      <point x="193" y="752"/>
      <point x="79" y="627"/>
      <point x="79" y="367" type="curve" smooth="yes"/>
      <point x="79" y="111"/>
      <point x="191" y="-10"/>
      <point x="337" y="-10" type="curve" smooth="yes"/>
      <point x="483" y="-10"/>
      <point x="596" y="112"/>
      <point x="596" y="369" type="curve" smooth="yes"/>
      <point x="596" y="628"/>
      <point x="483" y="752"/>
      <point x="338" y="752" type="curve" smooth="yes"/>
    </contour>
    <contour>
      <point x="216" y="32"/>
      <point x="127" y="133"/>
      <point x="127" y="369" type="curve" smooth="yes"/>
      <point x="127" y="607"/>
      <point x="216" y="710"/>
      <point x="338" y="710" type="curve" smooth="yes"/>
      <point x="460" y="710"/>
      <point x="548" y="608"/>
      <point x="548" y="369" type="curve" smooth="yes"/>
      <point x="548" y="132"/>
      <point x="462" y="32"/>
      <point x="339" y="32" type="curve" smooth="yes"/>
    </contour>
  </outline>
</glyph>
<glyph name="one" format="1">
  <advance width="438"/>
  <unicode hex="0031"/>
  <outline>
    <contour>
      <point x="260" y="42" type="line" smooth="yes"/>
      <point x="257" y="42"/>
      <point x="255" y="44"/>
      <point x="255" y="48" type="curve" smooth="yes"/>
      <point x="255" y="733" type="line" smooth="yes"/>
      <point x="255" y="739"/>
      <point x="252" y="742"/>
      <point x="247" y="742" type="curve" smooth="yes"/>
      <point x="220" y="742" type="line" smooth="yes"/>
      <point x="212" y="742"/>
      <point x="207" y="741"/>
      <point x="198" y="736" type="curve" smooth="yes"/>
      <point x="61" y="668" type="line" smooth="yes"/>
      <point x="56" y="665"/>
      <point x="55" y="665"/>
      <point x="55" y="659" type="curve" smooth="yes"/>
      <point x="55" y="635" type="line" smooth="yes"/>
      <point x="55" y="629"/>
      <point x="58" y="626"/>
      <point x="63" y="628" type="curve" smooth="yes"/>
      <point x="203" y="684" type="line" smooth="yes"/>
      <point x="208" y="686"/>
      <point x="209" y="683"/>
      <point x="209" y="678" type="curve" smooth="yes"/>
      <point x="209" y="46" type="line" smooth="yes"/>
      <point x="209" y="43"/>
      <point x="206" y="42"/>
      <point x="203" y="42" type="curve" smooth="yes"/>
      <point x="62" y="42" type="line" smooth="yes"/>
      <point x="58" y="42"/>
      <point x="56" y="40"/>
      <point x="56" y="36" type="curve" smooth="yes"/>
      <point x="56" y="6" type="line" smooth="yes"/>
      <point x="56" y="3"/>
      <point x="58" y="0"/>
      <point x="62" y="0" type="curve" smooth="yes"/>
      <point x="384" y="0" type="line" smooth="yes"/>
      <point x="389" y="0"/>
      <point x="391" y="4"/>
      <point x="391" y="6" type="curve" smooth="yes"/>
      <point x="391" y="36" type="line" smooth="yes"/>
      <point x="391" y="40"/>
      <point x="389" y="42"/>
      <point x="384" y="42" type="curve" smooth="yes"/>
    </contour>
  </outline>
</glyph>
<glyph name="four" format="1">
  <advance width="623"/>
  <unicode hex="0034"/>
  <outline>
    <contour>
      <point x="61" y="277" type="line" smooth="yes"/>
      <point x="54" y="267"/>
      <point x="52" y="261"/>
      <point x="52" y="255" type="curve" smooth="yes"/>
      <point x="52" y="224" type="line" smooth="yes"/>
      <point x="52" y="216"/>
      <point x="56" y="214"/>
      <point x="63" y="214" type="curve" smooth="yes"/>
      <point x="401" y="214" type="line" smooth="yes"/>
      <point x="407" y="214"/>
      <point x="409" y="212"/>
      <point x="409" y="208" type="curve" smooth="yes"/>
      <point x="409" y="9" type="line" smooth="yes"/>
      <point x="409" y="4"/>
      <point x="412" y="0"/>
      <point x="417" y="0" type="curve" smooth="yes"/>
      <point x="445" y="0" type="line" smooth="yes"/>
      <point x="452" y="0"/>
      <point x="455" y="3"/>
      <point x="455" y="9" type="curve" smooth="yes"/>
      <point x="455" y="205" type="line" smooth="yes"/>
      <point x="455" y="212"/>
      <point x="458" y="214"/>
      <point x="463" y="214" type="curve" smooth="yes"/>
      <point x="564" y="214" type="line" smooth="yes"/>
      <point x="571" y="214"/>
      <point x="574" y="218"/>
      <point x="574" y="224" type="curve" smooth="yes"/>
      <point x="574" y="249" type="line" smooth="yes"/>
      <point x="574" y="254"/>
      <point x="570" y="256"/>
      <point x="564" y="256" type="curve" smooth="yes"/>
      <point x="462" y="256" type="line" smooth="yes"/>
      <point x="457" y="256"/>
      <point x="455" y="259"/>
      <point x="455" y="264" type="curve" smooth="yes"/>
      <point x="455" y="733" type="line" smooth="yes"/>
      <point x="455" y="739"/>
      <point x="452" y="742"/>
      <point x="446" y="742" type="curve" smooth="yes"/>
      <point x="415" y="742" type="line" smooth="yes"/>
      <point x="408" y="742"/>
      <point x="403" y="740"/>
      <point x="401" y="737" type="curve" smooth="yes"/>
    </contour>
    <contour>
      <point x="103" y="256"/>
      <point x="100" y="261"/>
      <point x="106" y="269" type="curve" smooth="yes"/>
      <point x="391" y="654" type="line" smooth="yes"/>
      <point x="400" y="666"/>
      <point x="405" y="664"/>
      <point x="405" y="650" type="curve" smooth="yes"/>
      <point x="405" y="263" type="line" smooth="yes"/>
      <point x="405" y="259"/>
      <point x="401" y="256"/>
      <point x="396" y="256" type="curve" smooth="yes"/>
      <point x="113" y="256" type="line" smooth="yes"/>
    </contour>
  </outline>
</glyph>
<glyph name="colon" format="1">
  <advance width="182"/>
  <unicode hex="003A"/>
  <outline>
    <contour>
      <point x="122" y="498"/>
      <point x="120" y="500"/>
      <point x="115" y="500" type="curve" smooth="yes"/>
      <point x="67" y="500" type="line" smooth="yes"/>
      <point x="63" y="500"/>
      <point x="60" y="498"/>
      <point x="60" y="491" type="curve" smooth="yes"/>
      <point x="60" y="431" type="line" smooth="yes"/>
      <point x="60" y="424"/>
      <point x="62" y="421"/>
      <point x="70" y="421" type="curve" smooth="yes"/>
      <point x="109" y="421" type="line" smooth="yes"/>
      <point x="119" y="421"/>
      <point x="122" y="424"/>
      <point x="122" y="432" type="curve" smooth="yes"/>
      <point x="122" y="492" type="line" smooth="yes"/>
    </contour>
    <contour>
      <point x="122" y="80"/>
      <point x="120" y="82"/>
      <point x="115" y="82" type="curve" smooth="yes"/>
      <point x="67" y="82" type="line" smooth="yes"/>
      <point x="63" y="82"/>
      <point x="60" y="80"/>
      <point x="60" y="73" type="curve" smooth="yes"/>
      <point x="60" y="13" type="line" smooth="yes"/>
      <point x="60" y="6"/>
      <point x="62" y="3"/>
      <point x="70" y="3" type="curve" smooth="yes"/>
      <point x="109" y="3" type="line" smooth="yes"/>
      <point x="119" y="3"/>
      <point x="122" y="6"/>
      <point x="122" y="14" type="curve" smooth="yes"/>
      <point x="122" y="74" type="line" smooth="yes"/>
    </contour>
  </outline>
</glyph>
<glyph name="semicolon" format="1">
  <advance width="210"/>
  <unicode hex="003B"/>
  <outline>
    <contour>
      <point x="57" y="-134" type="line" smooth="yes"/>
      <point x="63" y="-134"/>
      <point x="66" y="-132"/>
      <point x="68" y="-128" type="curve" smooth="yes"/>
      <point x="125" y="4" type="line" smooth="yes"/>
      <point x="126" y="7"/>
      <point x="127" y="11"/>
      <point x="127" y="16" type="curve" smooth="yes"/>
      <point x="127" y="73" type="line" smooth="yes"/>
      <point x="127" y="77"/>
      <point x="125" y="79"/>
      <point x="121" y="79" type="curve" smooth="yes"/>
      <point x="71" y="79" type="line" smooth="yes"/>
      <point x="67" y="79"/>
      <point x="65" y="77"/>
      <point x="65" y="73" type="curve" smooth="yes"/>
      <point x="65" y="7" type="line" smooth="yes"/>
      <point x="65" y="3"/>
      <point x="67" y="0"/>
      <point x="73" y="0" type="curve" smooth="yes"/>
      <point x="82" y="0" type="line" smooth="yes"/>
      <point x="91" y="0"/>
      <point x="93" y="-3"/>
      <point x="90" y="-10" type="curve" smooth="yes"/>
      <point x="47" y="-124" type="line" smooth="yes"/>
      <point x="44" y="-131"/>
      <point x="46" y="-134"/>
      <point x="50" y="-134" type="curve" smooth="yes"/>
    </contour>
    <contour>
      <point x="109" y="421" type="line" smooth="yes"/>
      <point x="119" y="421"/>
      <point x="122" y="424"/>
      <point x="122" y="432" type="curve" smooth="yes"/>
      <point x="122" y="492" type="line" smooth="yes"/>
      <point x="122" y="498"/>
      <point x="120" y="500"/>
      <point x="115" y="500" type="curve" smooth="yes"/>
      <point x="67" y="500" type="line" smooth="yes"/>
      <point x="63" y="500"/>
      <point x="60" y="498"/>
      <point x="60" y="491" type="curve" smooth="yes"/>
      <point x="60" y="431" type="line" smooth="yes"/>
      <point x="60" y="424"/>
      <point x="62" y="421"/>
      <point x="70" y="421" type="curve" smooth="yes"/>
    </contour>
  </outline>
</glyph>
<glyph name="less" format="1">
  <advance width="523"/>
  <unicode hex="003C"/>
  <outline>
    <contour>
      <point x="452" y="223"/>
      <point x="448" y="226"/>
      <point x="439" y="230" type="curve" smooth="yes"/>
      <point x="121" y="358" type="line"/>
      <point x="440" y="485" type="line" smooth="yes"/>
      <point x="449" y="489"/>
      <point x="453" y="492"/>
      <point x="453" y="498" type="curve" smooth="yes"/>
      <point x="453" y="524" type="line" smooth="yes"/>
      <point x="453" y="534"/>
      <point x="448" y="538"/>
      <point x="436" y="533" type="curve" smooth="yes"/>
      <point x="68" y="385" type="line" smooth="yes"/>
      <point x="63" y="383"/>
      <point x="60" y="381"/>
      <point x="60" y="375" type="curve" smooth="yes"/>
      <point x="60" y="340" type="line" smooth="yes"/>
      <point x="60" y="335"/>
      <point x="63" y="332"/>
      <point x="68" y="330" type="curve" smooth="yes"/>
      <point x="436" y="184" type="line" smooth="yes"/>
      <point x="445" y="180"/>
      <point x="452" y="184"/>
      <point x="452" y="195" type="curve" smooth="yes"/>
      <point x="452" y="216" type="line" smooth="yes"/>
    </contour>
  </outline>
</glyph>
<glyph name="equal" format="1">
  <advance width="541"/>
  <unicode hex="003D"/>
  <outline>
    <contour>
      <point x="471" y="490"/>
      <point x="468" y="492"/>
      <point x="464" y="492" type="curve" smooth="yes"/>
      <point x="75" y="491" type="line" smooth="yes"/>
      <point x="72" y="491"/>
      <point x="70" y="489"/>
      <point x="70" y="484" type="curve" smooth="yes"/>
      <point x="70" y="460" type="line" smooth="yes"/>
      <point x="70" y="455"/>
      <point x="72" y="453"/>
      <point x="78" y="453" type="curve" smooth="yes"/>
      <point x="461" y="454" type="line" smooth="yes"/>
      <point x="468" y="454"/>
      <point x="471" y="456"/>
      <point x="471" y="462" type="curve" smooth="yes"/>
      <point x="471" y="486" type="line" smooth="yes"/>
    </contour>
    <contour>
      <point x="471" y="270"/>
      <point x="468" y="272"/>
      <point x="464" y="272" type="curve" smooth="yes"/>
      <point x="75" y="271" type="line" smooth="yes"/>
      <point x="72" y="271"/>
      <point x="70" y="269"/>
      <point x="70" y="264" type="curve" smooth="yes"/>
      <point x="70" y="240" type="line" smooth="yes"/>
      <point x="70" y="235"/>
      <point x="72" y="233"/>
      <point x="78" y="233" type="curve" smooth="yes"/>
      <point x="461" y="234" type="line" smooth="yes"/>
      <point x="468" y="234"/>
      <point x="471" y="236"/>
      <point x="471" y="242" type="curve" smooth="yes"/>
      <point x="471" y="266" type="line" smooth="yes"/>
    </contour>
  </outline>
</glyph>
<glyph name="greater" format="1">
  <advance width="523"/>
  <unicode hex="003E"/>
  <outline>
    <contour>
      <point x="71" y="195" type="line" smooth="yes"/>
      <point x="71" y="184"/>
      <point x="78" y="180"/>
      <point x="87" y="184" type="curve" smooth="yes"/>
      <point x="455" y="330" type="line" smooth="yes"/>
      <point x="460" y="332"/>
      <point x="463" y="335"/>
      <point x="463" y="340" type="curve" smooth="yes"/>
      <point x="463" y="375" type="line" smooth="yes"/>
      <point x="463" y="381"/>
      <point x="460" y="383"/>
      <point x="455" y="385" type="curve" smooth="yes"/>
      <point x="87" y="533" type="line" smooth="yes"/>
      <point x="75" y="538"/>
      <point x="70" y="534"/>
      <point x="70" y="524" type="curve" smooth="yes"/>
      <point x="70" y="498" type="line" smooth="yes"/>
      <point x="70" y="492"/>
      <point x="74" y="489"/>
      <point x="83" y="485" type="curve" smooth="yes"/>
      <point x="402" y="358" type="line"/>
      <point x="84" y="230" type="line" smooth="yes"/>
      <point x="75" y="226"/>
      <point x="71" y="223"/>
      <point x="71" y="216" type="curve" smooth="yes"/>
    </contour>
  </outline>
</glyph>
<glyph name="D" format="1">
  <advance width="703"/>
  <unicode hex="0044"/>
  <outline>
    <contour>
      <point x="117" y="742"/>
      <point x="114" y="738"/>
      <point x="114" y="732" type="curve" smooth="yes"/>
      <point x="114" y="10" type="line" smooth="yes"/>
      <point x="114" y="3"/>
      <point x="117" y="0"/>
      <point x="123" y="0" type="curve" smooth="yes"/>
      <point x="225" y="0" type="line" smooth="yes"/>
      <point x="499" y="0"/>
      <point x="626" y="115"/>
      <point x="626" y="379" type="curve" smooth="yes"/>
      <point x="626" y="622"/>
      <point x="518" y="739"/>
      <point x="239" y="741" type="curve" smooth="yes"/>
      <point x="229" y="741"/>
      <point x="127" y="742"/>
      <point x="124" y="742" type="curve" smooth="yes"/>
    </contour>
    <contour>
      <point x="223" y="701" type="line" smooth="yes"/>
      <point x="465" y="701"/>
      <point x="578" y="633"/>
      <point x="578" y="371" type="curve" smooth="yes"/>
      <point x="578" y="130"/>
      <point x="478" y="40"/>
      <point x="221" y="40" type="curve" smooth="yes"/>
      <point x="171" y="40" type="line" smooth="yes"/>
      <point x="163" y="40"/>
      <point x="160" y="43"/>
      <point x="160" y="49" type="curve" smooth="yes"/>
      <point x="160" y="687" type="line" smooth="yes"/>
      <point x="160" y="695"/>
      <point x="162" y="701"/>
      <point x="170" y="701" type="curve"/>
    </contour>
    <contour>
      <point x="342" y="371" type="move" name="center"/>
    </contour>
    <contour>
      <point x="291" y="0" type="move" name="bottom"/>
    </contour>
    <contour>
      <point x="336" y="742" type="move" name="top"/>
    </contour>
  </outline>
</glyph>
<glyph name="E" format="1">
  <advance width="612"/>
  <unicode hex="0045"/>
  <outline>
    <contour>
      <point x="114" y="10" type="line" smooth="yes"/>
      <point x="114" y="2"/>
      <point x="116" y="0"/>
      <point x="123" y="0" type="curve" smooth="yes"/>
      <point x="553" y="0" type="line" smooth="yes"/>
      <point x="558" y="0"/>
      <point x="560" y="2"/>
      <point x="560" y="7" type="curve" smooth="yes"/>
      <point x="560" y="33" type="line" smooth="yes"/>
      <point x="560" y="39"/>
      <point x="558" y="40"/>
      <point x="552" y="40" type="curve" smooth="yes"/>
      <point x="169" y="40" type="line" smooth="yes"/>
      <point x="162" y="40"/>
      <point x="160" y="41"/>
      <point x="160" y="49" type="curve" smooth="yes"/>
      <point x="160" y="346" type="line" smooth="yes"/>
      <point x="160" y="354"/>
      <point x="162" y="355"/>
      <point x="169" y="355" type="curve" smooth="yes"/>
      <point x="457" y="355" type="line" smooth="yes"/>
      <point x="463" y="355"/>
      <point x="465" y="356"/>
      <point x="465" y="362" type="curve" smooth="yes"/>
      <point x="465" y="388" type="line" smooth="yes"/>
      <point x="465" y="393"/>
      <point x="463" y="395"/>
      <point x="458" y="395" type="curve" smooth="yes"/>
      <point x="169" y="395" type="line" smooth="yes"/>
      <point x="162" y="395"/>
      <point x="160" y="396"/>
      <point x="160" y="402" type="curve" smooth="yes"/>
      <point x="160" y="693" type="line" smooth="yes"/>
      <point x="160" y="701"/>
      <point x="162" y="702"/>
      <point x="169" y="702" type="curve" smooth="yes"/>
      <point x="537" y="702" type="line" smooth="yes"/>
      <point x="543" y="702"/>
      <point x="545" y="703"/>
      <point x="545" y="709" type="curve" smooth="yes"/>
      <point x="545" y="735" type="line" smooth="yes"/>
      <point x="545" y="740"/>
      <point x="543" y="742"/>
      <point x="538" y="742" type="curve" smooth="yes"/>
      <point x="123" y="742" type="line" smooth="yes"/>
      <point x="116" y="742"/>
      <point x="114" y="740"/>
      <point x="114" y="732" type="curve" smooth="yes"/>
    </contour>
    <contour>
      <point x="549" y="10" type="move" name="ogonek"/>
    </contour>
    <contour>
      <point x="364" y="0" type="move" name="bottom"/>
    </contour>
    <contour>
      <point x="345" y="742" type="move" name="top"/>
    </contour>
  </outline>
</glyph>
<glyph name="H" format="1">
  <advance width="725"/>
  <unicode hex="0048"/>
  <outline>
    <contour>
      <point x="563" y="366"/>
      <point x="565" y="364"/>
      <point x="565" y="359" type="curve" smooth="yes"/>
      <point x="565" y="9" type="line" smooth="yes"/>
      <point x="565" y="2"/>
      <point x="568" y="0"/>
      <point x="575" y="0" type="curve" smooth="yes"/>
      <point x="602" y="0" type="line" smooth="yes"/>
      <point x="608" y="0"/>
      <point x="611" y="3"/>
      <point x="611" y="10" type="curve" smooth="yes"/>
      <point x="611" y="732" type="line" smooth="yes"/>
      <point x="611" y="740"/>
      <point x="609" y="742"/>
      <point x="602" y="742" type="curve" smooth="yes"/>
      <point x="573" y="742" type="line" smooth="yes"/>
      <point x="567" y="742"/>
      <point x="565" y="739"/>
      <point x="565" y="733" type="curve" smooth="yes"/>
      <point x="565" y="414" type="line" smooth="yes"/>
      <point x="565" y="408"/>
      <point x="563" y="406"/>
      <point x="557" y="406" type="curve" smooth="yes"/>
      <point x="169" y="406" type="line" smooth="yes"/>
      <point x="162" y="406"/>
      <point x="160" y="407"/>
      <point x="160" y="415" type="curve" smooth="yes"/>
      <point x="160" y="732" type="line" smooth="yes"/>
      <point x="160" y="740"/>
      <point x="158" y="742"/>
      <point x="151" y="742" type="curve" smooth="yes"/>
      <point x="123" y="742" type="line" smooth="yes"/>
      <point x="116" y="742"/>
      <point x="114" y="740"/>
      <point x="114" y="732" type="curve" smooth="yes"/>
      <point x="114" y="10" type="line" smooth="yes"/>
      <point x="114" y="3"/>
      <point x="116" y="0"/>
      <point x="123" y="0" type="curve" smooth="yes"/>
      <point x="150" y="0" type="line" smooth="yes"/>
      <point x="157" y="0"/>
      <point x="160" y="3"/>
      <point x="160" y="9" type="curve" smooth="yes"/>
      <point x="160" y="360" type="line" smooth="yes"/>
      <point x="160" y="363"/>
      <point x="162" y="366"/>
      <point x="166" y="366" type="curve" smooth="yes"/>
      <point x="558" y="366" type="line" smooth="yes"/>
    </contour>
    <contour>
      <point x="363" y="0" type="move" name="bottom"/>
    </contour>
    <contour>
      <point x="363" y="742" type="move" name="top"/>
    </contour>
    <contour>
      <point x="20" y="742" type="move" name="topleft"/>
    </contour>
    <contour>
      <point x="363" y="371" type="move" name="center"/>
    </contour>
  </outline>
</glyph>
<glyph name="I" format="1">
  <advance width="274"/>
  <unicode hex="0049"/>
  <outline>
    <contour>
      <point x="116" y="742"/>
      <point x="114" y="740"/>
      <point x="114" y="732" type="curve" smooth="yes"/>
      <point x="114" y="10" type="line" smooth="yes"/>
      <point x="114" y="2"/>
      <point x="116" y="0"/>
      <point x="125" y="0" type="curve" smooth="yes"/>
      <point x="148" y="0" type="line" smooth="yes"/>
      <point x="158" y="0"/>
      <point x="160" y="2"/>
      <point x="160" y="12" type="curve" smooth="yes"/>
      <point x="160" y="732" type="line" smooth="yes"/>
      <point x="160" y="740"/>
      <point x="158" y="742"/>
      <point x="151" y="742" type="curve" smooth="yes"/>
      <point x="123" y="742" type="line" smooth="yes"/>
    </contour>
    <contour>
      <point x="149" y="10" type="move" name="ogonek"/>
    </contour>
    <contour>
      <point x="137" y="0" type="move" name="bottom"/>
    </contour>
    <contour>
      <point x="140" y="742" type="move" name="top"/>
    </contour>
  </outline>
</glyph>
<glyph name="J" format="1">
  <advance width="399"/>
  <unicode hex="004A"/>
  <outline>
    <contour>
      <point x="289" y="732" type="line" smooth="yes"/>
      <point x="289" y="739"/>
      <point x="287" y="742"/>
      <point x="281" y="742" type="curve" smooth="yes"/>
      <point x="251" y="742" type="line" smooth="yes"/>
      <point x="245" y="742"/>
      <point x="243" y="739"/>
      <point x="243" y="733" type="curve" smooth="yes"/>
      <point x="243" y="154" type="line" smooth="yes"/>
      <point x="243" y="61"/>
      <point x="221" y="34"/>
      <point x="156" y="34" type="curve" smooth="yes"/>
      <point x="107" y="34"/>
      <point x="85" y="49"/>
      <point x="64" y="59" type="curve" smooth="yes"/>
      <point x="60" y="61"/>
      <point x="57" y="60"/>
      <point x="56" y="55" type="curve" smooth="yes"/>
      <point x="47" y="24" type="line" smooth="yes"/>
      <point x="46" y="20"/>
      <point x="48" y="17"/>
      <point x="51" y="15" type="curve" smooth="yes"/>
      <point x="58" y="10"/>
      <point x="103" y="-10"/>
      <point x="158" y="-10" type="curve" smooth="yes"/>
      <point x="255" y="-10"/>
      <point x="289" y="49"/>
      <point x="289" y="144" type="curve" smooth="yes"/>
    </contour>
    <contour>
      <point x="266" y="742" type="move" name="top"/>
    </contour>
  </outline>
</glyph>
<glyph name="L" format="1">
  <advance width="587"/>
  <unicode hex="004C"/>
  <outline>
    <contour>
      <point x="114" y="10" type="line" smooth="yes"/>
      <point x="114" y="3"/>
      <point x="116" y="0"/>
      <point x="123" y="0" type="curve"/>
      <point x="533" y="0" type="line"/>
      <point x="538" y="0"/>
      <point x="540" y="2"/>
      <point x="540" y="7" type="curve" smooth="yes"/>
      <point x="540" y="33" type="line" smooth="yes"/>
      <point x="540" y="39"/>
      <point x="538" y="40"/>
      <point x="532" y="40" type="curve" smooth="yes"/>
      <point x="169" y="40" type="line" smooth="yes"/>
      <point x="162" y="40"/>
      <point x="160" y="41"/>
      <point x="160" y="49" type="curve" smooth="yes"/>
      <point x="160" y="732" type="line" smooth="yes"/>
      <point x="160" y="740"/>
      <point x="158" y="742"/>
      <point x="151" y="742" type="curve" smooth="yes"/>
      <point x="123" y="742" type="line" smooth="yes"/>
      <point x="116" y="742"/>
      <point x="114" y="740"/>
      <point x="114" y="732" type="curve" smooth="yes"/>
    </contour>
    <contour>
      <point x="137" y="742" type="move" name="top"/>
    </contour>
    <contour>
      <point x="319" y="0" type="move" name="bottom"/>
    </contour>
    <contour>
      <point x="423" y="742" type="move" name="topright"/>
    </contour>
  </outline>
</glyph>
<glyph name="M" format="1">
  <advance width="879"/>
  <unicode hex="004D"/>
  <outline>
    <contour>
      <point x="148" y="0" type="line" smooth="yes"/>
      <point x="155" y="0"/>
      <point x="158" y="3"/>
      <point x="158" y="9" type="curve" smooth="yes"/>
      <point x="158" y="622" type="line" smooth="yes"/>
      <point x="158" y="626"/>
      <point x="160" y="625"/>
      <point x="161" y="622" type="curve" smooth="yes"/>
      <point x="405" y="10" type="line" smooth="yes"/>
      <point x="408" y="3"/>
      <point x="413" y="0"/>
      <point x="424" y="0" type="curve" smooth="yes"/>
      <point x="451" y="0" type="line" smooth="yes"/>
      <point x="460" y="0"/>
      <point x="464" y="3"/>
      <point x="467" y="11" type="curve" smooth="yes"/>
      <point x="716" y="627" type="line" smooth="yes"/>
      <point x="717" y="630"/>
      <point x="719" y="632"/>
      <point x="719" y="627" type="curve" smooth="yes"/>
      <point x="719" y="9" type="line" smooth="yes"/>
      <point x="719" y="2"/>
      <point x="722" y="0"/>
      <point x="729" y="0" type="curve" smooth="yes"/>
      <point x="756" y="0" type="line" smooth="yes"/>
      <point x="762" y="0"/>
      <point x="765" y="3"/>
      <point x="765" y="10" type="curve" smooth="yes"/>
      <point x="765" y="732" type="line" smooth="yes"/>
      <point x="765" y="740"/>
      <point x="763" y="742"/>
      <point x="756" y="742" type="curve" smooth="yes"/>
      <point x="727" y="742" type="line" smooth="yes"/>
      <point x="721" y="742"/>
      <point x="718" y="740"/>
      <point x="716" y="735" type="curve" smooth="yes"/>
      <point x="445" y="65" type="line" smooth="yes"/>
      <point x="439" y="51"/>
      <point x="434" y="51"/>
      <point x="429" y="64" type="curve" smooth="yes"/>
      <point x="162" y="734" type="line"/>
      <point x="160" y="740"/>
      <point x="157" y="742"/>
      <point x="149" y="742" type="curve" smooth="yes"/>
      <point x="123" y="742" type="line" smooth="yes"/>
      <point x="116" y="742"/>
      <point x="114" y="740"/>
      <point x="114" y="732" type="curve" smooth="yes"/>
      <point x="114" y="10" type="line" smooth="yes"/>
      <point x="114" y="3"/>
      <point x="116" y="0"/>
      <point x="123" y="0" type="curve" smooth="yes"/>
    </contour>
    <contour>
      <point x="440" y="742" type="move" name="top"/>
    </contour>
    <contour>
      <point x="440" y="0" type="move" name="bottom"/>
    </contour>
  </outline>
</glyph>
<glyph name="N" format="1">
  <advance width="755"/>
  <unicode hex="004E"/>
  <outline>
    <contour>
      <point x="599" y="742"/>
      <point x="597" y="739"/>
      <point x="597" y="733" type="curve" smooth="yes"/>
      <point x="597" y="107" type="line" smooth="yes"/>
      <point x="597" y="101"/>
      <point x="590" y="95"/>
      <point x="583" y="105" type="curve" smooth="yes"/>
      <point x="156" y="735" type="line" smooth="yes"/>
      <point x="152" y="741"/>
      <point x="149" y="742"/>
      <point x="141" y="742" type="curve" smooth="yes"/>
      <point x="123" y="742" type="line"/>
      <point x="116" y="742"/>
      <point x="114" y="740"/>
      <point x="114" y="732" type="curve" smooth="yes"/>
      <point x="114" y="10" type="line" smooth="yes"/>
      <point x="114" y="3"/>
      <point x="116" y="0"/>
      <point x="123" y="0" type="curve" smooth="yes"/>
      <point x="148" y="0" type="line" smooth="yes"/>
      <point x="155" y="0"/>
      <point x="158" y="3"/>
      <point x="158" y="9" type="curve" smooth="yes"/>
      <point x="158" y="637" type="line" smooth="yes"/>
      <point x="158" y="645"/>
      <point x="163" y="647"/>
      <point x="170" y="637" type="curve" smooth="yes"/>
      <point x="598" y="6" type="line" smooth="yes"/>
      <point x="603" y="-1"/>
      <point x="609" y="0"/>
      <point x="617" y="0" type="curve" smooth="yes"/>
      <point x="632" y="0" type="line" smooth="yes"/>
      <point x="638" y="0"/>
      <point x="641" y="3"/>
      <point x="641" y="10" type="curve" smooth="yes"/>
      <point x="641" y="732" type="line" smooth="yes"/>
      <point x="641" y="740"/>
      <point x="639" y="742"/>
      <point x="632" y="742" type="curve" smooth="yes"/>
      <point x="605" y="742" type="line" smooth="yes"/>
    </contour>
    <contour>
      <point x="394" y="742" type="move" name="top"/>
    </contour>
    <contour>
      <point x="378" y="0" type="move" name="bottom"/>
    </contour>
  </outline>
</glyph>
<glyph name="O" format="1">
  <advance width="758"/>
  <unicode hex="004F"/>
  <outline>
    <contour>
      <point x="567" y="-10"/>
      <point x="680" y="122"/>
      <point x="680" y="369" type="curve" smooth="yes"/>
      <point x="680" y="618"/>
      <point x="567" y="752"/>
      <point x="380" y="752" type="curve" smooth="yes"/>
      <point x="192" y="752"/>
      <point x="78" y="617"/>
      <point x="78" y="367" type="curve" smooth="yes"/>
      <point x="78" y="121"/>
      <point x="190" y="-10"/>
      <point x="379" y="-10" type="curve" smooth="yes"/>
    </contour>
    <contour>
      <point x="215" y="32"/>
      <point x="126" y="143"/>
      <point x="126" y="369" type="curve" smooth="yes"/>
      <point x="126" y="597"/>
      <point x="215" y="710"/>
      <point x="380" y="710" type="curve" smooth="yes"/>
      <point x="544" y="710"/>
      <point x="632" y="598"/>
      <point x="632" y="369" type="curve" smooth="yes"/>
      <point x="632" y="142"/>
      <point x="546" y="32"/>
      <point x="381" y="32" type="curve" smooth="yes"/>
    </contour>
    <contour>
      <point x="381" y="0" type="move" name="bottom"/>
    </contour>
    <contour>
      <point x="451" y="9" type="move" name="ogonek"/>
    </contour>
    <contour>
      <point x="381" y="742" type="move" name="top"/>
    </contour>
    <contour>
      <point x="517" y="742" type="move" name="topright"/>
    </contour>
    <contour>
      <point x="20" y="742" type="move" name="topleft"/>
    </contour>
    <contour>
      <point x="379" y="371" type="move" name="center"/>
    </contour>
  </outline>
</glyph>
<glyph name="P" format="1">
  <advance width="674"/>
  <unicode hex="0050"/>
  <outline>
    <contour>
      <point x="611" y="684"/>
      <point x="500" y="742"/>
      <point x="345" y="742" type="curve" smooth="yes"/>
      <point x="123" y="742" type="line" smooth="yes"/>
      <point x="116" y="742"/>
      <point x="114" y="740"/>
      <point x="114" y="732" type="curve" smooth="yes"/>
      <point x="114" y="8" type="line" smooth="yes"/>
      <point x="114" y="3"/>
      <point x="117" y="0"/>
      <point x="122" y="0" type="curve" smooth="yes"/>
      <point x="152" y="0" type="line" smooth="yes"/>
      <point x="157" y="0"/>
      <point x="160" y="3"/>
      <point x="160" y="9" type="curve" smooth="yes"/>
      <point x="160" y="318" type="line" smooth="yes"/>
      <point x="160" y="324"/>
      <point x="162" y="327"/>
      <point x="168" y="327" type="curve" smooth="yes"/>
      <point x="351" y="327" type="line" smooth="yes"/>
      <point x="502" y="327"/>
      <point x="611" y="387"/>
      <point x="611" y="535" type="curve" smooth="yes"/>
    </contour>
    <contour>
      <point x="563" y="415"/>
      <point x="479" y="367"/>
      <point x="351" y="367" type="curve" smooth="yes"/>
      <point x="167" y="367" type="line" smooth="yes"/>
      <point x="162" y="367"/>
      <point x="160" y="370"/>
      <point x="160" y="377" type="curve" smooth="yes"/>
      <point x="160" y="694" type="line" smooth="yes"/>
      <point x="160" y="700"/>
      <point x="163" y="702"/>
      <point x="169" y="702" type="curve" smooth="yes"/>
      <point x="344" y="702" type="line" smooth="yes"/>
      <point x="479" y="702"/>
      <point x="563" y="662"/>
      <point x="563" y="538" type="curve" smooth="yes"/>
    </contour>
  </outline>
</glyph>
<glyph name="S" format="1">
  <advance width="618"/>
  <unicode hex="0053"/>
  <outline>
    <contour>
      <point x="506" y="620"/>
      <point x="508" y="618"/>
      <point x="513" y="622" type="curve" smooth="yes"/>
      <point x="535" y="642" type="line" smooth="yes"/>
      <point x="541" y="647"/>
      <point x="539" y="652"/>
      <point x="535" y="656" type="curve" smooth="yes"/>
      <point x="478" y="716"/>
      <point x="411" y="752"/>
      <point x="318" y="752" type="curve" smooth="yes"/>
      <point x="181" y="752"/>
      <point x="86" y="681"/>
      <point x="86" y="556" type="curve" smooth="yes"/>
      <point x="86" y="492"/>
      <point x="116" y="421"/>
      <point x="224" y="380" type="curve" smooth="yes"/>
      <point x="375" y="322" type="line" smooth="yes"/>
      <point x="484" y="280"/>
      <point x="507" y="239"/>
      <point x="507" y="180" type="curve" smooth="yes"/>
      <point x="507" y="73"/>
      <point x="428" y="32"/>
      <point x="309" y="32" type="curve" smooth="yes"/>
      <point x="202" y="32"/>
      <point x="154" y="69"/>
      <point x="98" y="141" type="curve" smooth="yes"/>
      <point x="93" y="147"/>
      <point x="88" y="148"/>
      <point x="78" y="141" type="curve" smooth="yes"/>
      <point x="67" y="133" type="line" smooth="yes"/>
      <point x="57" y="126"/>
      <point x="56" y="120"/>
      <point x="61" y="113" type="curve" smooth="yes"/>
      <point x="120" y="29"/>
      <point x="198" y="-10"/>
      <point x="309" y="-10" type="curve" smooth="yes"/>
      <point x="460" y="-10"/>
      <point x="553" y="60"/>
      <point x="553" y="182" type="curve" smooth="yes"/>
      <point x="553" y="266"/>
      <point x="510" y="326"/>
      <point x="392" y="369" type="curve" smooth="yes"/>
      <point x="254" y="419" type="line" smooth="yes"/>
      <point x="147" y="458"/>
      <point x="132" y="518"/>
      <point x="132" y="557" type="curve" smooth="yes"/>
      <point x="132" y="656"/>
      <point x="206" y="710"/>
      <point x="315" y="710" type="curve" smooth="yes"/>
      <point x="399" y="710"/>
      <point x="460" y="674"/>
      <point x="500" y="627" type="curve" smooth="yes"/>
    </contour>
    <contour>
      <point x="319" y="742" type="move" name="top"/>
    </contour>
    <contour>
      <point x="323" y="0" type="move" name="bottom"/>
    </contour>
  </outline>
</glyph>
<glyph name="T" format="1">
  <advance width="623"/>
  <unicode hex="0054"/>
  <outline>
    <contour>
      <point x="47" y="703"/>
      <point x="49" y="702"/>
      <point x="55" y="702" type="curve" smooth="yes"/>
      <point x="289" y="702" type="line" smooth="yes"/>
      <point x="297" y="702"/>
      <point x="299" y="701"/>
      <point x="299" y="693" type="curve" smooth="yes"/>
      <point x="299" y="10" type="line" smooth="yes"/>
      <point x="299" y="2"/>
      <point x="301" y="0"/>
      <point x="309" y="0" type="curve" smooth="yes"/>
      <point x="336" y="0" type="line" smooth="yes"/>
      <point x="343" y="0"/>
      <point x="345" y="2"/>
      <point x="345" y="10" type="curve" smooth="yes"/>
      <point x="345" y="693" type="line" smooth="yes"/>
      <point x="345" y="701"/>
      <point x="347" y="702"/>
      <point x="355" y="702" type="curve" smooth="yes"/>
      <point x="568" y="702" type="line" smooth="yes"/>
      <point x="574" y="702"/>
      <point x="576" y="703"/>
      <point x="576" y="709" type="curve" smooth="yes"/>
      <point x="576" y="735" type="line" smooth="yes"/>
      <point x="576" y="740"/>
      <point x="574" y="742"/>
      <point x="569" y="742" type="curve" smooth="yes"/>
      <point x="54" y="742" type="line" smooth="yes"/>
      <point x="49" y="742"/>
      <point x="47" y="740"/>
      <point x="47" y="735" type="curve" smooth="yes"/>
      <point x="47" y="709" type="line" smooth="yes"/>
    </contour>
    <contour>
      <point x="323" y="742" type="move" name="top"/>
    </contour>
    <contour>
      <point x="323" y="0" type="move" name="bottom"/>
    </contour>
  </outline>
</glyph>
<glyph name="U" format="1">
  <advance width="702"/>
  <unicode hex="0055"/>
  <outline>
    <contour>
      <point x="598" y="733" type="line" smooth="yes"/>
      <point x="598" y="739"/>
      <point x="596" y="742"/>
      <point x="590" y="742" type="curve" smooth="yes"/>
      <point x="566" y="742" type="line" smooth="yes"/>
      <point x="560" y="742"/>
      <point x="558" y="739"/>
      <point x="558" y="733" type="curve" smooth="yes"/>
      <point x="558" y="229" type="line" smooth="yes"/>
      <point x="558" y="97"/>
      <point x="491" y="32"/>
      <point x="353" y="32" type="curve" smooth="yes"/>
      <point x="217" y="32"/>
      <point x="150" y="96"/>
      <point x="150" y="226" type="curve" smooth="yes"/>
      <point x="150" y="732" type="line" smooth="yes"/>
      <point x="150" y="740"/>
      <point x="148" y="742"/>
      <point x="140" y="742" type="curve" smooth="yes"/>
      <point x="112" y="742" type="line" smooth="yes"/>
      <point x="106" y="742"/>
      <point x="104" y="739"/>
      <point x="104" y="731" type="curve" smooth="yes"/>
      <point x="104" y="245" type="line" smooth="yes"/>
      <point x="104" y="71"/>
      <point x="183" y="-10"/>
      <point x="351" y="-10" type="curve" smooth="yes"/>
      <point x="517" y="-10"/>
      <point x="598" y="69"/>
      <point x="598" y="230" type="curve" smooth="yes"/>
    </contour>
    <contour>
      <point x="423" y="9" type="move" name="ogonek"/>
    </contour>
    <contour>
      <point x="355" y="742" type="move" name="top"/>
    </contour>
    <contour>
      <point x="632" y="742" type="move" name="topright"/>
    </contour>
    <contour>
      <point x="351" y="0" type="move" name="bottom"/>
    </contour>
  </outline>
</glyph>
<glyph name="Z" format="1">
  <advance width="600"/>
  <unicode hex="005A"/>
  <outline>
    <contour>
      <point x="537" y="0" type="line" smooth="yes"/>
      <point x="542" y="0"/>
      <point x="544" y="3"/>
      <point x="544" y="7" type="curve" smooth="yes"/>
      <point x="544" y="35" type="line" smooth="yes"/>
      <point x="544" y="39"/>
      <point x="542" y="40"/>
      <point x="538" y="40" type="curve" smooth="yes"/>
      <point x="117" y="40" type="line" smooth="yes"/>
      <point x="113" y="40"/>
      <point x="112" y="43"/>
      <point x="115" y="48" type="curve" smooth="yes"/>
      <point x="539" y="707" type="line" smooth="yes"/>
      <point x="542" y="712"/>
      <point x="544" y="714"/>
      <point x="544" y="719" type="curve" smooth="yes"/>
      <point x="544" y="736" type="line" smooth="yes"/>
      <point x="544" y="740"/>
      <point x="542" y="742"/>
      <point x="538" y="742" type="curve" smooth="yes"/>
      <point x="71" y="742" type="line" smooth="yes"/>
      <point x="67" y="742"/>
      <point x="65" y="740"/>
      <point x="65" y="736" type="curve" smooth="yes"/>
      <point x="65" y="709" type="line" smooth="yes"/>
      <point x="65" y="704"/>
      <point x="67" y="702"/>
      <point x="72" y="702" type="curve" smooth="yes"/>
      <point x="478" y="702" type="line" smooth="yes"/>
      <point x="483" y="702"/>
      <point x="485" y="700"/>
      <point x="482" y="695" type="curve" smooth="yes"/>
      <point x="62" y="39" type="line" smooth="yes"/>
      <point x="57" y="32"/>
      <point x="55" y="28"/>
      <point x="55" y="22" type="curve" smooth="yes"/>
      <point x="55" y="7" type="line" smooth="yes"/>
      <point x="55" y="2"/>
      <point x="57" y="0"/>
      <point x="63" y="0" type="curve" smooth="yes"/>
    </contour>
    <contour>
      <point x="305" y="742" type="move" name="top"/>
    </contour>
    <contour>
      <point x="312" y="0" type="move" name="bottom"/>
    </contour>
  </outline>
</glyph>
<glyph name="backslash" format="1">
  <advance width="328"/>
  <unicode hex="005C"/>
  <outline>
    <contour>
      <point x="305" y="-60" type="line" smooth="yes"/>
      <point x="310" y="-60"/>
      <point x="311" y="-58"/>
      <point x="310" y="-55" type="curve" smooth="yes"/>
      <point x="59" y="736" type="line" smooth="yes"/>
      <point x="58" y="740"/>
      <point x="55" y="742"/>
      <point x="51" y="742" type="curve" smooth="yes"/>
      <point x="22" y="742" type="line" smooth="yes"/>
      <point x="16" y="742"/>
      <point x="15" y="739"/>
      <point x="17" y="732" type="curve" smooth="yes"/>
      <point x="265" y="-52" type="line" smooth="yes"/>
      <point x="267" y="-58"/>
      <point x="271" y="-60"/>
      <point x="276" y="-60" type="curve" smooth="yes"/>
    </contour>
  </outline>
</glyph>
<glyph name="underscore" format="1">
  <advance width="501"/>
  <unicode hex="005F"/>
  <outline>
    <contour>
      <point x="431" y="-63"/>
      <point x="428" y="-61"/>
      <point x="424" y="-61" type="curve" smooth="yes"/>
      <point x="75" y="-62" type="line" smooth="yes"/>
      <point x="72" y="-62"/>
      <point x="70" y="-64"/>
      <point x="70" y="-69" type="curve" smooth="yes"/>
      <point x="70" y="-95" type="line" smooth="yes"/>
      <point x="70" y="-100"/>
      <point x="72" y="-102"/>
      <point x="78" y="-102" type="curve" smooth="yes"/>
      <point x="421" y="-101" type="line" smooth="yes"/>
      <point x="428" y="-101"/>
      <point x="431" y="-99"/>
      <point x="431" y="-93" type="curve" smooth="yes"/>
      <point x="431" y="-67" type="line" smooth="yes"/>
    </contour>
  </outline>
</glyph>
<glyph name="b" format="1">
  <advance width="592"/>
  <unicode hex="0062"/>
  <outline>
    <contour>
      <point x="125" y="0"/>
      <point x="128" y="3"/>
      <point x="128" y="13" type="curve" smooth="yes"/>
      <point x="130" y="64" type="line" smooth="yes"/>
      <point x="130" y="73"/>
      <point x="135" y="74"/>
      <point x="140" y="67" type="curve" smooth="yes"/>
      <point x="152" y="50"/>
      <point x="202" y="-10"/>
      <point x="305" y="-10" type="curve" smooth="yes"/>
      <point x="449" y="-10"/>
      <point x="533" y="96"/>
      <point x="533" y="267" type="curve" smooth="yes"/>
      <point x="533" y="416"/>
      <point x="469" y="540"/>
      <point x="316" y="540" type="curve" smooth="yes"/>
      <point x="210" y="540"/>
      <point x="154" y="482"/>
      <point x="144" y="473" type="curve" smooth="yes"/>
      <point x="135" y="465"/>
      <point x="131" y="465"/>
      <point x="131" y="478" type="curve" smooth="yes"/>
      <point x="131" y="731" type="line" smooth="yes"/>
      <point x="131" y="739"/>
      <point x="129" y="742"/>
      <point x="123" y="742" type="curve" smooth="yes"/>
      <point x="100" y="742" type="line" smooth="yes"/>
      <point x="94" y="742"/>
      <point x="91" y="739"/>
      <point x="91" y="732" type="curve" smooth="yes"/>
      <point x="91" y="13" type="line" smooth="yes"/>
      <point x="91" y="3"/>
      <point x="94" y="0"/>
      <point x="102" y="0" type="curve" smooth="yes"/>
      <point x="113" y="0" type="line" smooth="yes"/>
    </contour>
    <contour>
      <point x="171" y="463"/>
      <point x="235" y="502"/>
      <point x="309" y="502" type="curve" smooth="yes"/>
      <point x="427" y="502"/>
      <point x="490" y="409"/>
      <point x="490" y="267" type="curve" smooth="yes"/>
      <point x="490" y="103"/>
      <point x="405" y="28"/>
      <point x="301" y="28" type="curve" smooth="yes"/>
      <point x="217" y="28"/>
      <point x="131" y="96"/>
      <point x="131" y="177" type="curve" smooth="yes"/>
      <point x="131" y="415" type="line"/>
    </contour>
  </outline>
</glyph>
<glyph name="d" format="1">
  <advance width="592"/>
  <unicode hex="0064"/>
  <outline>
    <contour>
      <point x="489" y="0" type="line" smooth="yes"/>
      <point x="498" y="0"/>
      <point x="501" y="3"/>
      <point x="501" y="12" type="curve" smooth="yes"/>
      <point x="501" y="733" type="line" smooth="yes"/>
      <point x="501" y="739"/>
      <point x="498" y="742"/>
      <point x="493" y="742" type="curve" smooth="yes"/>
      <point x="470" y="742" type="line" smooth="yes"/>
      <point x="463" y="742"/>
      <point x="461" y="739"/>
      <point x="461" y="732" type="curve" smooth="yes"/>
      <point x="461" y="493" type="line" smooth="yes"/>
      <point x="461" y="480"/>
      <point x="459" y="476"/>
      <point x="447" y="486" type="curve" smooth="yes"/>
      <point x="416" y="510"/>
      <point x="373" y="540"/>
      <point x="300" y="540" type="curve" smooth="yes"/>
      <point x="153" y="540"/>
      <point x="57" y="425"/>
      <point x="57" y="255" type="curve" smooth="yes"/>
      <point x="57" y="78"/>
      <point x="160" y="-10"/>
      <point x="288" y="-10" type="curve" smooth="yes"/>
      <point x="384" y="-10"/>
      <point x="435" y="49"/>
      <point x="451" y="66" type="curve" smooth="yes"/>
      <point x="459" y="74"/>
      <point x="463" y="73"/>
      <point x="463" y="62" type="curve" smooth="yes"/>
      <point x="463" y="11" type="line" smooth="yes"/>
      <point x="463" y="4"/>
      <point x="466" y="0"/>
      <point x="473" y="0" type="curve" smooth="yes"/>
    </contour>
    <contour>
      <point x="461" y="170" type="line" smooth="yes"/>
      <point x="461" y="110"/>
      <point x="389" y="28"/>
      <point x="293" y="28" type="curve" smooth="yes"/>
      <point x="191" y="28"/>
      <point x="99" y="100"/>
      <point x="99" y="259" type="curve" smooth="yes"/>
      <point x="99" y="411"/>
      <point x="184" y="502"/>
      <point x="301" y="502" type="curve" smooth="yes"/>
      <point x="362" y="502"/>
      <point x="412" y="474"/>
      <point x="461" y="426" type="curve"/>
    </contour>
    <contour>
      <point x="302" y="0" type="move" name="bottom"/>
    </contour>
    <contour>
      <point x="296" y="530" type="move" name="top"/>
    </contour>
    <contour>
      <point x="627" y="742" type="move" name="topright"/>
    </contour>
    <contour>
      <point x="314" y="265" type="move" name="center"/>
    </contour>
  </outline>
</glyph>
<glyph name="i" format="1">
  <advance width="222"/>
  <unicode hex="0069"/>
  <outline>
    <contour>
      <point x="131" y="528"/>
      <point x="129" y="530"/>
      <point x="122" y="530" type="curve" smooth="yes"/>
      <point x="100" y="530" type="line" smooth="yes"/>
      <point x="93" y="530"/>
      <point x="91" y="528"/>
      <point x="91" y="520" type="curve" smooth="yes"/>
      <point x="91" y="10" type="line" smooth="yes"/>
      <point x="91" y="2"/>
      <point x="93" y="0"/>
      <point x="102" y="0" type="curve" smooth="yes"/>
      <point x="119" y="0" type="line" smooth="yes"/>
      <point x="129" y="0"/>
      <point x="131" y="2"/>
      <point x="131" y="12" type="curve" smooth="yes"/>
      <point x="131" y="520" type="line" smooth="yes"/>
    </contour>
    <contour>
      <point x="136" y="737"/>
      <point x="131" y="742"/>
      <point x="124" y="742" type="curve" smooth="yes"/>
      <point x="98" y="742" type="line" smooth="yes"/>
      <point x="91" y="742"/>
      <point x="86" y="737"/>
      <point x="86" y="729" type="curve" smooth="yes"/>
      <point x="86" y="658" type="line" smooth="yes"/>
      <point x="86" y="650"/>
      <point x="88" y="644"/>
      <point x="97" y="644" type="curve" smooth="yes"/>
      <point x="124" y="644" type="line" smooth="yes"/>
      <point x="134" y="644"/>
      <point x="136" y="650"/>
      <point x="136" y="660" type="curve" smooth="yes"/>
      <point x="136" y="729" type="line" smooth="yes"/>
    </contour>
  </outline>
</glyph>
<glyph name="k" format="1">
  <advance width="538"/>
  <unicode hex="006B"/>
  <outline>
    <contour>
      <point x="306" y="331" type="line" smooth="yes"/>
      <point x="303" y="336"/>
      <point x="304" y="339"/>
      <point x="307" y="342" type="curve" smooth="yes"/>
      <point x="476" y="515" type="line" smooth="yes"/>
      <point x="485" y="524"/>
      <point x="484" y="530"/>
      <point x="474" y="530" type="curve" smooth="yes"/>
      <point x="442" y="530" type="line" smooth="yes"/>
      <point x="435" y="530"/>
      <point x="432" y="528"/>
      <point x="425" y="520" type="curve"/>
      <point x="141" y="229" type="line" smooth="yes"/>
      <point x="133" y="221"/>
      <point x="131" y="222"/>
      <point x="131" y="234" type="curve" smooth="yes"/>
      <point x="131" y="732" type="line" smooth="yes"/>
      <point x="131" y="740"/>
      <point x="129" y="742"/>
      <point x="122" y="742" type="curve" smooth="yes"/>
      <point x="100" y="742" type="line" smooth="yes"/>
      <point x="93" y="742"/>
      <point x="91" y="740"/>
      <point x="91" y="732" type="curve" smooth="yes"/>
      <point x="91" y="10" type="line" smooth="yes"/>
      <point x="91" y="2"/>
      <point x="93" y="0"/>
      <point x="102" y="0" type="curve" smooth="yes"/>
      <point x="119" y="0" type="line" smooth="yes"/>
      <point x="129" y="0"/>
      <point x="131" y="2"/>
      <point x="131" y="12" type="curve" smooth="yes"/>
      <point x="131" y="152" type="line" smooth="yes"/>
      <point x="131" y="159"/>
      <point x="133" y="164"/>
      <point x="138" y="169" type="curve" smooth="yes"/>
      <point x="266" y="299" type="line" smooth="yes"/>
      <point x="271" y="304"/>
      <point x="272" y="302"/>
      <point x="274" y="299" type="curve" smooth="yes"/>
      <point x="456" y="7" type="line" smooth="yes"/>
      <point x="459" y="2"/>
      <point x="462" y="0"/>
      <point x="468" y="0" type="curve" smooth="yes"/>
      <point x="499" y="0" type="line" smooth="yes"/>
      <point x="508" y="0"/>
      <point x="509" y="4"/>
      <point x="504" y="12" type="curve" smooth="yes"/>
    </contour>
    <contour>
      <point x="273" y="0" type="move" name="bottom"/>
    </contour>
  </outline>
</glyph>
<glyph name="l" format="1">
  <advance width="222"/>
  <unicode hex="006C"/>
  <outline>
    <contour>
      <point x="131" y="740"/>
      <point x="129" y="742"/>
      <point x="122" y="742" type="curve" smooth="yes"/>
      <point x="100" y="742" type="line" smooth="yes"/>
      <point x="93" y="742"/>
      <point x="91" y="740"/>
      <point x="91" y="732" type="curve" smooth="yes"/>
      <point x="91" y="10" type="line" smooth="yes"/>
      <point x="91" y="2"/>
      <point x="93" y="0"/>
      <point x="102" y="0" type="curve" smooth="yes"/>
      <point x="119" y="0" type="line" smooth="yes"/>
      <point x="129" y="0"/>
      <point x="131" y="2"/>
      <point x="131" y="12" type="curve" smooth="yes"/>
      <point x="131" y="732" type="line" smooth="yes"/>
    </contour>
    <contour>
      <point x="111" y="742" type="move" name="top"/>
    </contour>
    <contour>
      <point x="111" y="0" type="move" name="bottom"/>
    </contour>
    <contour>
      <point x="256" y="742" type="move" name="topright"/>
    </contour>
  </outline>
</glyph>
<glyph name="n" format="1">
  <advance width="576"/>
  <unicode hex="006E"/>
  <outline>
    <contour>
      <point x="122" y="0" type="line" smooth="yes"/>
      <point x="128" y="0"/>
      <point x="131" y="3"/>
      <point x="131" y="9" type="curve" smooth="yes"/>
      <point x="131" y="410" type="line"/>
      <point x="211" y="471"/>
      <point x="258" y="502"/>
      <point x="329" y="502" type="curve" smooth="yes"/>
      <point x="416" y="502"/>
      <point x="452" y="455"/>
      <point x="452" y="377" type="curve" smooth="yes"/>
      <point x="452" y="9" type="line" smooth="yes"/>
      <point x="452" y="3"/>
      <point x="455" y="0"/>
      <point x="461" y="0" type="curve" smooth="yes"/>
      <point x="483" y="0" type="line" smooth="yes"/>
      <point x="489" y="0"/>
      <point x="492" y="3"/>
      <point x="492" y="10" type="curve" smooth="yes"/>
      <point x="492" y="393" type="line" smooth="yes"/>
      <point x="492" y="480"/>
      <point x="437" y="540"/>
      <point x="330" y="540" type="curve" smooth="yes"/>
      <point x="257" y="540"/>
      <point x="212" y="511"/>
      <point x="136" y="457" type="curve" smooth="yes"/>
      <point x="130" y="452"/>
      <point x="128" y="453"/>
      <point x="128" y="460" type="curve" smooth="yes"/>
      <point x="128" y="522" type="line" smooth="yes"/>
      <point x="128" y="528"/>
      <point x="126" y="530"/>
      <point x="120" y="530" type="curve" smooth="yes"/>
      <point x="99" y="530" type="line" smooth="yes"/>
      <point x="93" y="530"/>
      <point x="91" y="527"/>
      <point x="91" y="521" type="curve" smooth="yes"/>
      <point x="91" y="9" type="line" smooth="yes"/>
      <point x="91" y="3"/>
      <point x="94" y="0"/>
      <point x="100" y="0" type="curve" smooth="yes"/>
    </contour>
    <contour>
      <point x="303" y="530" type="move" name="top"/>
    </contour>
    <contour>
      <point x="293" y="0" type="move" name="bottom"/>
    </contour>
  </outline>
</glyph>
<glyph name="o" format="1">
  <advance width="598"/>
  <unicode hex="006F"/>
  <outline>
    <contour>
      <point x="445" y="-10"/>
      <point x="542" y="102"/>
      <point x="542" y="264" type="curve" smooth="yes"/>
      <point x="542" y="426"/>
      <point x="445" y="540"/>
      <point x="300" y="540" type="curve" smooth="yes"/>
      <point x="154" y="540"/>
      <point x="56" y="425"/>
      <point x="56" y="262" type="curve" smooth="yes"/>
      <point x="56" y="101"/>
      <point x="152" y="-10"/>
      <point x="299" y="-10" type="curve" smooth="yes"/>
    </contour>
    <contour>
      <point x="177" y="28"/>
      <point x="98" y="123"/>
      <point x="98" y="264" type="curve" smooth="yes"/>
      <point x="98" y="405"/>
      <point x="177" y="502"/>
      <point x="300" y="502" type="curve" smooth="yes"/>
      <point x="422" y="502"/>
      <point x="500" y="406"/>
      <point x="500" y="264" type="curve" smooth="yes"/>
      <point x="500" y="122"/>
      <point x="424" y="28"/>
      <point x="301" y="28" type="curve" smooth="yes"/>
    </contour>
    <contour>
      <point x="298" y="0" type="move" name="bottom"/>
    </contour>
    <contour>
      <point x="363" y="10" type="move" name="ogonek"/>
    </contour>
    <contour>
      <point x="301" y="530" type="move" name="top"/>
    </contour>
    <contour>
      <point x="429" y="530" type="move" name="topright"/>
    </contour>
    <contour>
      <point x="299" y="265" type="move" name="center"/>
    </contour>
  </outline>
</glyph>
<glyph name="p" format="1">
  <advance width="590"/>
  <unicode hex="0070"/>
  <outline>
    <contour>
      <point x="103" y="530" type="line" smooth="yes"/>
      <point x="94" y="530"/>
      <point x="91" y="527"/>
      <point x="91" y="518" type="curve" smooth="yes"/>
      <point x="91" y="-156" type="line" smooth="yes"/>
      <point x="91" y="-162"/>
      <point x="94" y="-165"/>
      <point x="99" y="-165" type="curve" smooth="yes"/>
      <point x="122" y="-165" type="line" smooth="yes"/>
      <point x="129" y="-165"/>
      <point x="131" y="-162"/>
      <point x="131" y="-155" type="curve" smooth="yes"/>
      <point x="131" y="33" type="line" smooth="yes"/>
      <point x="131" y="46"/>
      <point x="134" y="49"/>
      <point x="145" y="40" type="curve" smooth="yes"/>
      <point x="174" y="16"/>
      <point x="224" y="-10"/>
      <point x="292" y="-10" type="curve" smooth="yes"/>
      <point x="439" y="-10"/>
      <point x="532" y="105"/>
      <point x="532" y="275" type="curve" smooth="yes"/>
      <point x="532" y="452"/>
      <point x="432" y="540"/>
      <point x="304" y="540" type="curve" smooth="yes"/>
      <point x="200" y="540"/>
      <point x="157" y="481"/>
      <point x="141" y="464" type="curve" smooth="yes"/>
      <point x="133" y="456"/>
      <point x="129" y="457"/>
      <point x="129" y="468" type="curve" smooth="yes"/>
      <point x="129" y="519" type="line" smooth="yes"/>
      <point x="129" y="526"/>
      <point x="126" y="530"/>
      <point x="119" y="530" type="curve" smooth="yes"/>
    </contour>
    <contour>
      <point x="131" y="364" type="line" smooth="yes"/>
      <point x="131" y="424"/>
      <point x="199" y="502"/>
      <point x="299" y="502" type="curve" smooth="yes"/>
      <point x="399" y="502"/>
      <point x="490" y="430"/>
      <point x="490" y="271" type="curve" smooth="yes"/>
      <point x="490" y="119"/>
      <point x="406" y="28"/>
      <point x="291" y="28" type="curve" smooth="yes"/>
      <point x="230" y="28"/>
      <point x="180" y="57"/>
      <point x="131" y="104" type="curve"/>
    </contour>
  </outline>
</glyph>
<glyph name="x" format="1">
  <advance width="515"/>
  <unicode hex="0078"/>
  <outline>
    <contour>
      <point x="290" y="264" type="line" smooth="yes"/>
      <point x="286" y="269"/>
      <point x="285" y="275"/>
      <point x="290" y="281" type="curve" smooth="yes"/>
      <point x="472" y="522" type="line" smooth="yes"/>
      <point x="475" y="526"/>
      <point x="474" y="530"/>
      <point x="468" y="530" type="curve" smooth="yes"/>
      <point x="441" y="530" type="line" smooth="yes"/>
      <point x="434" y="530"/>
      <point x="432" y="529"/>
      <point x="429" y="525" type="curve" smooth="yes"/>
      <point x="271" y="310" type="line" smooth="yes"/>
      <point x="266" y="303"/>
      <point x="261" y="304"/>
      <point x="257" y="310" type="curve" smooth="yes"/>
      <point x="95" y="525" type="line" smooth="yes"/>
      <point x="92" y="529"/>
      <point x="90" y="530"/>
      <point x="84" y="530" type="curve" smooth="yes"/>
      <point x="53" y="530" type="line" smooth="yes"/>
      <point x="47" y="530"/>
      <point x="45" y="525"/>
      <point x="48" y="521" type="curve" smooth="yes"/>
      <point x="230" y="276" type="line" smooth="yes"/>
      <point x="234" y="270"/>
      <point x="235" y="265"/>
      <point x="230" y="259" type="curve" smooth="yes"/>
      <point x="36" y="14" type="line" smooth="yes"/>
      <point x="28" y="3"/>
      <point x="33" y="0"/>
      <point x="41" y="0" type="curve" smooth="yes"/>
      <point x="66" y="0" type="line" smooth="yes"/>
      <point x="72" y="0"/>
      <point x="76" y="2"/>
      <point x="78" y="5" type="curve" smooth="yes"/>
      <point x="251" y="229" type="line" smooth="yes"/>
      <point x="256" y="236"/>
      <point x="260" y="236"/>
      <point x="265" y="229" type="curve" smooth="yes"/>
      <point x="430" y="5" type="line" smooth="yes"/>
      <point x="432" y="2"/>
      <point x="437" y="0"/>
      <point x="442" y="0" type="curve" smooth="yes"/>
      <point x="476" y="0" type="line" smooth="yes"/>
      <point x="483" y="0"/>
      <point x="485" y="3"/>
      <point x="478" y="12" type="curve" smooth="yes"/>
    </contour>
  </outline>
</glyph>
<glyph name="z" format="1">
  <advance width="458"/>
  <unicode hex="007A"/>
  <outline>
    <contour>
      <point x="412" y="0" type="line" smooth="yes"/>
      <point x="418" y="0"/>
      <point x="420" y="2"/>
      <point x="420" y="8" type="curve" smooth="yes"/>
      <point x="420" y="29" type="line" smooth="yes"/>
      <point x="420" y="33"/>
      <point x="418" y="35"/>
      <point x="414" y="35" type="curve" smooth="yes"/>
      <point x="87" y="35" type="line" smooth="yes"/>
      <point x="83" y="35"/>
      <point x="81" y="37"/>
      <point x="85" y="42" type="curve" smooth="yes"/>
      <point x="406" y="478" type="line" smooth="yes"/>
      <point x="411" y="484"/>
      <point x="413" y="491"/>
      <point x="413" y="499" type="curve" smooth="yes"/>
      <point x="413" y="524" type="line" smooth="yes"/>
      <point x="413" y="528"/>
      <point x="411" y="530"/>
      <point x="408" y="530" type="curve" smooth="yes"/>
      <point x="64" y="530" type="line" smooth="yes"/>
      <point x="60" y="530"/>
      <point x="58" y="528"/>
      <point x="58" y="523" type="curve" smooth="yes"/>
      <point x="58" y="502" type="line" smooth="yes"/>
      <point x="58" y="496"/>
      <point x="60" y="495"/>
      <point x="65" y="495" type="curve" smooth="yes"/>
      <point x="362" y="495" type="line" smooth="yes"/>
      <point x="367" y="495"/>
      <point x="369" y="492"/>
      <point x="365" y="487" type="curve" smooth="yes"/>
      <point x="44" y="50" type="line" smooth="yes"/>
      <point x="38" y="42"/>
      <point x="36" y="37"/>
      <point x="36" y="30" type="curve" smooth="yes"/>
      <point x="36" y="7" type="line" smooth="yes"/>
      <point x="36" y="2"/>
      <point x="37" y="0"/>
      <point x="42" y="0" type="curve" smooth="yes"/>
    </contour>
    <contour>
      <point x="244" y="530" type="move" name="top"/>
    </contour>
  </outline>
</glyph>
<glyph name="copyright" format="1">
  <advance width="830"/>
  <unicode hex="00A9"/>
  <outline>
    <contour>
      <point x="625" y="-10"/>
      <point x="796" y="159"/>
      <point x="796" y="371" type="curve" smooth="yes"/>
      <point x="796" y="581"/>
      <point x="625" y="752"/>
      <point x="415" y="752" type="curve" smooth="yes"/>
      <point x="204" y="752"/>
      <point x="34" y="581"/>
      <point x="34" y="371" type="curve" smooth="yes"/>
      <point x="34" y="159"/>
      <point x="204" y="-10"/>
      <point x="415" y="-10" type="curve" smooth="yes"/>
    </contour>
    <contour>
      <point x="234" y="34"/>
      <point x="79" y="166"/>
      <point x="79" y="371" type="curve" smooth="yes"/>
      <point x="79" y="573"/>
      <point x="234" y="709"/>
      <point x="415" y="709" type="curve" smooth="yes"/>
      <point x="592" y="709"/>
      <point x="751" y="573"/>
      <point x="751" y="371" type="curve" smooth="yes"/>
      <point x="751" y="166"/>
      <point x="592" y="34"/>
      <point x="415" y="34" type="curve" smooth="yes"/>
    </contour>
    <contour>
      <point x="307" y="590"/>
      <point x="229" y="500"/>
      <point x="229" y="373" type="curve" smooth="yes"/>
      <point x="229" y="245"/>
      <point x="305" y="159"/>
      <point x="417" y="159" type="curve" smooth="yes"/>
      <point x="484" y="159"/>
      <point x="540" y="197"/>
      <point x="578" y="258" type="curve" smooth="yes"/>
      <point x="579" y="261"/>
      <point x="579" y="264"/>
      <point x="576" y="266" type="curve" smooth="yes"/>
      <point x="556" y="278" type="line" smooth="yes"/>
      <point x="553" y="280"/>
      <point x="548" y="281"/>
      <point x="546" y="277" type="curve" smooth="yes"/>
      <point x="520" y="230"/>
      <point x="474" y="198"/>
      <point x="420" y="198" type="curve" smooth="yes"/>
      <point x="334" y="198"/>
      <point x="273" y="270"/>
      <point x="273" y="375" type="curve" smooth="yes"/>
      <point x="273" y="479"/>
      <point x="334" y="551"/>
      <point x="421" y="551" type="curve" smooth="yes"/>
      <point x="465" y="551"/>
      <point x="505" y="527"/>
      <point x="537" y="479" type="curve" smooth="yes"/>
      <point x="540" y="475"/>
      <point x="543" y="474"/>
      <point x="545" y="475" type="curve" smooth="yes"/>
      <point x="573" y="492" type="line" smooth="yes"/>
      <point x="573" y="493"/>
      <point x="576" y="495"/>
      <point x="573" y="499" type="curve" smooth="yes"/>
      <point x="535" y="551"/>
      <point x="487" y="590"/>
      <point x="417" y="590" type="curve" smooth="yes"/>
    </contour>
  </outline>
</glyph>
<glyph name="guillemotleft" format="1">
  <advance width="421"/>
  <unicode hex="00AB"/>
  <outline>
    <contour>
      <point x="253" y="255"/>
      <point x="254" y="259"/>
      <point x="256" y="263" type="curve" smooth="yes"/>
      <point x="370" y="437" type="line" smooth="yes"/>
      <point x="373" y="442"/>
      <point x="369" y="445"/>
      <point x="365" y="445" type="curve" smooth="yes"/>
      <point x="351" y="445" type="line" smooth="yes"/>
      <point x="348" y="445"/>
      <point x="347" y="445"/>
      <point x="344" y="441" type="curve" smooth="yes"/>
      <point x="204" y="263" type="line" smooth="yes"/>
      <point x="201" y="259"/>
      <point x="201" y="255"/>
      <point x="205" y="250" type="curve" smooth="yes"/>
      <point x="343" y="82" type="line" smooth="yes"/>
      <point x="344" y="80"/>
      <point x="347" y="78"/>
      <point x="351" y="78" type="curve" smooth="yes"/>
      <point x="363" y="78" type="line" smooth="yes"/>
      <point x="369" y="78"/>
      <point x="373" y="79"/>
      <point x="370" y="83" type="curve" smooth="yes"/>
      <point x="256" y="251" type="line" smooth="yes"/>
    </contour>
    <contour>
      <point x="86" y="255"/>
      <point x="87" y="259"/>
      <point x="89" y="263" type="curve" smooth="yes"/>
      <point x="203" y="437" type="line" smooth="yes"/>
      <point x="206" y="442"/>
      <point x="202" y="445"/>
      <point x="198" y="445" type="curve" smooth="yes"/>
      <point x="184" y="445" type="line" smooth="yes"/>
      <point x="181" y="445"/>
      <point x="180" y="445"/>
      <point x="177" y="441" type="curve" smooth="yes"/>
      <point x="37" y="263" type="line" smooth="yes"/>
      <point x="34" y="259"/>
      <point x="34" y="255"/>
      <point x="38" y="250" type="curve" smooth="yes"/>
      <point x="176" y="82" type="line" smooth="yes"/>
      <point x="177" y="80"/>
      <point x="180" y="78"/>
      <point x="184" y="78" type="curve" smooth="yes"/>
      <point x="196" y="78" type="line" smooth="yes"/>
      <point x="202" y="78"/>
      <point x="206" y="79"/>
      <point x="203" y="83" type="curve" smooth="yes"/>
      <point x="89" y="251" type="line" smooth="yes"/>
    </contour>
  </outline>
</glyph>
<glyph name="registered" format="1">
  <advance width="545"/>
  <unicode hex="00AE"/>
  <outline>
    <contour>
      <point x="404" y="275"/>
      <point x="511" y="381"/>
      <point x="511" y="513" type="curve" smooth="yes"/>
      <point x="511" y="645"/>
      <point x="404" y="752"/>
      <point x="273" y="752" type="curve" smooth="yes"/>
      <point x="140" y="752"/>
      <point x="34" y="645"/>
      <point x="34" y="513" type="curve" smooth="yes"/>
      <point x="34" y="381"/>
      <point x="140" y="275"/>
      <point x="273" y="275" type="curve" smooth="yes"/>
    </contour>
    <contour>
      <point x="153" y="310"/>
      <point x="70" y="389"/>
      <point x="70" y="513" type="curve" smooth="yes"/>
      <point x="70" y="636"/>
      <point x="153" y="717"/>
      <point x="273" y="717" type="curve" smooth="yes"/>
      <point x="391" y="717"/>
      <point x="475" y="636"/>
      <point x="475" y="513" type="curve" smooth="yes"/>
      <point x="475" y="389"/>
      <point x="391" y="310"/>
      <point x="273" y="310" type="curve" smooth="yes"/>
    </contour>
    <contour>
      <point x="312" y="508" type="line" smooth="yes"/>
      <point x="311" y="509"/>
      <point x="312" y="510"/>
      <point x="313" y="510" type="curve" smooth="yes"/>
      <point x="335" y="517"/>
      <point x="362" y="532"/>
      <point x="362" y="572" type="curve" smooth="yes"/>
      <point x="362" y="610"/>
      <point x="335" y="630"/>
      <point x="288" y="630" type="curve" smooth="yes"/>
      <point x="188" y="630" type="line" smooth="yes"/>
      <point x="186" y="630"/>
      <point x="186" y="629"/>
      <point x="186" y="626" type="curve" smooth="yes"/>
      <point x="186" y="396" type="line" smooth="yes"/>
      <point x="186" y="394"/>
      <point x="186" y="393"/>
      <point x="189" y="393" type="curve" smooth="yes"/>
      <point x="212" y="393" type="line" smooth="yes"/>
      <point x="215" y="393"/>
      <point x="215" y="394"/>
      <point x="215" y="397" type="curve" smooth="yes"/>
      <point x="215" y="503" type="line" smooth="yes"/>
      <point x="215" y="506"/>
      <point x="216" y="507"/>
      <point x="219" y="507" type="curve" smooth="yes"/>
      <point x="275" y="507" type="line" smooth="yes"/>
      <point x="284" y="507"/>
      <point x="281" y="506"/>
      <point x="282" y="504" type="curve" smooth="yes"/>
      <point x="323" y="396" type="line" smooth="yes"/>
      <point x="324" y="394"/>
      <point x="325" y="393"/>
      <point x="327" y="393" type="curve" smooth="yes"/>
      <point x="351" y="393" type="line" smooth="yes"/>
      <point x="354" y="393"/>
      <point x="355" y="395"/>
      <point x="354" y="398" type="curve" smooth="yes"/>
    </contour>
    <contour>
      <point x="218" y="535" type="line" smooth="yes"/>
      <point x="216" y="535"/>
      <point x="215" y="536"/>
      <point x="215" y="538" type="curve" smooth="yes"/>
      <point x="215" y="599" type="line" smooth="yes"/>
      <point x="215" y="606"/>
      <point x="216" y="602"/>
      <point x="219" y="602" type="curve" smooth="yes"/>
      <point x="278" y="602" type="line" smooth="yes"/>
      <point x="322" y="602"/>
      <point x="331" y="586"/>
      <point x="331" y="568" type="curve" smooth="yes"/>
      <point x="331" y="542"/>
      <point x="308" y="535"/>
      <point x="281" y="535" type="curve" smooth="yes"/>
    </contour>
  </outline>
</glyph>
<glyph name="degree" format="1">
  <advance width="464"/>
  <unicode hex="00B0"/>
  <outline>
    <contour>
      <point x="382" y="796"/>
      <point x="318" y="858"/>
      <point x="232" y="858" type="curve" smooth="yes"/>
      <point x="145" y="858"/>
      <point x="82" y="796"/>
      <point x="82" y="708" type="curve" smooth="yes"/>
      <point x="82" y="620"/>
      <point x="145" y="558"/>
      <point x="232" y="558" type="curve" smooth="yes"/>
      <point x="318" y="558"/>
      <point x="382" y="620"/>
      <point x="382" y="708" type="curve" smooth="yes"/>
    </contour>
    <contour>
      <point x="339" y="640"/>
      <point x="297" y="594"/>
      <point x="231" y="594" type="curve" smooth="yes"/>
      <point x="164" y="594"/>
      <point x="123" y="640"/>
      <point x="122" y="707" type="curve" smooth="yes"/>
      <point x="121" y="773"/>
      <point x="164" y="819"/>
      <point x="230" y="819" type="curve" smooth="yes"/>
      <point x="297" y="819"/>
      <point x="339" y="773"/>
      <point x="339" y="707" type="curve" smooth="yes"/>
    </contour>
  </outline>
</glyph>
<glyph name="plusminus" format="1">
  <advance width="541"/>
  <unicode hex="00B1"/>
  <outline>
    <contour>
      <point x="471" y="120"/>
      <point x="468" y="122"/>
      <point x="464" y="122" type="curve" smooth="yes"/>
      <point x="75" y="121" type="line" smooth="yes"/>
      <point x="72" y="121"/>
      <point x="70" y="119"/>
      <point x="70" y="114" type="curve" smooth="yes"/>
      <point x="70" y="90" type="line" smooth="yes"/>
      <point x="70" y="85"/>
      <point x="72" y="83"/>
      <point x="78" y="83" type="curve" smooth="yes"/>
      <point x="461" y="84" type="line" smooth="yes"/>
      <point x="468" y="84"/>
      <point x="471" y="86"/>
      <point x="471" y="92" type="curve" smooth="yes"/>
      <point x="471" y="116" type="line" smooth="yes"/>
    </contour>
    <contour>
      <point x="471" y="460"/>
      <point x="468" y="462"/>
      <point x="464" y="462" type="curve" smooth="yes"/>
      <point x="75" y="461" type="line" smooth="yes"/>
      <point x="72" y="461"/>
      <point x="70" y="459"/>
      <point x="70" y="454" type="curve" smooth="yes"/>
      <point x="70" y="430" type="line" smooth="yes"/>
      <point x="70" y="425"/>
      <point x="72" y="423"/>
      <point x="78" y="423" type="curve" smooth="yes"/>
      <point x="461" y="424" type="line" smooth="yes"/>
      <point x="468" y="424"/>
      <point x="471" y="426"/>
      <point x="471" y="432" type="curve" smooth="yes"/>
      <point x="471" y="456" type="line" smooth="yes"/>
    </contour>
    <contour>
      <point x="287" y="242"/>
      <point x="289" y="245"/>
      <point x="289" y="249" type="curve" smooth="yes"/>
      <point x="289" y="638" type="line" smooth="yes"/>
      <point x="289" y="641"/>
      <point x="287" y="643"/>
      <point x="282" y="643" type="curve" smooth="yes"/>
      <point x="258" y="643" type="line" smooth="yes"/>
      <point x="253" y="643"/>
      <point x="251" y="641"/>
      <point x="251" y="635" type="curve" smooth="yes"/>
      <point x="252" y="252" type="line" smooth="yes"/>
      <point x="252" y="245"/>
      <point x="254" y="242"/>
      <point x="260" y="242" type="curve" smooth="yes"/>
      <point x="283" y="242" type="line" smooth="yes"/>
    </contour>
  </outline>
</glyph>
<glyph name="periodcentered" format="1">
  <advance width="172"/>
  <unicode hex="00B7"/>
  <outline>
    <contour>
      <point x="127" y="411"/>
      <point x="125" y="413"/>
      <point x="120" y="413" type="curve" smooth="yes"/>
      <point x="52" y="413" type="line" smooth="yes"/>
      <point x="48" y="413"/>
      <point x="45" y="411"/>
      <point x="45" y="404" type="curve" smooth="yes"/>
      <point x="45" y="344" type="line" smooth="yes"/>
      <point x="45" y="337"/>
      <point x="47" y="334"/>
      <point x="55" y="334" type="curve" smooth="yes"/>
      <point x="114" y="334" type="line" smooth="yes"/>
      <point x="124" y="334"/>
      <point x="127" y="337"/>
      <point x="127" y="345" type="curve" smooth="yes"/>
      <point x="127" y="405" type="line" smooth="yes"/>
    </contour>
  </outline>
</glyph>
<glyph name="ordmasculine" format="1">
  <advance width="419"/>
  <unicode hex="00BA"/>
  <outline>
    <contour>
      <point x="115" y="751"/>
      <point x="56" y="681"/>
      <point x="56" y="577" type="curve" smooth="yes"/>
      <point x="56" y="478"/>
      <point x="110" y="407"/>
      <point x="209" y="407" type="curve" smooth="yes"/>
      <point x="309" y="407"/>
      <point x="363" y="478"/>
      <point x="363" y="577" type="curve" smooth="yes"/>
      <point x="363" y="681"/>
      <point x="305" y="751"/>
      <point x="209" y="751" type="curve" smooth="yes"/>
    </contour>
    <contour>
      <point x="283" y="716"/>
      <point x="322" y="660"/>
      <point x="322" y="580" type="curve" smooth="yes"/>
      <point x="322" y="495"/>
      <point x="283" y="440"/>
      <point x="209" y="440" type="curve" smooth="yes"/>
      <point x="135" y="440"/>
      <point x="97" y="495"/>
      <point x="97" y="580" type="curve" smooth="yes"/>
      <point x="97" y="660"/>
      <point x="135" y="716"/>
      <point x="209" y="716" type="curve" smooth="yes"/>
    </contour>
  </outline>
</glyph>
<glyph name="guillemotright" format="1">
  <advance width="420"/>
  <unicode hex="00BB"/>
  <outline>
    <contour>
      <point x="50" y="83" type="line" smooth="yes"/>
      <point x="48" y="79"/>
      <point x="51" y="78"/>
      <point x="57" y="78" type="curve" smooth="yes"/>
      <point x="69" y="78" type="line" smooth="yes"/>
      <point x="73" y="78"/>
      <point x="76" y="80"/>
      <point x="77" y="82" type="curve" smooth="yes"/>
      <point x="215" y="250" type="line" smooth="yes"/>
      <point x="219" y="255"/>
      <point x="219" y="259"/>
      <point x="216" y="263" type="curve" smooth="yes"/>
      <point x="76" y="441" type="line" smooth="yes"/>
      <point x="73" y="445"/>
      <point x="72" y="445"/>
      <point x="69" y="445" type="curve" smooth="yes"/>
      <point x="55" y="445" type="line" smooth="yes"/>
      <point x="51" y="445"/>
      <point x="47" y="442"/>
      <point x="50" y="437" type="curve" smooth="yes"/>
      <point x="164" y="263" type="line" smooth="yes"/>
      <point x="167" y="259"/>
      <point x="167" y="255"/>
      <point x="164" y="251" type="curve" smooth="yes"/>
    </contour>
    <contour>
      <point x="217" y="83" type="line" smooth="yes"/>
      <point x="215" y="79"/>
      <point x="218" y="78"/>
      <point x="224" y="78" type="curve" smooth="yes"/>
      <point x="236" y="78" type="line" smooth="yes"/>
      <point x="240" y="78"/>
      <point x="243" y="80"/>
      <point x="244" y="82" type="curve" smooth="yes"/>
      <point x="382" y="250" type="line" smooth="yes"/>
      <point x="387" y="255"/>
      <point x="387" y="259"/>
      <point x="383" y="263" type="curve" smooth="yes"/>
      <point x="243" y="441" type="line" smooth="yes"/>
      <point x="240" y="445"/>
      <point x="239" y="445"/>
      <point x="236" y="445" type="curve" smooth="yes"/>
      <point x="222" y="445" type="line" smooth="yes"/>
      <point x="218" y="445"/>
      <point x="214" y="442"/>
      <point x="217" y="437" type="curve" smooth="yes"/>
      <point x="331" y="263" type="line" smooth="yes"/>
      <point x="334" y="259"/>
      <point x="334" y="255"/>
      <point x="331" y="251" type="curve" smooth="yes"/>
    </contour>
  </outline>
</glyph>
<glyph name="Eth" format="1">
  <advance width="703"/>
  <unicode hex="00D0"/>
  <outline>
    <contour>
      <point x="342" y="392"/>
      <point x="340" y="395"/>
      <point x="335" y="395" type="curve" smooth="yes"/>
      <point x="42" y="395" type="line" smooth="yes"/>
      <point x="37" y="395"/>
      <point x="35" y="392"/>
      <point x="35" y="386" type="curve" smooth="yes"/>
      <point x="35" y="363" type="line" smooth="yes"/>
      <point x="35" y="356"/>
      <point x="37" y="353"/>
      <point x="45" y="353" type="curve" smooth="yes"/>
      <point x="329" y="353" type="line" smooth="yes"/>
      <point x="338" y="353"/>
      <point x="342" y="356"/>
      <point x="342" y="364" type="curve" smooth="yes"/>
      <point x="342" y="387" type="line" smooth="yes"/>
    </contour>
    <component base="D"/>
  </outline>
</glyph>
<glyph name="Thorn" format="1">
  <advance width="674"/>
  <unicode hex="00DE"/>
  <outline>
    <contour>
      <point x="611" y="522"/>
      <point x="501" y="579"/>
      <point x="345" y="579" type="curve" smooth="yes"/>
      <point x="166" y="579" type="line" smooth="yes"/>
      <point x="162" y="579"/>
      <point x="160" y="581"/>
      <point x="160" y="584" type="curve" smooth="yes"/>
      <point x="160" y="732" type="line" smooth="yes"/>
      <point x="160" y="740"/>
      <point x="158" y="742"/>
      <point x="151" y="742" type="curve" smooth="yes"/>
      <point x="123" y="742" type="line" smooth="yes"/>
      <point x="116" y="742"/>
      <point x="114" y="740"/>
      <point x="114" y="732" type="curve" smooth="yes"/>
      <point x="114" y="8" type="line" smooth="yes"/>
      <point x="114" y="3"/>
      <point x="117" y="0"/>
      <point x="122" y="0" type="curve" smooth="yes"/>
      <point x="152" y="0" type="line" smooth="yes"/>
      <point x="157" y="0"/>
      <point x="160" y="3"/>
      <point x="160" y="9" type="curve" smooth="yes"/>
      <point x="160" y="173" type="line" smooth="yes"/>
      <point x="160" y="179"/>
      <point x="162" y="182"/>
      <point x="168" y="182" type="curve" smooth="yes"/>
      <point x="351" y="182" type="line" smooth="yes"/>
      <point x="501" y="182"/>
      <point x="611" y="239"/>
      <point x="611" y="390" type="curve" smooth="yes"/>
    </contour>
    <contour>
      <point x="563" y="268"/>
      <point x="479" y="222"/>
      <point x="351" y="222" type="curve" smooth="yes"/>
      <point x="167" y="222" type="line" smooth="yes"/>
      <point x="162" y="222"/>
      <point x="160" y="225"/>
      <point x="160" y="232" type="curve" smooth="yes"/>
      <point x="160" y="531" type="line" smooth="yes"/>
      <point x="160" y="537"/>
      <point x="163" y="539"/>
      <point x="169" y="539" type="curve" smooth="yes"/>
      <point x="344" y="539" type="line" smooth="yes"/>
      <point x="479" y="539"/>
      <point x="563" y="501"/>
      <point x="563" y="390" type="curve" smooth="yes"/>
    </contour>
  </outline>
</glyph>
<glyph name="oslash" format="1">
  <advance width="575"/>
  <unicode hex="00F8"/>
  <outline>
    <contour>
      <point x="557" y="502"/>
      <point x="556" y="506"/>
      <point x="552" y="511" type="curve" smooth="yes"/>
      <point x="539" y="524" type="line" smooth="yes"/>
      <point x="533" y="531"/>
      <point x="528" y="530"/>
      <point x="522" y="524" type="curve" smooth="yes"/>
      <point x="25" y="35" type="line" smooth="yes"/>
      <point x="18" y="28"/>
      <point x="18" y="22"/>
      <point x="24" y="16" type="curve" smooth="yes"/>
      <point x="35" y="4" type="line" smooth="yes"/>
      <point x="39" y="-1"/>
      <point x="46" y="-1"/>
      <point x="51" y="4" type="curve" smooth="yes"/>
      <point x="552" y="497" type="line" smooth="yes"/>
    </contour>
    <component base="o" xOffset="-2"/>
    <contour>
      <point x="288" y="530" type="move" name="top"/>
    </contour>
  </outline>
</glyph>
<glyph name="thorn" format="1">
  <advance width="588"/>
  <unicode hex="00FE"/>
  <outline>
    <contour>
      <point x="103" y="742" type="line" smooth="yes"/>
      <point x="94" y="742"/>
      <point x="91" y="739"/>
      <point x="91" y="730" type="curve" smooth="yes"/>
      <point x="91" y="-156" type="line" smooth="yes"/>
      <point x="91" y="-162"/>
      <point x="94" y="-165"/>
      <point x="99" y="-165" type="curve" smooth="yes"/>
      <point x="122" y="-165" type="line" smooth="yes"/>
      <point x="129" y="-165"/>
      <point x="131" y="-162"/>
      <point x="131" y="-155" type="curve" smooth="yes"/>
      <point x="131" y="33" type="line" smooth="yes"/>
      <point x="131" y="46"/>
      <point x="134" y="49"/>
      <point x="145" y="40" type="curve" smooth="yes"/>
      <point x="174" y="16"/>
      <point x="224" y="-10"/>
      <point x="292" y="-10" type="curve" smooth="yes"/>
      <point x="439" y="-10"/>
      <point x="532" y="105"/>
      <point x="532" y="275" type="curve" smooth="yes"/>
      <point x="532" y="452"/>
      <point x="432" y="540"/>
      <point x="304" y="540" type="curve" smooth="yes"/>
      <point x="200" y="540"/>
      <point x="157" y="481"/>
      <point x="141" y="464" type="curve" smooth="yes"/>
      <point x="133" y="456"/>
      <point x="129" y="457"/>
      <point x="129" y="468" type="curve" smooth="yes"/>
      <point x="129" y="731" type="line" smooth="yes"/>
      <point x="129" y="738"/>
      <point x="126" y="742"/>
      <point x="119" y="742" type="curve" smooth="yes"/>
    </contour>
    <contour>
      <point x="131" y="364" type="line" smooth="yes"/>
      <point x="131" y="424"/>
      <point x="199" y="502"/>
      <point x="299" y="502" type="curve" smooth="yes"/>
      <point x="399" y="502"/>
      <point x="490" y="430"/>
      <point x="490" y="271" type="curve" smooth="yes"/>
      <point x="490" y="119"/>
      <point x="406" y="28"/>
      <point x="291" y="28" type="curve" smooth="yes"/>
      <point x="230" y="28"/>
      <point x="180" y="57"/>
      <point x="131" y="104" type="curve"/>
    </contour>
  </outline>
</glyph>
<glyph name="dcroat" format="1">
  <advance width="602"/>
  <unicode hex="0111"/>
  <outline>
    <contour>
      <point x="577" y="660"/>
      <point x="575" y="662"/>
      <point x="572" y="662" type="curve" smooth="yes"/>
      <point x="293" y="662" type="line" smooth="yes"/>
      <point x="290" y="662"/>
      <point x="288" y="660"/>
      <point x="288" y="655" type="curve" smooth="yes"/>
      <point x="288" y="635" type="line" smooth="yes"/>
      <point x="288" y="629"/>
      <point x="289" y="627"/>
      <point x="295" y="627" type="curve" smooth="yes"/>
      <point x="567" y="627" type="line" smooth="yes"/>
      <point x="574" y="627"/>
      <point x="577" y="629"/>
      <point x="577" y="635" type="curve" smooth="yes"/>
      <point x="577" y="656" type="line" smooth="yes"/>
    </contour>
    <component base="d"/>
  </outline>
</glyph>
<glyph name="gcommaaccent" format="1">
  <advance width="582"/>
  <unicode hex="0123"/>
  <outline>
    <contour>
      <point x="302" y="632" type="line" smooth="yes"/>
      <point x="306" y="632"/>
      <point x="309" y="634"/>
      <point x="309" y="640" type="curve" smooth="yes"/>
      <point x="309" y="706" type="line" smooth="yes"/>
      <point x="309" y="713"/>
      <point x="307" y="715"/>
      <point x="301" y="715" type="curve" smooth="yes"/>
      <point x="293" y="715" type="line" smooth="yes"/>
      <point x="288" y="715"/>
      <point x="286" y="718"/>
      <point x="289" y="724" type="curve" smooth="yes"/>
      <point x="314" y="778" type="line" smooth="yes"/>
      <point x="316" y="782"/>
      <point x="314" y="786"/>
      <point x="310" y="786" type="curve" smooth="yes"/>
      <point x="297" y="786" type="line" smooth="yes"/>
      <point x="289" y="786"/>
      <point x="286" y="785"/>
      <point x="283" y="780" type="curve" smooth="yes"/>
      <point x="252" y="721" type="line" smooth="yes"/>
      <point x="252" y="720"/>
      <point x="251" y="717"/>
      <point x="251" y="715" type="curve" smooth="yes"/>
      <point x="251" y="639" type="line" smooth="yes"/>
      <point x="251" y="634"/>
      <point x="253" y="632"/>
      <point x="257" y="632" type="curve" smooth="yes"/>
    </contour>
    <component base="g"/>
    <contour>
      <point x="283" y="550" type="move" name="_top"/>
    </contour>
  </outline>
</glyph>
<glyph name="Hbar" format="1">
  <advance width="707"/>
  <unicode hex="0126"/>
  <outline>
    <contour>
      <point x="702" y="615"/>
      <point x="700" y="618"/>
      <point x="695" y="618" type="curve" smooth="yes"/>
      <point x="12" y="618" type="line" smooth="yes"/>
      <point x="7" y="618"/>
      <point x="5" y="615"/>
      <point x="5" y="609" type="curve" smooth="yes"/>
      <point x="5" y="588" type="line" smooth="yes"/>
      <point x="5" y="581"/>
      <point x="7" y="578"/>
      <point x="15" y="578" type="curve" smooth="yes"/>
      <point x="689" y="578" type="line" smooth="yes"/>
      <point x="698" y="578"/>
      <point x="702" y="581"/>
      <point x="702" y="589" type="curve" smooth="yes"/>
      <point x="702" y="610" type="line" smooth="yes"/>
    </contour>
    <component base="H" xOffset="-1"/>
  </outline>
</glyph>
<glyph name="hbar" format="1">
  <advance width="576"/>
  <unicode hex="0127"/>
  <outline>
    <contour>
      <point x="309" y="660"/>
      <point x="307" y="662"/>
      <point x="304" y="662" type="curve" smooth="yes"/>
      <point x="25" y="662" type="line" smooth="yes"/>
      <point x="22" y="662"/>
      <point x="20" y="660"/>
      <point x="20" y="655" type="curve" smooth="yes"/>
      <point x="20" y="635" type="line" smooth="yes"/>
      <point x="20" y="629"/>
      <point x="21" y="627"/>
      <point x="27" y="627" type="curve" smooth="yes"/>
      <point x="299" y="627" type="line" smooth="yes"/>
      <point x="306" y="627"/>
      <point x="309" y="629"/>
      <point x="309" y="635" type="curve" smooth="yes"/>
      <point x="309" y="656" type="line" smooth="yes"/>
    </contour>
    <component base="h"/>
  </outline>
</glyph>
<glyph name="dotlessi" format="1">
  <advance width="222"/>
  <unicode hex="0131"/>
  <outline>
    <contour>
      <point x="131" y="528"/>
      <point x="129" y="530"/>
      <point x="122" y="530" type="curve" smooth="yes"/>
      <point x="100" y="530" type="line" smooth="yes"/>
      <point x="93" y="530"/>
      <point x="91" y="528"/>
      <point x="91" y="520" type="curve" smooth="yes"/>
      <point x="91" y="10" type="line" smooth="yes"/>
      <point x="91" y="2"/>
      <point x="93" y="0"/>
      <point x="102" y="0" type="curve" smooth="yes"/>
      <point x="119" y="0" type="line" smooth="yes"/>
      <point x="129" y="0"/>
      <point x="131" y="2"/>
      <point x="131" y="12" type="curve" smooth="yes"/>
      <point x="131" y="520" type="line" smooth="yes"/>
    </contour>
    <contour>
      <point x="123" y="13" type="move" name="ogonek"/>
    </contour>
    <contour>
      <point x="111" y="530" type="move" name="top"/>
    </contour>
  </outline>
</glyph>
<glyph name="Lslash" format="1">
  <advance width="587"/>
  <unicode hex="0141"/>
  <outline>
    <contour>
      <point x="327" y="436"/>
      <point x="325" y="438"/>
      <point x="320" y="437" type="curve" smooth="yes"/>
      <point x="38" y="365" type="line" smooth="yes"/>
      <point x="35" y="364"/>
      <point x="33" y="361"/>
      <point x="33" y="356" type="curve" smooth="yes"/>
      <point x="33" y="332" type="line" smooth="yes"/>
      <point x="33" y="327"/>
      <point x="35" y="326"/>
      <point x="40" y="327" type="curve" smooth="yes"/>
      <point x="321" y="400" type="line" smooth="yes"/>
      <point x="325" y="401"/>
      <point x="327" y="404"/>
      <point x="327" y="408" type="curve" smooth="yes"/>
      <point x="327" y="432" type="line" smooth="yes"/>
    </contour>
    <component base="L"/>
  </outline>
</glyph>
<glyph name="lslash" format="1">
  <advance width="242"/>
  <unicode hex="0142"/>
  <outline>
    <contour>
      <point x="240" y="437"/>
      <point x="238" y="439"/>
      <point x="233" y="435" type="curve" smooth="yes"/>
      <point x="8" y="225" type="line" smooth="yes"/>
      <point x="5" y="222"/>
      <point x="3" y="219"/>
      <point x="3" y="215" type="curve" smooth="yes"/>
      <point x="3" y="186" type="line" smooth="yes"/>
      <point x="3" y="181"/>
      <point x="5" y="177"/>
      <point x="10" y="181" type="curve" smooth="yes"/>
      <point x="234" y="392" type="line" smooth="yes"/>
      <point x="238" y="396"/>
      <point x="240" y="399"/>
      <point x="240" y="403" type="curve" smooth="yes"/>
      <point x="240" y="433" type="line" smooth="yes"/>
    </contour>
    <component base="l" xOffset="10"/>
  </outline>
</glyph>
<glyph name="Tbar" format="1">
  <advance width="623"/>
  <unicode hex="0166"/>
  <outline>
    <contour>
      <point x="504" y="399"/>
      <point x="502" y="402"/>
      <point x="497" y="402" type="curve" smooth="yes"/>
      <point x="145" y="402" type="line" smooth="yes"/>
      <point x="140" y="402"/>
      <point x="138" y="399"/>
      <point x="138" y="393" type="curve" smooth="yes"/>
      <point x="138" y="370" type="line" smooth="yes"/>
      <point x="138" y="363"/>
      <point x="140" y="360"/>
      <point x="148" y="360" type="curve" smooth="yes"/>
      <point x="491" y="360" type="line" smooth="yes"/>
      <point x="500" y="360"/>
      <point x="504" y="363"/>
      <point x="504" y="371" type="curve" smooth="yes"/>
      <point x="504" y="394" type="line" smooth="yes"/>
    </contour>
    <component base="T"/>
  </outline>
</glyph>
<glyph name="tbar" format="1">
  <advance width="358"/>
  <unicode hex="0167"/>
  <outline>
    <contour>
      <point x="276" y="313"/>
      <point x="274" y="315"/>
      <point x="271" y="315" type="curve" smooth="yes"/>
      <point x="52" y="315" type="line" smooth="yes"/>
      <point x="49" y="315"/>
      <point x="47" y="313"/>
      <point x="47" y="308" type="curve" smooth="yes"/>
      <point x="47" y="288" type="line" smooth="yes"/>
      <point x="47" y="282"/>
      <point x="48" y="280"/>
      <point x="54" y="280" type="curve" smooth="yes"/>
      <point x="266" y="280" type="line" smooth="yes"/>
      <point x="273" y="280"/>
      <point x="276" y="282"/>
      <point x="276" y="288" type="curve" smooth="yes"/>
      <point x="276" y="309" type="line" smooth="yes"/>
    </contour>
    <component base="t"/>
  </outline>
</glyph>
<glyph name="uni0237" format="1">
  <advance width="222"/>
  <unicode hex="0237"/>
  <outline>
    <contour>
      <point x="131" y="520" type="line" smooth="yes"/>
      <point x="131" y="527"/>
      <point x="129" y="530"/>
      <point x="123" y="530" type="curve" smooth="yes"/>
      <point x="101" y="530" type="line" smooth="yes"/>
      <point x="94" y="530"/>
      <point x="91" y="527"/>
      <point x="91" y="520" type="curve" smooth="yes"/>
      <point x="91" y="-46" type="line" smooth="yes"/>
      <point x="91" y="-110"/>
      <point x="70" y="-132"/>
      <point x="17" y="-133" type="curve" smooth="yes"/>
      <point x="-41" y="-134" type="line" smooth="yes"/>
      <point x="-45" y="-134"/>
      <point x="-47" y="-136"/>
      <point x="-47" y="-140" type="curve" smooth="yes"/>
      <point x="-47" y="-161" type="line" smooth="yes"/>
      <point x="-47" y="-169"/>
      <point x="-41" y="-170"/>
      <point x="18" y="-170" type="curve" smooth="yes"/>
      <point x="109" y="-170"/>
      <point x="131" y="-133"/>
      <point x="131" y="-51" type="curve" smooth="yes"/>
    </contour>
    <contour>
      <point x="111" y="530" type="move" name="top"/>
    </contour>
  </outline>
</glyph>
<glyph name="uni02BC" format="1">
  <advance width="129"/>
  <unicode hex="02BC"/>
  <outline>
    <contour>
      <point x="51" y="477" type="line" smooth="yes"/>
      <point x="59" y="477"/>
      <point x="63" y="479"/>
      <point x="64" y="484" type="curve" smooth="yes"/>
      <point x="98" y="610" type="line" smooth="yes"/>
      <point x="98" y="611"/>
      <point x="99" y="612"/>
      <point x="99" y="614" type="curve" smooth="yes"/>
      <point x="99" y="736" type="line" smooth="yes"/>
      <point x="99" y="740"/>
      <point x="97" y="742"/>
      <point x="94" y="742" type="curve" smooth="yes"/>
      <point x="51" y="742" type="line" smooth="yes"/>
      <point x="47" y="742"/>
      <point x="45" y="740"/>
      <point x="45" y="735" type="curve" smooth="yes"/>
      <point x="45" y="622" type="line" smooth="yes"/>
      <point x="45" y="616"/>
      <point x="47" y="614"/>
      <point x="53" y="614" type="curve" smooth="yes"/>
      <point x="58" y="614" type="line" smooth="yes"/>
      <point x="61" y="614"/>
      <point x="63" y="612"/>
      <point x="61" y="604" type="curve" smooth="yes"/>
      <point x="30" y="484" type="line" smooth="yes"/>
      <point x="29" y="481"/>
      <point x="31" y="477"/>
      <point x="35" y="477" type="curve" smooth="yes"/>
    </contour>
  </outline>
</glyph>
<glyph name="uni02BE" format="1">
  <advance width="199"/>
  <unicode hex="02BE"/>
  <outline>
    <contour>
      <point x="105" y="601"/>
      <point x="149" y="644"/>
      <point x="149" y="697" type="curve" smooth="yes"/>
      <point x="149" y="755"/>
      <point x="106" y="799"/>
      <point x="50" y="799" type="curve"/>
      <point x="50" y="759" type="line"/>
      <point x="81" y="759"/>
      <point x="109" y="731"/>
      <point x="109" y="700" type="curve" smooth="yes"/>
      <point x="109" y="665"/>
      <point x="81" y="641"/>
      <point x="50" y="641" type="curve"/>
      <point x="50" y="601" type="line"/>
    </contour>
  </outline>
</glyph>
<glyph name="uni02BF" format="1">
  <advance width="199"/>
  <unicode hex="02BF"/>
  <outline>
    <contour>
      <point x="149" y="641" type="line"/>
      <point x="118" y="641"/>
      <point x="90" y="669"/>
      <point x="90" y="700" type="curve" smooth="yes"/>
      <point x="90" y="735"/>
      <point x="118" y="759"/>
      <point x="149" y="759" type="curve"/>
      <point x="149" y="799" type="line"/>
      <point x="94" y="799"/>
      <point x="50" y="756"/>
      <point x="50" y="703" type="curve" smooth="yes"/>
      <point x="50" y="645"/>
      <point x="93" y="601"/>
      <point x="149" y="601" type="curve"/>
    </contour>
  </outline>
</glyph>
<glyph name="uni02CC" format="1">
  <advance width="240"/>
  <unicode hex="02CC"/>
  <outline>
    <contour>
      <point x="138" y="-202"/>
      <point x="140" y="-199"/>
      <point x="140" y="-195" type="curve" smooth="yes"/>
      <point x="140" y="34" type="line" smooth="yes"/>
      <point x="140" y="37"/>
      <point x="138" y="39"/>
      <point x="133" y="39" type="curve" smooth="yes"/>
      <point x="107" y="39" type="line" smooth="yes"/>
      <point x="102" y="39"/>
      <point x="100" y="37"/>
      <point x="100" y="31" type="curve" smooth="yes"/>
      <point x="100" y="-192" type="line" smooth="yes"/>
      <point x="100" y="-199"/>
      <point x="102" y="-202"/>
      <point x="108" y="-202" type="curve" smooth="yes"/>
      <point x="134" y="-202" type="line" smooth="yes"/>
    </contour>
  </outline>
</glyph>
<glyph name="gravecomb" format="1">
  <advance width="272"/>
  <unicode hex="0300"/>
  <outline>
    <contour>
      <point x="11" y="716" type="line" smooth="yes"/>
      <point x="9" y="710"/>
      <point x="10" y="707"/>
      <point x="18" y="704" type="curve" smooth="yes"/>
      <point x="245" y="630" type="line" smooth="yes"/>
      <point x="251" y="628"/>
      <point x="254" y="629"/>
      <point x="256" y="635" type="curve" smooth="yes"/>
      <point x="261" y="650" type="line" smooth="yes"/>
      <point x="263" y="655"/>
      <point x="261" y="659"/>
      <point x="258" y="660" type="curve" smooth="yes"/>
      <point x="29" y="751" type="line" smooth="yes"/>
      <point x="26" y="752"/>
      <point x="22" y="751"/>
      <point x="21" y="748" type="curve" smooth="yes"/>
    </contour>
    <contour>
      <point x="129" y="530" type="move" name="_top"/>
    </contour>
  </outline>
</glyph>
<glyph name="acutecomb" format="1">
  <advance width="272"/>
  <unicode hex="0301"/>
  <outline>
    <contour>
      <point x="254" y="755"/>
      <point x="250" y="756"/>
      <point x="247" y="755" type="curve" smooth="yes"/>
      <point x="18" y="664" type="line" smooth="yes"/>
      <point x="15" y="663"/>
      <point x="13" y="659"/>
      <point x="15" y="654" type="curve" smooth="yes"/>
      <point x="20" y="639" type="line" smooth="yes"/>
      <point x="22" y="633"/>
      <point x="25" y="632"/>
      <point x="31" y="634" type="curve" smooth="yes"/>
      <point x="258" y="708" type="line" smooth="yes"/>
      <point x="266" y="711"/>
      <point x="267" y="714"/>
      <point x="265" y="720" type="curve" smooth="yes"/>
      <point x="255" y="752" type="line" smooth="yes"/>
    </contour>
    <contour>
      <point x="140" y="665" type="move" name="top"/>
    </contour>
    <contour>
      <point x="136" y="530" type="move" name="_top"/>
    </contour>
  </outline>
</glyph>
<glyph name="uni0302" format="1">
  <advance width="280"/>
  <unicode hex="0302"/>
  <outline>
    <contour>
      <point x="213" y="646"/>
      <point x="217" y="644"/>
      <point x="223" y="644" type="curve" smooth="yes"/>
      <point x="264" y="644" type="line" smooth="yes"/>
      <point x="272" y="644"/>
      <point x="272" y="648"/>
      <point x="265" y="654" type="curve" smooth="yes"/>
      <point x="167" y="734" type="line" smooth="yes"/>
      <point x="163" y="737"/>
      <point x="159" y="742"/>
      <point x="151" y="742" type="curve" smooth="yes"/>
      <point x="133" y="742" type="line" smooth="yes"/>
      <point x="124" y="742"/>
      <point x="119" y="738"/>
      <point x="113" y="733" type="curve" smooth="yes"/>
      <point x="14" y="654" type="line" smooth="yes"/>
      <point x="8" y="649"/>
      <point x="9" y="644"/>
      <point x="16" y="644" type="curve" smooth="yes"/>
      <point x="53" y="644" type="line" smooth="yes"/>
      <point x="60" y="644"/>
      <point x="61" y="645"/>
      <point x="68" y="650" type="curve" smooth="yes"/>
      <point x="130" y="698" type="line" smooth="yes"/>
      <point x="141" y="706"/>
      <point x="139" y="706"/>
      <point x="149" y="698" type="curve" smooth="yes"/>
      <point x="208" y="650" type="line" smooth="yes"/>
    </contour>
    <contour>
      <point x="139" y="664" type="move" name="top"/>
    </contour>
    <contour>
      <point x="228" y="715" type="move" name="topviet"/>
    </contour>
    <contour>
      <point x="140" y="530" type="move" name="_top"/>
    </contour>
  </outline>
</glyph>
<glyph name="tildecomb" format="1">
  <advance width="282"/>
  <unicode hex="0303"/>
  <outline>
    <contour>
      <point x="272" y="696"/>
      <point x="273" y="697"/>
      <point x="271" y="701" type="curve" smooth="yes"/>
      <point x="263" y="719" type="line" smooth="yes"/>
      <point x="260" y="725"/>
      <point x="257" y="726"/>
      <point x="250" y="722" type="curve" smooth="yes"/>
      <point x="233" y="712"/>
      <point x="222" y="706"/>
      <point x="200" y="706" type="curve" smooth="yes"/>
      <point x="156" y="706"/>
      <point x="125" y="731"/>
      <point x="81" y="731" type="curve" smooth="yes"/>
      <point x="51" y="731"/>
      <point x="33" y="719"/>
      <point x="13" y="705" type="curve" smooth="yes"/>
      <point x="10" y="703"/>
      <point x="9" y="702"/>
      <point x="11" y="697" type="curve" smooth="yes"/>
      <point x="18" y="681" type="line" smooth="yes"/>
      <point x="21" y="674"/>
      <point x="23" y="674"/>
      <point x="29" y="677" type="curve" smooth="yes"/>
      <point x="42" y="684"/>
      <point x="55" y="697"/>
      <point x="85" y="697" type="curve" smooth="yes"/>
      <point x="126" y="697"/>
      <point x="147" y="673"/>
      <point x="199" y="673" type="curve" smooth="yes"/>
      <point x="235" y="673"/>
      <point x="253" y="684"/>
      <point x="266" y="692" type="curve" smooth="yes"/>
    </contour>
    <contour>
      <point x="131" y="651" type="move" name="top"/>
    </contour>
    <contour>
      <point x="141" y="530" type="move" name="_top"/>
    </contour>
  </outline>
</glyph>
<glyph name="uni0304" format="1">
  <advance width="272"/>
  <unicode hex="0304"/>
  <outline>
    <contour>
      <point x="262" y="719"/>
      <point x="260" y="722"/>
      <point x="257" y="722" type="curve" smooth="yes"/>
      <point x="15" y="722" type="line" smooth="yes"/>
      <point x="12" y="722"/>
      <point x="10" y="719"/>
      <point x="10" y="715" type="curve" smooth="yes"/>
      <point x="10" y="692" type="line" smooth="yes"/>
      <point x="10" y="687"/>
      <point x="11" y="684"/>
      <point x="17" y="684" type="curve" smooth="yes"/>
      <point x="252" y="684" type="line" smooth="yes"/>
      <point x="260" y="684"/>
      <point x="262" y="687"/>
      <point x="262" y="692" type="curve" smooth="yes"/>
      <point x="262" y="716" type="line" smooth="yes"/>
    </contour>
    <contour>
      <point x="136" y="652" type="move" name="top"/>
    </contour>
    <contour>
      <point x="136" y="530" type="move" name="_top"/>
    </contour>
  </outline>
</glyph>
<glyph name="uni0306" format="1">
  <advance width="279"/>
  <unicode hex="0306"/>
  <outline>
    <contour>
      <point x="226" y="742" type="line" smooth="yes"/>
      <point x="222" y="742"/>
      <point x="220" y="741"/>
      <point x="217" y="736" type="curve" smooth="yes"/>
      <point x="206" y="717"/>
      <point x="183" y="691"/>
      <point x="137" y="691" type="curve" smooth="yes"/>
      <point x="88" y="691"/>
      <point x="72" y="722"/>
      <point x="62" y="735" type="curve" smooth="yes"/>
      <point x="58" y="740"/>
      <point x="56" y="742"/>
      <point x="50" y="742" type="curve" smooth="yes"/>
      <point x="15" y="742" type="line" smooth="yes"/>
      <point x="9" y="742"/>
      <point x="10" y="737"/>
      <point x="11" y="734" type="curve" smooth="yes"/>
      <point x="23" y="698"/>
      <point x="60" y="650"/>
      <point x="137" y="650" type="curve" smooth="yes"/>
      <point x="217" y="650"/>
      <point x="259" y="701"/>
      <point x="268" y="733" type="curve" smooth="yes"/>
      <point x="270" y="740"/>
      <point x="269" y="742"/>
      <point x="261" y="742" type="curve" smooth="yes"/>
    </contour>
    <contour>
      <point x="137" y="708" type="move" name="top"/>
    </contour>
    <contour>
      <point x="139" y="530" type="move" name="_top"/>
    </contour>
  </outline>
</glyph>
<glyph name="uni0307" format="1">
  <advance width="70"/>
  <unicode hex="0307"/>
  <outline>
    <contour>
      <point x="60" y="740"/>
      <point x="58" y="742"/>
      <point x="51" y="742" type="curve" smooth="yes"/>
      <point x="19" y="742" type="line" smooth="yes"/>
      <point x="12" y="742"/>
      <point x="10" y="740"/>
      <point x="10" y="732" type="curve" smooth="yes"/>
      <point x="10" y="654" type="line" smooth="yes"/>
      <point x="10" y="646"/>
      <point x="12" y="644"/>
      <point x="21" y="644" type="curve" smooth="yes"/>
      <point x="48" y="644" type="line" smooth="yes"/>
      <point x="58" y="644"/>
      <point x="60" y="646"/>
      <point x="60" y="656" type="curve" smooth="yes"/>
      <point x="60" y="732" type="line" smooth="yes"/>
    </contour>
    <contour>
      <point x="35" y="632" type="move" name="top"/>
    </contour>
    <contour>
      <point x="35" y="530" type="move" name="_top"/>
    </contour>
  </outline>
</glyph>
<glyph name="uni0308" format="1">
  <advance width="181"/>
  <unicode hex="0308"/>
  <outline>
    <contour>
      <point x="60" y="740"/>
      <point x="58" y="742"/>
      <point x="51" y="742" type="curve" smooth="yes"/>
      <point x="19" y="742" type="line" smooth="yes"/>
      <point x="12" y="742"/>
      <point x="10" y="740"/>
      <point x="10" y="732" type="curve" smooth="yes"/>
      <point x="10" y="654" type="line" smooth="yes"/>
      <point x="10" y="646"/>
      <point x="12" y="644"/>
      <point x="21" y="644" type="curve" smooth="yes"/>
      <point x="48" y="644" type="line" smooth="yes"/>
      <point x="58" y="644"/>
      <point x="60" y="646"/>
      <point x="60" y="656" type="curve" smooth="yes"/>
      <point x="60" y="732" type="line" smooth="yes"/>
    </contour>
    <contour>
      <point x="171" y="740"/>
      <point x="169" y="742"/>
      <point x="162" y="742" type="curve" smooth="yes"/>
      <point x="130" y="742" type="line" smooth="yes"/>
      <point x="123" y="742"/>
      <point x="121" y="740"/>
      <point x="121" y="732" type="curve" smooth="yes"/>
      <point x="121" y="654" type="line" smooth="yes"/>
      <point x="121" y="646"/>
      <point x="123" y="644"/>
      <point x="132" y="644" type="curve" smooth="yes"/>
      <point x="159" y="644" type="line" smooth="yes"/>
      <point x="169" y="644"/>
      <point x="171" y="646"/>
      <point x="171" y="656" type="curve" smooth="yes"/>
      <point x="171" y="732" type="line" smooth="yes"/>
    </contour>
    <contour>
      <point x="91" y="642" type="move" name="top"/>
    </contour>
    <contour>
      <point x="91" y="530" type="move" name="_top"/>
    </contour>
  </outline>
</glyph>
<glyph name="hookabovecomb" format="1">
  <advance width="600"/>
  <unicode hex="0309"/>
  <outline>
    <contour>
      <point x="253" y="745"/>
      <point x="280" y="755"/>
      <point x="300" y="755" type="curve" smooth="yes"/>
      <point x="343" y="755"/>
      <point x="371" y="730"/>
      <point x="371" y="690" type="curve" smooth="yes"/>
      <point x="371" y="659"/>
      <point x="346" y="630"/>
      <point x="315" y="599" type="curve" smooth="yes"/>
      <point x="313" y="597"/>
      <point x="311" y="598"/>
      <point x="309" y="600" type="curve" smooth="yes"/>
      <point x="295" y="617" type="line" smooth="yes"/>
      <point x="293" y="619"/>
      <point x="294" y="622"/>
      <point x="296" y="624" type="curve" smooth="yes"/>
      <point x="320" y="648"/>
      <point x="339" y="671"/>
      <point x="339" y="688" type="curve" smooth="yes"/>
      <point x="339" y="713"/>
      <point x="322" y="721"/>
      <point x="297" y="721" type="curve" smooth="yes"/>
      <point x="280" y="721"/>
      <point x="264" y="712"/>
      <point x="247" y="701" type="curve" smooth="yes"/>
      <point x="244" y="699"/>
      <point x="243" y="701"/>
      <point x="242" y="703" type="curve" smooth="yes"/>
      <point x="232" y="726" type="line" smooth="yes"/>
      <point x="230" y="730"/>
      <point x="231" y="731"/>
      <point x="234" y="733" type="curve" smooth="yes"/>
    </contour>
    <contour>
      <point x="271" y="584" type="move" name="_topviet"/>
    </contour>
    <contour>
      <point x="313" y="530" type="move" name="_top"/>
    </contour>
  </outline>
</glyph>
<glyph name="uni030A" format="1">
  <advance width="220"/>
  <unicode hex="030A"/>
  <outline>
    <contour>
      <point x="210" y="756"/>
      <point x="166" y="799"/>
      <point x="110" y="799" type="curve" smooth="yes"/>
      <point x="55" y="799"/>
      <point x="10" y="756"/>
      <point x="10" y="703" type="curve" smooth="yes"/>
      <point x="10" y="645"/>
      <point x="54" y="601"/>
      <point x="110" y="601" type="curve" smooth="yes"/>
      <point x="166" y="601"/>
      <point x="210" y="644"/>
      <point x="210" y="701" type="curve" smooth="yes"/>
    </contour>
    <contour>
      <point x="167" y="669"/>
      <point x="142" y="641"/>
      <point x="109" y="641" type="curve" smooth="yes"/>
      <point x="78" y="641"/>
      <point x="50" y="669"/>
      <point x="50" y="700" type="curve" smooth="yes"/>
      <point x="50" y="735"/>
      <point x="78" y="759"/>
      <point x="109" y="759" type="curve" smooth="yes"/>
      <point x="142" y="759"/>
      <point x="167" y="735"/>
      <point x="167" y="700" type="curve" smooth="yes"/>
    </contour>
    <contour>
      <point x="110" y="530" type="move" name="_top"/>
    </contour>
  </outline>
</glyph>
<glyph name="uni030B" format="1">
  <advance width="353"/>
  <unicode hex="030B"/>
  <outline>
    <contour>
      <point x="156" y="749"/>
      <point x="152" y="750"/>
      <point x="149" y="747" type="curve" smooth="yes"/>
      <point x="32" y="614" type="line" smooth="yes"/>
      <point x="30" y="612"/>
      <point x="28" y="608"/>
      <point x="32" y="604" type="curve" smooth="yes"/>
      <point x="41" y="591" type="line" smooth="yes"/>
      <point x="44" y="586"/>
      <point x="48" y="586"/>
      <point x="53" y="590" type="curve" smooth="yes"/>
      <point x="177" y="707" type="line" smooth="yes"/>
      <point x="184" y="713"/>
      <point x="184" y="715"/>
      <point x="180" y="720" type="curve" smooth="yes"/>
      <point x="158" y="747" type="line" smooth="yes"/>
    </contour>
    <contour>
      <point x="297" y="749"/>
      <point x="293" y="750"/>
      <point x="290" y="747" type="curve" smooth="yes"/>
      <point x="173" y="614" type="line" smooth="yes"/>
      <point x="171" y="612"/>
      <point x="169" y="608"/>
      <point x="173" y="604" type="curve" smooth="yes"/>
      <point x="182" y="591" type="line" smooth="yes"/>
      <point x="185" y="586"/>
      <point x="189" y="586"/>
      <point x="194" y="590" type="curve" smooth="yes"/>
      <point x="318" y="707" type="line" smooth="yes"/>
      <point x="325" y="713"/>
      <point x="325" y="715"/>
      <point x="321" y="720" type="curve" smooth="yes"/>
      <point x="299" y="747" type="line" smooth="yes"/>
    </contour>
    <contour>
      <point x="128" y="530" type="move" name="_top"/>
    </contour>
  </outline>
</glyph>
<glyph name="uni030C" format="1">
  <advance width="280"/>
  <unicode hex="030C"/>
  <outline>
    <contour>
      <point x="149" y="688" type="line" smooth="yes"/>
      <point x="139" y="680"/>
      <point x="141" y="680"/>
      <point x="130" y="688" type="curve" smooth="yes"/>
      <point x="68" y="736" type="line" smooth="yes"/>
      <point x="61" y="741"/>
      <point x="60" y="742"/>
      <point x="53" y="742" type="curve" smooth="yes"/>
      <point x="16" y="742" type="line" smooth="yes"/>
      <point x="9" y="742"/>
      <point x="8" y="737"/>
      <point x="14" y="732" type="curve" smooth="yes"/>
      <point x="113" y="653" type="line" smooth="yes"/>
      <point x="119" y="648"/>
      <point x="124" y="644"/>
      <point x="133" y="644" type="curve" smooth="yes"/>
      <point x="151" y="644" type="line" smooth="yes"/>
      <point x="159" y="644"/>
      <point x="163" y="649"/>
      <point x="167" y="652" type="curve" smooth="yes"/>
      <point x="265" y="732" type="line" smooth="yes"/>
      <point x="272" y="738"/>
      <point x="272" y="742"/>
      <point x="264" y="742" type="curve" smooth="yes"/>
      <point x="223" y="742" type="line" smooth="yes"/>
      <point x="217" y="742"/>
      <point x="213" y="740"/>
      <point x="208" y="736" type="curve" smooth="yes"/>
    </contour>
    <contour>
      <point x="140" y="652" type="move" name="top"/>
    </contour>
    <contour>
      <point x="140" y="530" type="move" name="_top"/>
    </contour>
  </outline>
</glyph>
<glyph name="uni030F" format="1">
  <advance width="353"/>
  <unicode hex="030F"/>
  <outline>
    <contour>
      <point x="33" y="720" type="line" smooth="yes"/>
      <point x="29" y="715"/>
      <point x="29" y="713"/>
      <point x="36" y="707" type="curve" smooth="yes"/>
      <point x="160" y="590" type="line" smooth="yes"/>
      <point x="165" y="586"/>
      <point x="169" y="586"/>
      <point x="172" y="591" type="curve" smooth="yes"/>
      <point x="181" y="604" type="line" smooth="yes"/>
      <point x="185" y="608"/>
      <point x="183" y="612"/>
      <point x="181" y="614" type="curve" smooth="yes"/>
      <point x="64" y="747" type="line" smooth="yes"/>
      <point x="61" y="750"/>
      <point x="57" y="749"/>
      <point x="55" y="747" type="curve" smooth="yes"/>
    </contour>
    <contour>
      <point x="173" y="720" type="line" smooth="yes"/>
      <point x="169" y="715"/>
      <point x="169" y="713"/>
      <point x="176" y="707" type="curve" smooth="yes"/>
      <point x="300" y="590" type="line" smooth="yes"/>
      <point x="305" y="586"/>
      <point x="309" y="586"/>
      <point x="312" y="591" type="curve" smooth="yes"/>
      <point x="321" y="604" type="line" smooth="yes"/>
      <point x="325" y="608"/>
      <point x="323" y="612"/>
      <point x="321" y="614" type="curve" smooth="yes"/>
      <point x="204" y="747" type="line" smooth="yes"/>
      <point x="201" y="750"/>
      <point x="197" y="749"/>
      <point x="195" y="747" type="curve" smooth="yes"/>
    </contour>
    <contour>
      <point x="225" y="530" type="move" name="_top"/>
    </contour>
  </outline>
</glyph>
<glyph name="uni0311" format="1">
  <advance width="279"/>
  <unicode hex="0311"/>
  <outline>
    <component base="uni0306" yOffset="1400" yScale="-1"/>
    <contour>
      <point x="140" y="530" type="move" name="_top"/>
    </contour>
  </outline>
</glyph>
<glyph name="uni0312" format="1">
  <advance width="164"/>
  <unicode hex="0312"/>
  <outline>
    <component base="uni0326" xOffset="124" yOffset="562" xScale="-1" yScale="-1"/>
    <contour>
      <point x="82" y="788" type="move" name="top"/>
    </contour>
    <contour>
      <point x="82" y="530" type="move" name="_top"/>
    </contour>
  </outline>
</glyph>
<glyph name="uni031B" format="1">
  <advance width="600"/>
  <unicode hex="031B"/>
  <outline>
    <contour>
      <point x="611" y="591" type="line" smooth="yes"/>
      <point x="607" y="591"/>
      <point x="603" y="592"/>
      <point x="601" y="587" type="curve" smooth="yes"/>
      <point x="593" y="563"/>
      <point x="577" y="531"/>
      <point x="530" y="531" type="curve"/>
      <point x="525" y="490" type="line"/>
      <point x="604" y="490"/>
      <point x="639" y="544"/>
      <point x="650" y="580" type="curve" smooth="yes"/>
      <point x="652" y="588"/>
      <point x="651" y="591"/>
      <point x="643" y="591" type="curve" smooth="yes"/>
    </contour>
    <contour>
      <point x="588" y="530" type="move" name="_topright"/>
    </contour>
    <contour>
      <point x="588" y="530" type="move" name="topright"/>
    </contour>
  </outline>
</glyph>
<glyph name="dotbelowcomb" format="1">
  <advance width="72"/>
  <unicode hex="0323"/>
  <outline>
    <contour>
      <point x="62" y="-64"/>
      <point x="60" y="-62"/>
      <point x="53" y="-62" type="curve" smooth="yes"/>
      <point x="19" y="-62" type="line" smooth="yes"/>
      <point x="12" y="-62"/>
      <point x="10" y="-64"/>
      <point x="10" y="-72" type="curve" smooth="yes"/>
      <point x="10" y="-155" type="line" smooth="yes"/>
      <point x="10" y="-163"/>
      <point x="12" y="-165"/>
      <point x="21" y="-165" type="curve" smooth="yes"/>
      <point x="50" y="-165" type="line" smooth="yes"/>
      <point x="60" y="-165"/>
      <point x="62" y="-163"/>
      <point x="62" y="-153" type="curve" smooth="yes"/>
      <point x="62" y="-72" type="line" smooth="yes"/>
    </contour>
    <contour>
      <point x="36" y="0" type="move" name="_bottom"/>
    </contour>
  </outline>
</glyph>
<glyph name="uni0324" format="1">
  <advance width="181"/>
  <unicode hex="0324"/>
  <outline>
    <component base="uni0308" yOffset="-797"/>
    <contour>
      <point x="91" y="0" type="move" name="_bottom"/>
    </contour>
    <contour>
      <point x="91" y="-153" type="move" name="bottom"/>
    </contour>
  </outline>
</glyph>
<glyph name="uni0326" format="1">
  <advance width="84"/>
  <unicode hex="0326"/>
  <outline>
    <contour>
      <point x="28" y="-236" type="line" smooth="yes"/>
      <point x="36" y="-236"/>
      <point x="39" y="-235"/>
      <point x="42" y="-230" type="curve" smooth="yes"/>
      <point x="73" y="-171" type="line" smooth="yes"/>
      <point x="73" y="-170"/>
      <point x="74" y="-167"/>
      <point x="74" y="-165" type="curve" smooth="yes"/>
      <point x="74" y="-89" type="line" smooth="yes"/>
      <point x="74" y="-84"/>
      <point x="72" y="-82"/>
      <point x="68" y="-82" type="curve" smooth="yes"/>
      <point x="23" y="-82" type="line" smooth="yes"/>
      <point x="19" y="-82"/>
      <point x="16" y="-84"/>
      <point x="16" y="-90" type="curve" smooth="yes"/>
      <point x="16" y="-156" type="line" smooth="yes"/>
      <point x="16" y="-163"/>
      <point x="18" y="-165"/>
      <point x="24" y="-165" type="curve" smooth="yes"/>
      <point x="32" y="-165" type="line" smooth="yes"/>
      <point x="37" y="-165"/>
      <point x="39" y="-168"/>
      <point x="36" y="-174" type="curve" smooth="yes"/>
      <point x="11" y="-228" type="line" smooth="yes"/>
      <point x="9" y="-232"/>
      <point x="11" y="-236"/>
      <point x="15" y="-236" type="curve" smooth="yes"/>
    </contour>
    <contour>
      <point x="42" y="0" type="move" name="_bottom"/>
    </contour>
  </outline>
</glyph>
<glyph name="uni0327" format="1">
  <advance width="196"/>
  <unicode hex="0327"/>
  <outline>
    <contour>
      <point x="186" y="-97"/>
      <point x="169" y="-64"/>
      <point x="110" y="-58" type="curve" smooth="yes"/>
      <point x="107" y="-58"/>
      <point x="106" y="-57"/>
      <point x="107" y="-55" type="curve" smooth="yes"/>
      <point x="131" y="5" type="line"/>
      <point x="97" y="5" type="line"/>
      <point x="61" y="-79" type="line" smooth="yes"/>
      <point x="60" y="-81"/>
      <point x="60" y="-83"/>
      <point x="65" y="-83" type="curve" smooth="yes"/>
      <point x="117" y="-85"/>
      <point x="142" y="-99"/>
      <point x="142" y="-131" type="curve" smooth="yes"/>
      <point x="142" y="-159"/>
      <point x="124" y="-174"/>
      <point x="82" y="-174" type="curve" smooth="yes"/>
      <point x="53" y="-174"/>
      <point x="39" y="-167"/>
      <point x="26" y="-156" type="curve" smooth="yes"/>
      <point x="23" y="-154"/>
      <point x="20" y="-155"/>
      <point x="19" y="-157" type="curve" smooth="yes"/>
      <point x="10" y="-177" type="line" smooth="yes"/>
      <point x="9" y="-180"/>
      <point x="11" y="-182"/>
      <point x="13" y="-183" type="curve" smooth="yes"/>
      <point x="34" y="-197"/>
      <point x="57" y="-204"/>
      <point x="86" y="-204" type="curve" smooth="yes"/>
      <point x="141" y="-204"/>
      <point x="186" y="-179"/>
      <point x="186" y="-129" type="curve" smooth="yes"/>
    </contour>
    <contour>
      <point x="113" y="0" type="move" name="_bottom"/>
    </contour>
  </outline>
</glyph>
<glyph name="uni0328" format="1">
  <advance width="195"/>
  <unicode hex="0328"/>
  <outline>
    <contour>
      <point x="10" y="-135"/>
      <point x="38" y="-168"/>
      <point x="102" y="-168" type="curve" smooth="yes"/>
      <point x="134" y="-168"/>
      <point x="165" y="-160"/>
      <point x="180" y="-153" type="curve" smooth="yes"/>
      <point x="184" y="-151"/>
      <point x="185" y="-150"/>
      <point x="185" y="-145" type="curve" smooth="yes"/>
      <point x="185" y="-125" type="line" smooth="yes"/>
      <point x="185" y="-120"/>
      <point x="183" y="-119"/>
      <point x="177" y="-122" type="curve" smooth="yes"/>
      <point x="169" y="-126"/>
      <point x="143" y="-134"/>
      <point x="112" y="-134" type="curve" smooth="yes"/>
      <point x="71" y="-134"/>
      <point x="54" y="-120"/>
      <point x="54" y="-92" type="curve" smooth="yes"/>
      <point x="54" y="-53"/>
      <point x="88" y="-29"/>
      <point x="155" y="2" type="curve"/>
      <point x="121" y="11" type="line"/>
      <point x="37" y="-13"/>
      <point x="10" y="-46"/>
      <point x="10" y="-90" type="curve" smooth="yes"/>
    </contour>
    <contour>
      <point x="150" y="12" type="move" name="_ogonek"/>
    </contour>
  </outline>
</glyph>
<glyph name="uni032E" format="1">
  <advance width="359"/>
  <unicode hex="032E"/>
  <outline>
    <component base="uni0306" xOffset="40" yOffset="595" yScale="-1"/>
    <contour>
      <point x="180" y="0" type="move" name="_bottom"/>
    </contour>
    <contour>
      <point x="180" y="-147" type="move" name="bottom"/>
    </contour>
  </outline>
</glyph>
<glyph name="uni0331" format="1">
  <advance width="501"/>
  <unicode hex="0331"/>
  <outline>
    <contour>
      <point x="401" y="-64"/>
      <point x="398" y="-62"/>
      <point x="394" y="-62" type="curve" smooth="yes"/>
      <point x="105" y="-62" type="line" smooth="yes"/>
      <point x="102" y="-62"/>
      <point x="100" y="-64"/>
      <point x="100" y="-69" type="curve" smooth="yes"/>
      <point x="100" y="-95" type="line" smooth="yes"/>
      <point x="100" y="-100"/>
      <point x="102" y="-102"/>
      <point x="108" y="-102" type="curve" smooth="yes"/>
      <point x="391" y="-102" type="line" smooth="yes"/>
      <point x="398" y="-102"/>
      <point x="401" y="-100"/>
      <point x="401" y="-94" type="curve" smooth="yes"/>
      <point x="401" y="-68" type="line" smooth="yes"/>
    </contour>
    <contour>
      <point x="251" y="0" type="move" name="_bottom"/>
    </contour>
    <contour>
      <point x="251" y="-102" type="move" name="bottom"/>
    </contour>
  </outline>
</glyph>
<glyph name="uni0335" format="1">
  <advance width="511"/>
  <unicode hex="0335"/>
  <outline>
    <contour>
      <point x="431" y="246" type="line" smooth="yes"/>
      <point x="438" y="246"/>
      <point x="441" y="248"/>
      <point x="441" y="254" type="curve" smooth="yes"/>
      <point x="441" y="280" type="line" smooth="yes"/>
      <point x="441" y="284"/>
      <point x="438" y="286"/>
      <point x="434" y="286" type="curve" smooth="yes"/>
      <point x="75" y="285" type="line" smooth="yes"/>
      <point x="72" y="285"/>
      <point x="70" y="283"/>
      <point x="70" y="278" type="curve" smooth="yes"/>
      <point x="70" y="252" type="line" smooth="yes"/>
      <point x="70" y="247"/>
      <point x="72" y="245"/>
      <point x="78" y="245" type="curve" smooth="yes"/>
    </contour>
    <contour>
      <point x="256" y="266" type="move" name="_center"/>
    </contour>
  </outline>
</glyph>
<glyph name="uni0402" format="1">
  <advance width="782"/>
  <unicode hex="0402"/>
  <outline>
    <contour>
      <point x="461" y="475"/>
      <point x="408" y="464"/>
      <point x="330" y="424" type="curve" smooth="yes"/>
      <point x="324" y="421"/>
      <point x="320" y="421"/>
      <point x="320" y="428" type="curve" smooth="yes"/>
      <point x="320" y="702" type="line"/>
      <point x="568" y="702" type="line" smooth="yes"/>
      <point x="574" y="702"/>
      <point x="576" y="703"/>
      <point x="576" y="709" type="curve" smooth="yes"/>
      <point x="576" y="735" type="line" smooth="yes"/>
      <point x="576" y="740"/>
      <point x="574" y="742"/>
      <point x="569" y="742" type="curve" smooth="yes"/>
      <point x="54" y="742" type="line" smooth="yes"/>
      <point x="49" y="742"/>
      <point x="47" y="740"/>
      <point x="47" y="735" type="curve" smooth="yes"/>
      <point x="47" y="709" type="line" smooth="yes"/>
      <point x="47" y="703"/>
      <point x="49" y="702"/>
      <point x="55" y="702" type="curve" smooth="yes"/>
      <point x="274" y="702" type="line"/>
      <point x="274" y="13" type="line" smooth="yes"/>
      <point x="274" y="2"/>
      <point x="276" y="0"/>
      <point x="285" y="0" type="curve" smooth="yes"/>
      <point x="308" y="0" type="line" smooth="yes"/>
      <point x="317" y="0"/>
      <point x="320" y="2"/>
      <point x="320" y="13" type="curve" smooth="yes"/>
      <point x="320" y="373" type="line"/>
      <point x="406" y="421"/>
      <point x="464" y="431"/>
      <point x="526" y="431" type="curve" smooth="yes"/>
      <point x="632" y="431"/>
      <point x="696" y="389"/>
      <point x="696" y="248" type="curve" smooth="yes"/>
      <point x="696" y="107"/>
      <point x="647" y="34"/>
      <point x="549" y="34" type="curve" smooth="yes"/>
      <point x="500" y="34"/>
      <point x="478" y="49"/>
      <point x="457" y="59" type="curve" smooth="yes"/>
      <point x="453" y="61"/>
      <point x="450" y="60"/>
      <point x="449" y="55" type="curve"/>
      <point x="440" y="24" type="line"/>
      <point x="439" y="20"/>
      <point x="441" y="17"/>
      <point x="444" y="15" type="curve" smooth="yes"/>
      <point x="451" y="10"/>
      <point x="496" y="-10"/>
      <point x="551" y="-10" type="curve" smooth="yes"/>
      <point x="664" y="-10"/>
      <point x="742" y="70"/>
      <point x="742" y="240" type="curve" smooth="yes"/>
      <point x="742" y="410"/>
      <point x="663" y="475"/>
      <point x="523" y="475" type="curve" smooth="yes"/>
    </contour>
  </outline>
</glyph>
<glyph name="uni0404" format="1">
  <advance width="695"/>
  <unicode hex="0404"/>
  <outline>
    <contour>
      <point x="93" y="375" type="line" smooth="yes"/>
      <point x="93" y="369"/>
      <point x="96" y="367"/>
      <point x="103" y="367" type="curve" smooth="yes"/>
      <point x="437" y="366" type="line" smooth="yes"/>
      <point x="443" y="366"/>
      <point x="445" y="368"/>
      <point x="445" y="373" type="curve" smooth="yes"/>
      <point x="445" y="399" type="line" smooth="yes"/>
      <point x="445" y="404"/>
      <point x="443" y="406"/>
      <point x="440" y="406" type="curve" smooth="yes"/>
      <point x="100" y="407" type="line" smooth="yes"/>
      <point x="96" y="407"/>
      <point x="93" y="405"/>
      <point x="93" y="401" type="curve" smooth="yes"/>
    </contour>
    <component base="C"/>
  </outline>
</glyph>
<glyph name="uni0409" format="1">
  <advance width="1061"/>
  <unicode hex="0409"/>
  <outline>
    <contour>
      <point x="755" y="0" type="line" smooth="yes"/>
      <point x="910" y="0"/>
      <point x="1021" y="58"/>
      <point x="1021" y="207" type="curve" smooth="yes"/>
      <point x="1021" y="355"/>
      <point x="912" y="415"/>
      <point x="761" y="415" type="curve" smooth="yes"/>
      <point x="618" y="415" type="line" smooth="yes"/>
      <point x="612" y="415"/>
      <point x="610" y="418"/>
      <point x="610" y="424" type="curve" smooth="yes"/>
      <point x="610" y="501" type="line"/>
      <point x="581" y="501" type="line"/>
      <point x="581" y="0" type="line"/>
    </contour>
    <contour>
      <point x="613" y="40"/>
      <point x="610" y="42"/>
      <point x="610" y="48" type="curve" smooth="yes"/>
      <point x="610" y="365" type="line" smooth="yes"/>
      <point x="610" y="372"/>
      <point x="612" y="375"/>
      <point x="617" y="375" type="curve" smooth="yes"/>
      <point x="761" y="375" type="line" smooth="yes"/>
      <point x="889" y="375"/>
      <point x="973" y="327"/>
      <point x="973" y="204" type="curve" smooth="yes"/>
      <point x="973" y="80"/>
      <point x="889" y="40"/>
      <point x="754" y="40" type="curve" smooth="yes"/>
      <point x="619" y="40" type="line" smooth="yes"/>
    </contour>
    <component base="uni041B"/>
  </outline>
</glyph>
<glyph name="uni040A" format="1">
  <advance width="1062"/>
  <unicode hex="040A"/>
  <outline>
    <contour>
      <point x="587" y="0" type="line"/>
      <point x="756" y="0" type="line" smooth="yes"/>
      <point x="911" y="0"/>
      <point x="1022" y="57"/>
      <point x="1022" y="202" type="curve" smooth="yes"/>
      <point x="1022" y="346"/>
      <point x="913" y="406"/>
      <point x="762" y="406" type="curve" smooth="yes"/>
      <point x="619" y="406" type="line" smooth="yes"/>
      <point x="613" y="406"/>
      <point x="611" y="409"/>
      <point x="611" y="415" type="curve" smooth="yes"/>
      <point x="611" y="525" type="line"/>
      <point x="587" y="525" type="line"/>
    </contour>
    <contour>
      <point x="974" y="79"/>
      <point x="890" y="40"/>
      <point x="755" y="40" type="curve" smooth="yes"/>
      <point x="620" y="40" type="line" smooth="yes"/>
      <point x="614" y="40"/>
      <point x="611" y="42"/>
      <point x="611" y="48" type="curve" smooth="yes"/>
      <point x="611" y="356" type="line" smooth="yes"/>
      <point x="611" y="363"/>
      <point x="613" y="366"/>
      <point x="618" y="366" type="curve" smooth="yes"/>
      <point x="762" y="366" type="line" smooth="yes"/>
      <point x="890" y="366"/>
      <point x="974" y="318"/>
      <point x="974" y="199" type="curve" smooth="yes"/>
    </contour>
    <component base="uni041D"/>
  </outline>
</glyph>
<glyph name="uni040B" format="1">
  <advance width="782"/>
  <unicode hex="040B"/>
  <outline>
    <contour>
      <point x="731" y="0" type="line" smooth="yes"/>
      <point x="739" y="0"/>
      <point x="742" y="4"/>
      <point x="742" y="13" type="curve" smooth="yes"/>
      <point x="742" y="270" type="line" smooth="yes"/>
      <point x="742" y="391"/>
      <point x="673" y="475"/>
      <point x="523" y="475" type="curve" smooth="yes"/>
      <point x="461" y="475"/>
      <point x="408" y="464"/>
      <point x="330" y="424" type="curve" smooth="yes"/>
      <point x="324" y="421"/>
      <point x="320" y="421"/>
      <point x="320" y="428" type="curve"/>
      <point x="320" y="373" type="line"/>
      <point x="406" y="421"/>
      <point x="464" y="431"/>
      <point x="526" y="431" type="curve" smooth="yes"/>
      <point x="662" y="431"/>
      <point x="696" y="360"/>
      <point x="696" y="248" type="curve" smooth="yes"/>
      <point x="696" y="12" type="line" smooth="yes"/>
      <point x="696" y="4"/>
      <point x="700" y="0"/>
      <point x="708" y="0" type="curve" smooth="yes"/>
    </contour>
    <contour>
      <point x="308" y="0" type="line" smooth="yes"/>
      <point x="317" y="0"/>
      <point x="320" y="2"/>
      <point x="320" y="13" type="curve" smooth="yes"/>
      <point x="320" y="729" type="line" smooth="yes"/>
      <point x="320" y="740"/>
      <point x="317" y="742"/>
      <point x="306" y="742" type="curve" smooth="yes"/>
      <point x="289" y="742" type="line" smooth="yes"/>
      <point x="276" y="742"/>
      <point x="274" y="740"/>
      <point x="274" y="726" type="curve" smooth="yes"/>
      <point x="274" y="13" type="line" smooth="yes"/>
      <point x="274" y="2"/>
      <point x="276" y="0"/>
      <point x="285" y="0" type="curve" smooth="yes"/>
    </contour>
    <contour>
      <point x="568" y="702" type="line"/>
      <point x="574" y="702"/>
      <point x="576" y="703"/>
      <point x="576" y="709" type="curve" smooth="yes"/>
      <point x="576" y="735" type="line" smooth="yes"/>
      <point x="576" y="740"/>
      <point x="574" y="742"/>
      <point x="569" y="742" type="curve" smooth="yes"/>
      <point x="54" y="742" type="line" smooth="yes"/>
      <point x="49" y="742"/>
      <point x="47" y="740"/>
      <point x="47" y="735" type="curve" smooth="yes"/>
      <point x="47" y="709" type="line" smooth="yes"/>
      <point x="47" y="703"/>
      <point x="49" y="702"/>
      <point x="55" y="702" type="curve"/>
    </contour>
  </outline>
</glyph>
<glyph name="uni040F" format="1">
  <advance width="731"/>
  <unicode hex="040F"/>
  <outline>
    <contour>
      <point x="382" y="-132" type="line" smooth="yes"/>
      <point x="388" y="-132"/>
      <point x="391" y="-129"/>
      <point x="391" y="-122" type="curve" smooth="yes"/>
      <point x="391" y="-7" type="line" smooth="yes"/>
      <point x="391" y="-2"/>
      <point x="393" y="0"/>
      <point x="398" y="0" type="curve" smooth="yes"/>
      <point x="608" y="0" type="line" smooth="yes"/>
      <point x="615" y="0"/>
      <point x="617" y="2"/>
      <point x="617" y="10" type="curve" smooth="yes"/>
      <point x="617" y="732" type="line" smooth="yes"/>
      <point x="617" y="739"/>
      <point x="614" y="742"/>
      <point x="608" y="742" type="curve" smooth="yes"/>
      <point x="581" y="742" type="line" smooth="yes"/>
      <point x="574" y="742"/>
      <point x="571" y="740"/>
      <point x="571" y="733" type="curve" smooth="yes"/>
      <point x="571" y="47" type="line" smooth="yes"/>
      <point x="571" y="42"/>
      <point x="569" y="40"/>
      <point x="564" y="40" type="curve" smooth="yes"/>
      <point x="172" y="40" type="line" smooth="yes"/>
      <point x="168" y="40"/>
      <point x="166" y="43"/>
      <point x="166" y="46" type="curve" smooth="yes"/>
      <point x="166" y="733" type="line" smooth="yes"/>
      <point x="166" y="739"/>
      <point x="163" y="742"/>
      <point x="156" y="742" type="curve" smooth="yes"/>
      <point x="129" y="742" type="line" smooth="yes"/>
      <point x="122" y="742"/>
      <point x="120" y="739"/>
      <point x="120" y="732" type="curve" smooth="yes"/>
      <point x="120" y="10" type="line" smooth="yes"/>
      <point x="120" y="2"/>
      <point x="122" y="0"/>
      <point x="129" y="0" type="curve" smooth="yes"/>
      <point x="338" y="0" type="line" smooth="yes"/>
      <point x="343" y="0"/>
      <point x="345" y="-2"/>
      <point x="345" y="-7" type="curve" smooth="yes"/>
      <point x="345" y="-123" type="line" smooth="yes"/>
      <point x="345" y="-130"/>
      <point x="348" y="-132"/>
      <point x="355" y="-132" type="curve" smooth="yes"/>
    </contour>
  </outline>
</glyph>
<glyph name="uni0411" format="1">
  <advance width="692"/>
  <unicode hex="0411"/>
  <outline>
    <contour>
      <point x="174" y="415" type="line" smooth="yes"/>
      <point x="168" y="415"/>
      <point x="166" y="418"/>
      <point x="166" y="424" type="curve" smooth="yes"/>
      <point x="166" y="693" type="line" smooth="yes"/>
      <point x="166" y="701"/>
      <point x="168" y="702"/>
      <point x="175" y="702" type="curve" smooth="yes"/>
      <point x="577" y="702" type="line" smooth="yes"/>
      <point x="583" y="702"/>
      <point x="585" y="703"/>
      <point x="585" y="709" type="curve" smooth="yes"/>
      <point x="585" y="735" type="line" smooth="yes"/>
      <point x="585" y="740"/>
      <point x="583" y="742"/>
      <point x="578" y="742" type="curve" smooth="yes"/>
      <point x="120" y="742" type="line"/>
      <point x="120" y="10" type="line" smooth="yes"/>
      <point x="120" y="2"/>
      <point x="122" y="0"/>
      <point x="129" y="0" type="curve" smooth="yes"/>
      <point x="351" y="0" type="line" smooth="yes"/>
      <point x="506" y="0"/>
      <point x="617" y="58"/>
      <point x="617" y="207" type="curve" smooth="yes"/>
      <point x="617" y="355"/>
      <point x="508" y="415"/>
      <point x="357" y="415" type="curve" smooth="yes"/>
    </contour>
    <contour>
      <point x="175" y="40" type="line" smooth="yes"/>
      <point x="169" y="40"/>
      <point x="166" y="42"/>
      <point x="166" y="48" type="curve" smooth="yes"/>
      <point x="166" y="365" type="line" smooth="yes"/>
      <point x="166" y="372"/>
      <point x="168" y="375"/>
      <point x="173" y="375" type="curve" smooth="yes"/>
      <point x="357" y="375" type="line" smooth="yes"/>
      <point x="485" y="375"/>
      <point x="569" y="327"/>
      <point x="569" y="204" type="curve" smooth="yes"/>
      <point x="569" y="80"/>
      <point x="485" y="40"/>
      <point x="350" y="40" type="curve" smooth="yes"/>
    </contour>
  </outline>
</glyph>
<glyph name="uni0413" format="1">
  <advance width="544"/>
  <unicode hex="0413"/>
  <outline>
    <contour>
      <point x="120" y="10" type="line" smooth="yes"/>
      <point x="120" y="2"/>
      <point x="122" y="0"/>
      <point x="129" y="0" type="curve" smooth="yes"/>
      <point x="159" y="0" type="line" smooth="yes"/>
      <point x="164" y="0"/>
      <point x="166" y="2"/>
      <point x="166" y="7" type="curve"/>
      <point x="166" y="693" type="line"/>
      <point x="166" y="701"/>
      <point x="168" y="702"/>
      <point x="175" y="702" type="curve" smooth="yes"/>
      <point x="513" y="702" type="line" smooth="yes"/>
      <point x="519" y="702"/>
      <point x="521" y="703"/>
      <point x="521" y="709" type="curve" smooth="yes"/>
      <point x="521" y="735" type="line" smooth="yes"/>
      <point x="521" y="740"/>
      <point x="519" y="742"/>
      <point x="514" y="742" type="curve" smooth="yes"/>
      <point x="129" y="742" type="line" smooth="yes"/>
      <point x="122" y="742"/>
      <point x="120" y="740"/>
      <point x="120" y="732" type="curve" smooth="yes"/>
    </contour>
    <contour>
      <point x="160" y="371" type="move" name="center"/>
    </contour>
    <contour>
      <point x="130" y="0" type="move" name="bottomright"/>
    </contour>
    <contour>
      <point x="318" y="742" type="move" name="top"/>
    </contour>
  </outline>
</glyph>
<glyph name="uni0414" format="1">
  <advance width="720"/>
  <unicode hex="0414"/>
  <outline>
    <contour>
      <point x="76" y="-142" type="line" smooth="yes"/>
      <point x="83" y="-142"/>
      <point x="86" y="-140"/>
      <point x="86" y="-133" type="curve" smooth="yes"/>
      <point x="86" y="-7" type="line" smooth="yes"/>
      <point x="86" y="-2"/>
      <point x="88" y="0"/>
      <point x="93" y="0" type="curve" smooth="yes"/>
      <point x="627" y="0" type="line" smooth="yes"/>
      <point x="632" y="0"/>
      <point x="634" y="-2"/>
      <point x="634" y="-7" type="curve" smooth="yes"/>
      <point x="634" y="-133" type="line" smooth="yes"/>
      <point x="634" y="-140"/>
      <point x="637" y="-142"/>
      <point x="644" y="-142" type="curve" smooth="yes"/>
      <point x="671" y="-142" type="line" smooth="yes"/>
      <point x="677" y="-142"/>
      <point x="680" y="-139"/>
      <point x="680" y="-132" type="curve" smooth="yes"/>
      <point x="680" y="30" type="line" smooth="yes"/>
      <point x="680" y="38"/>
      <point x="678" y="40"/>
      <point x="671" y="40" type="curve" smooth="yes"/>
      <point x="594" y="40" type="line"/>
      <point x="590" y="40"/>
      <point x="588" y="42"/>
      <point x="588" y="46" type="curve"/>
      <point x="588" y="732" type="line" smooth="yes"/>
      <point x="588" y="740"/>
      <point x="586" y="742"/>
      <point x="579" y="742" type="curve" smooth="yes"/>
      <point x="198" y="742" type="line" smooth="yes"/>
      <point x="191" y="742"/>
      <point x="189" y="740"/>
      <point x="189" y="732" type="curve"/>
      <point x="235" y="696" type="line"/>
      <point x="235" y="699"/>
      <point x="237" y="702"/>
      <point x="241" y="702" type="curve" smooth="yes"/>
      <point x="535" y="702" type="line" smooth="yes"/>
      <point x="540" y="702"/>
      <point x="542" y="700"/>
      <point x="542" y="695" type="curve" smooth="yes"/>
      <point x="542" y="46" type="line"/>
      <point x="542" y="42"/>
      <point x="540" y="40"/>
      <point x="536" y="40" type="curve"/>
      <point x="49" y="40" type="line" smooth="yes"/>
      <point x="42" y="40"/>
      <point x="40" y="38"/>
      <point x="40" y="30" type="curve" smooth="yes"/>
      <point x="40" y="-132" type="line" smooth="yes"/>
      <point x="40" y="-139"/>
      <point x="43" y="-142"/>
      <point x="49" y="-142" type="curve" smooth="yes"/>
    </contour>
    <contour>
      <point x="197" y="2"/>
      <point x="235" y="224"/>
      <point x="235" y="574" type="curve" smooth="yes"/>
      <point x="235" y="732" type="line"/>
      <point x="189" y="732" type="line"/>
      <point x="189" y="574" type="line" smooth="yes"/>
      <point x="189" y="236"/>
      <point x="162" y="40"/>
      <point x="79" y="40" type="curve"/>
      <point x="86" y="2" type="line"/>
    </contour>
  </outline>
</glyph>
<glyph name="uni0416" format="1">
  <advance width="944"/>
  <unicode hex="0416"/>
  <outline>
    <contour>
      <point x="43" y="0" type="line" smooth="yes"/>
      <point x="112" y="0"/>
      <point x="128" y="26"/>
      <point x="152" y="92" type="curve" smooth="yes"/>
      <point x="209" y="251" type="line" smooth="yes"/>
      <point x="235" y="325"/>
      <point x="260" y="366"/>
      <point x="334" y="366" type="curve" smooth="yes"/>
      <point x="445" y="366" type="line" smooth="yes"/>
      <point x="449" y="366"/>
      <point x="451" y="363"/>
      <point x="451" y="360" type="curve" smooth="yes"/>
      <point x="451" y="10" type="line" smooth="yes"/>
      <point x="451" y="3"/>
      <point x="453" y="0"/>
      <point x="460" y="0" type="curve" smooth="yes"/>
      <point x="483" y="0" type="line" smooth="yes"/>
      <point x="490" y="0"/>
      <point x="493" y="3"/>
      <point x="493" y="9" type="curve" smooth="yes"/>
      <point x="493" y="360" type="line" smooth="yes"/>
      <point x="493" y="363"/>
      <point x="495" y="366"/>
      <point x="499" y="366" type="curve" smooth="yes"/>
      <point x="610" y="366" type="line" smooth="yes"/>
      <point x="684" y="366"/>
      <point x="703" y="323"/>
      <point x="731" y="250" type="curve" smooth="yes"/>
      <point x="791" y="92" type="line" smooth="yes"/>
      <point x="816" y="27"/>
      <point x="832" y="0"/>
      <point x="901" y="0" type="curve" smooth="yes"/>
      <point x="906" y="0" type="line" smooth="yes"/>
      <point x="912" y="0"/>
      <point x="914" y="2"/>
      <point x="914" y="8" type="curve" smooth="yes"/>
      <point x="914" y="29" type="line" smooth="yes"/>
      <point x="914" y="34"/>
      <point x="911" y="37"/>
      <point x="906" y="37" type="curve" smooth="yes"/>
      <point x="867" y="37"/>
      <point x="850" y="55"/>
      <point x="836" y="92" type="curve" smooth="yes"/>
      <point x="776" y="250" type="line" smooth="yes"/>
      <point x="736" y="356"/>
      <point x="706" y="399"/>
      <point x="618" y="399" type="curve"/>
      <point x="618" y="406" type="line"/>
      <point x="502" y="406" type="line" smooth="yes"/>
      <point x="495" y="406"/>
      <point x="493" y="407"/>
      <point x="493" y="415" type="curve" smooth="yes"/>
      <point x="493" y="732" type="line" smooth="yes"/>
      <point x="493" y="740"/>
      <point x="491" y="742"/>
      <point x="484" y="742" type="curve" smooth="yes"/>
      <point x="460" y="742" type="line" smooth="yes"/>
      <point x="453" y="742"/>
      <point x="451" y="740"/>
      <point x="451" y="732" type="curve" smooth="yes"/>
      <point x="451" y="415" type="line" smooth="yes"/>
      <point x="451" y="407"/>
      <point x="449" y="406"/>
      <point x="442" y="406" type="curve" smooth="yes"/>
      <point x="323" y="406" type="line"/>
      <point x="323" y="399" type="line"/>
      <point x="235" y="399"/>
      <point x="208" y="356"/>
      <point x="164" y="251" type="curve" smooth="yes"/>
      <point x="108" y="92" type="line" smooth="yes"/>
      <point x="94" y="55"/>
      <point x="77" y="37"/>
      <point x="38" y="37" type="curve" smooth="yes"/>
      <point x="33" y="37"/>
      <point x="30" y="34"/>
      <point x="30" y="29" type="curve" smooth="yes"/>
      <point x="30" y="8" type="line" smooth="yes"/>
      <point x="30" y="2"/>
      <point x="32" y="0"/>
      <point x="38" y="0" type="curve" smooth="yes"/>
    </contour>
    <contour>
      <point x="349" y="406" type="line"/>
      <point x="325" y="406"/>
      <point x="314" y="414"/>
      <point x="302" y="434" type="curve" smooth="yes"/>
      <point x="124" y="737" type="line" smooth="yes"/>
      <point x="122" y="741"/>
      <point x="118" y="742"/>
      <point x="113" y="742" type="curve" smooth="yes"/>
      <point x="81" y="742" type="line" smooth="yes"/>
      <point x="77" y="742"/>
      <point x="76" y="739"/>
      <point x="78" y="735" type="curve" smooth="yes"/>
      <point x="271" y="408" type="line" smooth="yes"/>
      <point x="276" y="399"/>
      <point x="274" y="393"/>
      <point x="264" y="388" type="curve"/>
      <point x="349" y="381" type="line"/>
    </contour>
    <contour>
      <point x="680" y="388" type="line"/>
      <point x="670" y="393"/>
      <point x="668" y="399"/>
      <point x="673" y="408" type="curve" smooth="yes"/>
      <point x="866" y="735" type="line" smooth="yes"/>
      <point x="868" y="739"/>
      <point x="867" y="742"/>
      <point x="863" y="742" type="curve" smooth="yes"/>
      <point x="828" y="742" type="line" smooth="yes"/>
      <point x="823" y="742"/>
      <point x="819" y="741"/>
      <point x="817" y="737" type="curve" smooth="yes"/>
      <point x="639" y="434" type="line" smooth="yes"/>
      <point x="627" y="414"/>
      <point x="619" y="406"/>
      <point x="595" y="406" type="curve"/>
      <point x="595" y="381" type="line"/>
    </contour>
    <contour>
      <point x="472" y="742" type="move" name="top"/>
    </contour>
    <contour>
      <point x="866" y="0" type="move" name="bottomright"/>
    </contour>
  </outline>
</glyph>
<glyph name="uni0417" format="1">
  <advance width="657"/>
  <unicode hex="0417"/>
  <outline>
    <contour>
      <point x="494" y="-10"/>
      <point x="592" y="86"/>
      <point x="592" y="201" type="curve" smooth="yes"/>
      <point x="592" y="293"/>
      <point x="530" y="355"/>
      <point x="461" y="374" type="curve" smooth="yes"/>
      <point x="446" y="378"/>
      <point x="446" y="380"/>
      <point x="461" y="385" type="curve" smooth="yes"/>
      <point x="525" y="415"/>
      <point x="568" y="478"/>
      <point x="568" y="554" type="curve" smooth="yes"/>
      <point x="568" y="667"/>
      <point x="473" y="752"/>
      <point x="335" y="752" type="curve" smooth="yes"/>
      <point x="190" y="752"/>
      <point x="101" y="658"/>
      <point x="81" y="556" type="curve" smooth="yes"/>
      <point x="80" y="551"/>
      <point x="81" y="550"/>
      <point x="86" y="549" type="curve"/>
      <point x="122" y="545" type="line"/>
      <point x="126" y="545"/>
      <point x="128" y="546"/>
      <point x="129" y="552" type="curve" smooth="yes"/>
      <point x="148" y="639"/>
      <point x="220" y="710"/>
      <point x="337" y="710" type="curve" smooth="yes"/>
      <point x="451" y="710"/>
      <point x="522" y="644"/>
      <point x="522" y="554" type="curve" smooth="yes"/>
      <point x="522" y="464"/>
      <point x="459" y="395"/>
      <point x="353" y="395" type="curve" smooth="yes"/>
      <point x="260" y="395" type="line" smooth="yes"/>
      <point x="255" y="395"/>
      <point x="251" y="392"/>
      <point x="251" y="388" type="curve" smooth="yes"/>
      <point x="251" y="362" type="line" smooth="yes"/>
      <point x="251" y="357"/>
      <point x="254" y="355"/>
      <point x="260" y="355" type="curve" smooth="yes"/>
      <point x="360" y="355" type="line" smooth="yes"/>
      <point x="474" y="355"/>
      <point x="546" y="302"/>
      <point x="546" y="199" type="curve" smooth="yes"/>
      <point x="546" y="100"/>
      <point x="466" y="32"/>
      <point x="331" y="32" type="curve" smooth="yes"/>
      <point x="222" y="32"/>
      <point x="141" y="85"/>
      <point x="107" y="186" type="curve" smooth="yes"/>
      <point x="106" y="188"/>
      <point x="104" y="189"/>
      <point x="101" y="188" type="curve" smooth="yes"/>
      <point x="67" y="178" type="line" smooth="yes"/>
      <point x="65" y="177"/>
      <point x="64" y="175"/>
      <point x="65" y="171" type="curve" smooth="yes"/>
      <point x="104" y="59"/>
      <point x="195" y="-10"/>
      <point x="332" y="-10" type="curve" smooth="yes"/>
    </contour>
    <contour>
      <point x="337" y="742" type="move" name="top"/>
    </contour>
    <contour>
      <point x="337" y="0" type="move" name="bottom"/>
    </contour>
  </outline>
</glyph>
<glyph name="uni0418" format="1">
  <advance width="767"/>
  <unicode hex="0418"/>
  <outline>
    <contour>
      <point x="129" y="742" type="line" smooth="yes"/>
      <point x="122" y="742"/>
      <point x="120" y="740"/>
      <point x="120" y="732" type="curve" smooth="yes"/>
      <point x="120" y="10" type="line" smooth="yes"/>
      <point x="120" y="3"/>
      <point x="123" y="0"/>
      <point x="129" y="0" type="curve" smooth="yes"/>
      <point x="144" y="0" type="line" smooth="yes"/>
      <point x="152" y="0"/>
      <point x="158" y="-1"/>
      <point x="163" y="6" type="curve" smooth="yes"/>
      <point x="591" y="642" type="line" smooth="yes"/>
      <point x="598" y="652"/>
      <point x="603" y="650"/>
      <point x="603" y="642" type="curve" smooth="yes"/>
      <point x="603" y="9" type="line" smooth="yes"/>
      <point x="603" y="3"/>
      <point x="606" y="0"/>
      <point x="613" y="0" type="curve" smooth="yes"/>
      <point x="638" y="0" type="line" smooth="yes"/>
      <point x="645" y="0"/>
      <point x="647" y="3"/>
      <point x="647" y="10" type="curve" smooth="yes"/>
      <point x="647" y="732" type="line" smooth="yes"/>
      <point x="647" y="740"/>
      <point x="645" y="742"/>
      <point x="638" y="742" type="curve"/>
      <point x="620" y="742" type="line" smooth="yes"/>
      <point x="612" y="742"/>
      <point x="609" y="741"/>
      <point x="605" y="735" type="curve" smooth="yes"/>
      <point x="178" y="100" type="line" smooth="yes"/>
      <point x="171" y="90"/>
      <point x="164" y="96"/>
      <point x="164" y="102" type="curve" smooth="yes"/>
      <point x="164" y="733" type="line" smooth="yes"/>
      <point x="164" y="739"/>
      <point x="162" y="742"/>
      <point x="156" y="742" type="curve" smooth="yes"/>
    </contour>
    <contour>
      <point x="384" y="742" type="move" name="top"/>
    </contour>
    <contour>
      <point x="638" y="0" type="move" name="bottomright"/>
    </contour>
  </outline>
</glyph>
<glyph name="uni041B" format="1">
  <advance width="730"/>
  <unicode hex="041B"/>
  <outline>
    <contour>
      <point x="562" y="702"/>
      <point x="564" y="700"/>
      <point x="564" y="695" type="curve" smooth="yes"/>
      <point x="564" y="9" type="line" smooth="yes"/>
      <point x="564" y="2"/>
      <point x="567" y="0"/>
      <point x="574" y="0" type="curve" smooth="yes"/>
      <point x="601" y="0" type="line" smooth="yes"/>
      <point x="607" y="0"/>
      <point x="610" y="3"/>
      <point x="610" y="10" type="curve" smooth="yes"/>
      <point x="610" y="732" type="line" smooth="yes"/>
      <point x="610" y="740"/>
      <point x="608" y="742"/>
      <point x="601" y="742" type="curve" smooth="yes"/>
      <point x="210" y="742" type="line" smooth="yes"/>
      <point x="203" y="742"/>
      <point x="201" y="740"/>
      <point x="201" y="732" type="curve"/>
      <point x="247" y="696" type="line"/>
      <point x="247" y="699"/>
      <point x="249" y="702"/>
      <point x="253" y="702" type="curve" smooth="yes"/>
      <point x="557" y="702" type="line" smooth="yes"/>
    </contour>
    <contour>
      <point x="178" y="-28"/>
      <point x="247" y="180"/>
      <point x="247" y="574" type="curve" smooth="yes"/>
      <point x="247" y="732" type="line"/>
      <point x="201" y="732" type="line"/>
      <point x="201" y="574" type="line" smooth="yes"/>
      <point x="201" y="203"/>
      <point x="147" y="28"/>
      <point x="21" y="43" type="curve"/>
      <point x="14" y="0" type="line"/>
    </contour>
    <contour>
      <point x="574" y="0" type="move" name="bottomright"/>
    </contour>
  </outline>
</glyph>
<glyph name="uni041D" format="1">
  <advance width="737"/>
  <unicode hex="041D"/>
  <outline>
    <contour>
      <point x="569" y="366"/>
      <point x="571" y="364"/>
      <point x="571" y="359" type="curve" smooth="yes"/>
      <point x="571" y="9" type="line" smooth="yes"/>
      <point x="571" y="2"/>
      <point x="574" y="0"/>
      <point x="581" y="0" type="curve" smooth="yes"/>
      <point x="608" y="0" type="line" smooth="yes"/>
      <point x="614" y="0"/>
      <point x="617" y="3"/>
      <point x="617" y="10" type="curve" smooth="yes"/>
      <point x="617" y="732" type="line" smooth="yes"/>
      <point x="617" y="740"/>
      <point x="615" y="742"/>
      <point x="608" y="742" type="curve" smooth="yes"/>
      <point x="579" y="742" type="line" smooth="yes"/>
      <point x="573" y="742"/>
      <point x="571" y="739"/>
      <point x="571" y="733" type="curve" smooth="yes"/>
      <point x="571" y="414" type="line" smooth="yes"/>
      <point x="571" y="408"/>
      <point x="569" y="406"/>
      <point x="563" y="406" type="curve" smooth="yes"/>
      <point x="175" y="406" type="line" smooth="yes"/>
      <point x="168" y="406"/>
      <point x="166" y="407"/>
      <point x="166" y="415" type="curve" smooth="yes"/>
      <point x="166" y="732" type="line" smooth="yes"/>
      <point x="166" y="740"/>
      <point x="164" y="742"/>
      <point x="157" y="742" type="curve" smooth="yes"/>
      <point x="129" y="742" type="line" smooth="yes"/>
      <point x="122" y="742"/>
      <point x="120" y="740"/>
      <point x="120" y="732" type="curve" smooth="yes"/>
      <point x="120" y="10" type="line" smooth="yes"/>
      <point x="120" y="3"/>
      <point x="122" y="0"/>
      <point x="129" y="0" type="curve" smooth="yes"/>
      <point x="156" y="0" type="line" smooth="yes"/>
      <point x="163" y="0"/>
      <point x="166" y="3"/>
      <point x="166" y="9" type="curve" smooth="yes"/>
      <point x="166" y="360" type="line" smooth="yes"/>
      <point x="166" y="363"/>
      <point x="168" y="366"/>
      <point x="172" y="366" type="curve" smooth="yes"/>
      <point x="564" y="366" type="line" smooth="yes"/>
    </contour>
    <contour>
      <point x="581" y="0" type="move" name="bottomright"/>
    </contour>
  </outline>
</glyph>
<glyph name="uni041F" format="1">
  <advance width="737"/>
  <unicode hex="041F"/>
  <outline>
    <contour>
      <point x="569" y="702"/>
      <point x="571" y="700"/>
      <point x="571" y="695" type="curve" smooth="yes"/>
      <point x="571" y="9" type="line" smooth="yes"/>
      <point x="571" y="2"/>
      <point x="574" y="0"/>
      <point x="581" y="0" type="curve" smooth="yes"/>
      <point x="608" y="0" type="line" smooth="yes"/>
      <point x="614" y="0"/>
      <point x="617" y="3"/>
      <point x="617" y="10" type="curve" smooth="yes"/>
      <point x="617" y="732" type="line" smooth="yes"/>
      <point x="617" y="740"/>
      <point x="615" y="742"/>
      <point x="608" y="742" type="curve"/>
      <point x="129" y="742" type="line"/>
      <point x="122" y="742"/>
      <point x="120" y="740"/>
      <point x="120" y="732" type="curve" smooth="yes"/>
      <point x="120" y="10" type="line" smooth="yes"/>
      <point x="120" y="3"/>
      <point x="122" y="0"/>
      <point x="129" y="0" type="curve" smooth="yes"/>
      <point x="156" y="0" type="line" smooth="yes"/>
      <point x="163" y="0"/>
      <point x="166" y="3"/>
      <point x="166" y="9" type="curve" smooth="yes"/>
      <point x="166" y="696" type="line" smooth="yes"/>
      <point x="166" y="699"/>
      <point x="168" y="702"/>
      <point x="172" y="702" type="curve" smooth="yes"/>
      <point x="564" y="702" type="line" smooth="yes"/>
    </contour>
    <contour>
      <point x="581" y="0" type="move" name="bottomright"/>
    </contour>
  </outline>
</glyph>
<glyph name="uni0422" format="1">
  <advance width="623"/>
  <unicode hex="0422"/>
  <outline>
    <contour>
      <point x="47" y="703"/>
      <point x="49" y="702"/>
      <point x="55" y="702" type="curve" smooth="yes"/>
      <point x="289" y="702" type="line" smooth="yes"/>
      <point x="297" y="702"/>
      <point x="299" y="701"/>
      <point x="299" y="693" type="curve" smooth="yes"/>
      <point x="299" y="10" type="line" smooth="yes"/>
      <point x="299" y="2"/>
      <point x="301" y="0"/>
      <point x="309" y="0" type="curve" smooth="yes"/>
      <point x="336" y="0" type="line" smooth="yes"/>
      <point x="343" y="0"/>
      <point x="345" y="2"/>
      <point x="345" y="10" type="curve" smooth="yes"/>
      <point x="345" y="693" type="line" smooth="yes"/>
      <point x="345" y="701"/>
      <point x="347" y="702"/>
      <point x="355" y="702" type="curve" smooth="yes"/>
      <point x="568" y="702" type="line" smooth="yes"/>
      <point x="574" y="702"/>
      <point x="576" y="703"/>
      <point x="576" y="709" type="curve" smooth="yes"/>
      <point x="576" y="735" type="line" smooth="yes"/>
      <point x="576" y="740"/>
      <point x="574" y="742"/>
      <point x="569" y="742" type="curve" smooth="yes"/>
      <point x="54" y="742" type="line" smooth="yes"/>
      <point x="49" y="742"/>
      <point x="47" y="740"/>
      <point x="47" y="735" type="curve" smooth="yes"/>
      <point x="47" y="709" type="line" smooth="yes"/>
    </contour>
    <contour>
      <point x="323" y="742" type="move" name="top"/>
    </contour>
    <contour>
      <point x="323" y="0" type="move" name="bottom"/>
    </contour>
    <contour>
      <point x="309" y="0" type="move" name="bottomright"/>
    </contour>
  </outline>
</glyph>
<glyph name="uni0423" format="1">
  <advance width="576"/>
  <unicode hex="0423"/>
  <outline>
    <contour>
      <point x="146" y="0" type="line" smooth="yes"/>
      <point x="234" y="0"/>
      <point x="289" y="38"/>
      <point x="330" y="137" type="curve" smooth="yes"/>
      <point x="578" y="742" type="line"/>
      <point x="532" y="742" type="line"/>
      <point x="290" y="151" type="line" smooth="yes"/>
      <point x="254" y="64"/>
      <point x="217" y="40"/>
      <point x="146" y="40" type="curve" smooth="yes"/>
      <point x="98" y="40" type="line"/>
      <point x="98" y="0" type="line"/>
    </contour>
    <contour>
      <point x="343" y="247" type="line"/>
      <point x="332" y="253" type="line"/>
      <point x="326" y="237"/>
      <point x="320" y="237"/>
      <point x="314" y="249" type="curve" smooth="yes"/>
      <point x="75" y="742" type="line"/>
      <point x="28" y="742" type="line"/>
      <point x="312" y="158" type="line"/>
    </contour>
    <contour>
      <point x="304" y="742" type="move" name="top"/>
    </contour>
  </outline>
</glyph>
<glyph name="uni0424" format="1">
  <advance width="920"/>
  <unicode hex="0424"/>
  <outline>
    <contour>
      <point x="475" y="-10" type="line" smooth="yes"/>
      <point x="480" y="-10"/>
      <point x="483" y="-7"/>
      <point x="483" y="-2" type="curve" smooth="yes"/>
      <point x="483" y="98" type="line" smooth="yes"/>
      <point x="483" y="104"/>
      <point x="485" y="108"/>
      <point x="491" y="107" type="curve" smooth="yes"/>
      <point x="731" y="67"/>
      <point x="842" y="188"/>
      <point x="842" y="385" type="curve" smooth="yes"/>
      <point x="842" y="559"/>
      <point x="730" y="710"/>
      <point x="493" y="651" type="curve" smooth="yes"/>
      <point x="485" y="649"/>
      <point x="483" y="651"/>
      <point x="483" y="658" type="curve" smooth="yes"/>
      <point x="483" y="764" type="line" smooth="yes"/>
      <point x="483" y="769"/>
      <point x="480" y="772"/>
      <point x="475" y="772" type="curve" smooth="yes"/>
      <point x="445" y="772" type="line" smooth="yes"/>
      <point x="440" y="772"/>
      <point x="437" y="769"/>
      <point x="437" y="763" type="curve" smooth="yes"/>
      <point x="437" y="658" type="line" smooth="yes"/>
      <point x="437" y="651"/>
      <point x="435" y="649"/>
      <point x="427" y="651" type="curve" smooth="yes"/>
      <point x="190" y="710"/>
      <point x="78" y="559"/>
      <point x="78" y="385" type="curve" smooth="yes"/>
      <point x="78" y="188"/>
      <point x="189" y="67"/>
      <point x="429" y="107" type="curve" smooth="yes"/>
      <point x="435" y="108"/>
      <point x="437" y="104"/>
      <point x="437" y="98" type="curve" smooth="yes"/>
      <point x="437" y="-2" type="line" smooth="yes"/>
      <point x="437" y="-7"/>
      <point x="440" y="-10"/>
      <point x="445" y="-10" type="curve" smooth="yes"/>
    </contour>
    <contour>
      <point x="214" y="103"/>
      <point x="125" y="213"/>
      <point x="125" y="388" type="curve" smooth="yes"/>
      <point x="125" y="553"/>
      <point x="233" y="658"/>
      <point x="430" y="610" type="curve"/>
      <point x="437" y="608"/>
      <point x="439" y="608"/>
      <point x="439" y="602" type="curve" smooth="yes"/>
      <point x="439" y="158" type="line" smooth="yes"/>
      <point x="439" y="151"/>
      <point x="437" y="149"/>
      <point x="432" y="148" type="curve"/>
    </contour>
    <contour>
      <point x="483" y="149"/>
      <point x="481" y="151"/>
      <point x="481" y="158" type="curve" smooth="yes"/>
      <point x="481" y="602" type="line" smooth="yes"/>
      <point x="481" y="608"/>
      <point x="483" y="608"/>
      <point x="490" y="610" type="curve"/>
      <point x="687" y="658"/>
      <point x="795" y="553"/>
      <point x="795" y="388" type="curve" smooth="yes"/>
      <point x="795" y="213"/>
      <point x="706" y="103"/>
      <point x="488" y="148" type="curve"/>
    </contour>
  </outline>
</glyph>
<glyph name="uni0425" format="1">
  <advance width="662"/>
  <unicode hex="0425"/>
  <outline>
    <component base="X"/>
    <contour>
      <point x="545" y="0" type="move" name="bottomright"/>
    </contour>
  </outline>
</glyph>
<glyph name="uni0426" format="1">
  <advance width="728"/>
  <unicode hex="0426"/>
  <outline>
    <contour>
      <point x="588" y="0" type="line"/>
      <point x="595" y="0"/>
      <point x="597" y="2"/>
      <point x="597" y="10" type="curve" smooth="yes"/>
      <point x="597" y="732" type="line" smooth="yes"/>
      <point x="597" y="739"/>
      <point x="594" y="742"/>
      <point x="588" y="742" type="curve" smooth="yes"/>
      <point x="561" y="742" type="line" smooth="yes"/>
      <point x="554" y="742"/>
      <point x="551" y="740"/>
      <point x="551" y="733" type="curve" smooth="yes"/>
      <point x="551" y="47" type="line" smooth="yes"/>
      <point x="551" y="42"/>
      <point x="549" y="40"/>
      <point x="544" y="40" type="curve" smooth="yes"/>
      <point x="172" y="40" type="line" smooth="yes"/>
      <point x="168" y="40"/>
      <point x="166" y="43"/>
      <point x="166" y="46" type="curve" smooth="yes"/>
      <point x="166" y="733" type="line" smooth="yes"/>
      <point x="166" y="739"/>
      <point x="163" y="742"/>
      <point x="156" y="742" type="curve" smooth="yes"/>
      <point x="129" y="742" type="line" smooth="yes"/>
      <point x="122" y="742"/>
      <point x="120" y="739"/>
      <point x="120" y="732" type="curve" smooth="yes"/>
      <point x="120" y="10" type="line" smooth="yes"/>
      <point x="120" y="2"/>
      <point x="122" y="0"/>
      <point x="129" y="0" type="curve"/>
    </contour>
    <component base="__descendercy.case" xOffset="581"/>
  </outline>
</glyph>
<glyph name="uni0427" format="1">
  <advance width="668"/>
  <unicode hex="0427"/>
  <outline>
    <contour>
      <point x="539" y="0" type="line" smooth="yes"/>
      <point x="546" y="0"/>
      <point x="548" y="2"/>
      <point x="548" y="10" type="curve" smooth="yes"/>
      <point x="548" y="733" type="line" smooth="yes"/>
      <point x="548" y="740"/>
      <point x="546" y="742"/>
      <point x="538" y="742" type="curve" smooth="yes"/>
      <point x="511" y="742" type="line" smooth="yes"/>
      <point x="504" y="742"/>
      <point x="502" y="740"/>
      <point x="502" y="732" type="curve" smooth="yes"/>
      <point x="502" y="369" type="line"/>
      <point x="416" y="321"/>
      <point x="358" y="311"/>
      <point x="296" y="311" type="curve" smooth="yes"/>
      <point x="160" y="311"/>
      <point x="126" y="382"/>
      <point x="126" y="494" type="curve" smooth="yes"/>
      <point x="126" y="733" type="line" smooth="yes"/>
      <point x="126" y="740"/>
      <point x="124" y="742"/>
      <point x="116" y="742" type="curve" smooth="yes"/>
      <point x="89" y="742" type="line" smooth="yes"/>
      <point x="82" y="742"/>
      <point x="80" y="740"/>
      <point x="80" y="732" type="curve" smooth="yes"/>
      <point x="80" y="472" type="line" smooth="yes"/>
      <point x="80" y="351"/>
      <point x="149" y="267"/>
      <point x="299" y="267" type="curve" smooth="yes"/>
      <point x="361" y="267"/>
      <point x="414" y="278"/>
      <point x="492" y="318" type="curve" smooth="yes"/>
      <point x="498" y="321"/>
      <point x="502" y="321"/>
      <point x="502" y="314" type="curve" smooth="yes"/>
      <point x="502" y="9" type="line" smooth="yes"/>
      <point x="502" y="2"/>
      <point x="504" y="0"/>
      <point x="512" y="0" type="curve" smooth="yes"/>
    </contour>
    <contour>
      <point x="302" y="284" type="move" name="center"/>
    </contour>
    <contour>
      <point x="512" y="0" type="move" name="bottomright"/>
    </contour>
    <contour>
      <point x="306" y="742" type="move" name="top"/>
    </contour>
  </outline>
</glyph>
<glyph name="uni0428" format="1">
  <advance width="1008"/>
  <unicode hex="0428"/>
  <outline>
    <contour>
      <point x="852" y="742" type="line" smooth="yes"/>
      <point x="845" y="742"/>
      <point x="842" y="739"/>
      <point x="842" y="733" type="curve" smooth="yes"/>
      <point x="842" y="46" type="line" smooth="yes"/>
      <point x="842" y="43"/>
      <point x="840" y="40"/>
      <point x="836" y="40" type="curve" smooth="yes"/>
      <point x="536" y="40" type="line" smooth="yes"/>
      <point x="529" y="40"/>
      <point x="527" y="42"/>
      <point x="527" y="50" type="curve" smooth="yes"/>
      <point x="527" y="732" type="line" smooth="yes"/>
      <point x="527" y="739"/>
      <point x="525" y="742"/>
      <point x="518" y="742" type="curve" smooth="yes"/>
      <point x="491" y="742" type="line" smooth="yes"/>
      <point x="484" y="742"/>
      <point x="481" y="739"/>
      <point x="481" y="733" type="curve" smooth="yes"/>
      <point x="481" y="49" type="line" smooth="yes"/>
      <point x="481" y="42"/>
      <point x="479" y="40"/>
      <point x="471" y="40" type="curve" smooth="yes"/>
      <point x="173" y="40" type="line" smooth="yes"/>
      <point x="168" y="40"/>
      <point x="166" y="42"/>
      <point x="166" y="47" type="curve" smooth="yes"/>
      <point x="166" y="733" type="line" smooth="yes"/>
      <point x="166" y="740"/>
      <point x="163" y="742"/>
      <point x="156" y="742" type="curve" smooth="yes"/>
      <point x="129" y="742" type="line" smooth="yes"/>
      <point x="123" y="742"/>
      <point x="120" y="739"/>
      <point x="120" y="732" type="curve" smooth="yes"/>
      <point x="120" y="10" type="line" smooth="yes"/>
      <point x="120" y="2"/>
      <point x="122" y="0"/>
      <point x="129" y="0" type="curve" smooth="yes"/>
      <point x="879" y="0" type="line" smooth="yes"/>
      <point x="886" y="0"/>
      <point x="888" y="2"/>
      <point x="888" y="10" type="curve" smooth="yes"/>
      <point x="888" y="732" type="line" smooth="yes"/>
      <point x="888" y="739"/>
      <point x="886" y="742"/>
      <point x="879" y="742" type="curve" smooth="yes"/>
    </contour>
  </outline>
</glyph>
<glyph name="uni042A" format="1">
  <advance width="766"/>
  <unicode hex="042A"/>
  <outline>
    <contour>
      <point x="678" y="82"/>
      <point x="594" y="40"/>
      <point x="459" y="40" type="curve" smooth="yes"/>
      <point x="324" y="40" type="line" smooth="yes"/>
      <point x="318" y="40"/>
      <point x="315" y="42"/>
      <point x="315" y="48" type="curve" smooth="yes"/>
      <point x="315" y="385" type="line" smooth="yes"/>
      <point x="315" y="392"/>
      <point x="317" y="395"/>
      <point x="322" y="395" type="curve" smooth="yes"/>
      <point x="466" y="395" type="line" smooth="yes"/>
      <point x="594" y="395"/>
      <point x="678" y="344"/>
      <point x="678" y="214" type="curve" smooth="yes"/>
    </contour>
    <contour>
      <point x="323" y="435" type="line" smooth="yes"/>
      <point x="317" y="435"/>
      <point x="315" y="438"/>
      <point x="315" y="444" type="curve" smooth="yes"/>
      <point x="315" y="733" type="line" smooth="yes"/>
      <point x="315" y="739"/>
      <point x="312" y="742"/>
      <point x="307" y="742" type="curve" smooth="yes"/>
      <point x="54" y="742" type="line" smooth="yes"/>
      <point x="49" y="742"/>
      <point x="47" y="740"/>
      <point x="47" y="735" type="curve" smooth="yes"/>
      <point x="47" y="709" type="line" smooth="yes"/>
      <point x="47" y="703"/>
      <point x="49" y="702"/>
      <point x="55" y="702" type="curve" smooth="yes"/>
      <point x="259" y="702" type="line" smooth="yes"/>
      <point x="267" y="702"/>
      <point x="269" y="701"/>
      <point x="269" y="693" type="curve" smooth="yes"/>
      <point x="269" y="10" type="line" smooth="yes"/>
      <point x="269" y="2"/>
      <point x="271" y="0"/>
      <point x="278" y="0" type="curve" smooth="yes"/>
      <point x="460" y="0" type="line" smooth="yes"/>
      <point x="615" y="0"/>
      <point x="726" y="61"/>
      <point x="726" y="217" type="curve" smooth="yes"/>
      <point x="726" y="372"/>
      <point x="617" y="435"/>
      <point x="466" y="435" type="curve" smooth="yes"/>
    </contour>
  </outline>
</glyph>
<glyph name="uni042B" format="1">
  <advance width="876"/>
  <unicode hex="042B"/>
  <outline>
    <contour>
      <point x="577" y="372"/>
      <point x="468" y="435"/>
      <point x="317" y="435" type="curve" smooth="yes"/>
      <point x="174" y="435" type="line" smooth="yes"/>
      <point x="168" y="435"/>
      <point x="166" y="438"/>
      <point x="166" y="444" type="curve" smooth="yes"/>
      <point x="166" y="733" type="line" smooth="yes"/>
      <point x="166" y="739"/>
      <point x="163" y="742"/>
      <point x="158" y="742" type="curve" smooth="yes"/>
      <point x="128" y="742" type="line" smooth="yes"/>
      <point x="123" y="742"/>
      <point x="120" y="739"/>
      <point x="120" y="734" type="curve" smooth="yes"/>
      <point x="120" y="10" type="line" smooth="yes"/>
      <point x="120" y="2"/>
      <point x="122" y="0"/>
      <point x="129" y="0" type="curve" smooth="yes"/>
      <point x="311" y="0" type="line" smooth="yes"/>
      <point x="466" y="0"/>
      <point x="577" y="61"/>
      <point x="577" y="217" type="curve" smooth="yes"/>
    </contour>
    <contour>
      <point x="529" y="82"/>
      <point x="445" y="40"/>
      <point x="310" y="40" type="curve" smooth="yes"/>
      <point x="175" y="40" type="line" smooth="yes"/>
      <point x="169" y="40"/>
      <point x="166" y="42"/>
      <point x="166" y="48" type="curve" smooth="yes"/>
      <point x="166" y="385" type="line" smooth="yes"/>
      <point x="166" y="392"/>
      <point x="168" y="395"/>
      <point x="173" y="395" type="curve" smooth="yes"/>
      <point x="317" y="395" type="line" smooth="yes"/>
      <point x="445" y="395"/>
      <point x="529" y="344"/>
      <point x="529" y="214" type="curve" smooth="yes"/>
    </contour>
    <contour>
      <point x="712" y="742"/>
      <point x="710" y="740"/>
      <point x="710" y="732" type="curve" smooth="yes"/>
      <point x="710" y="10" type="line" smooth="yes"/>
      <point x="710" y="2"/>
      <point x="712" y="0"/>
      <point x="721" y="0" type="curve" smooth="yes"/>
      <point x="744" y="0" type="line" smooth="yes"/>
      <point x="754" y="0"/>
      <point x="756" y="2"/>
      <point x="756" y="12" type="curve" smooth="yes"/>
      <point x="756" y="732" type="line" smooth="yes"/>
      <point x="756" y="740"/>
      <point x="754" y="742"/>
      <point x="747" y="742" type="curve" smooth="yes"/>
      <point x="719" y="742" type="line" smooth="yes"/>
    </contour>
    <contour>
      <point x="418" y="742" type="move" name="top"/>
    </contour>
  </outline>
</glyph>
<glyph name="uni042D" format="1">
  <advance width="705"/>
  <unicode hex="042D"/>
  <outline>
    <contour>
      <point x="203" y="752"/>
      <point x="78" y="659"/>
      <point x="66" y="556" type="curve" smooth="yes"/>
      <point x="65" y="551"/>
      <point x="66" y="549"/>
      <point x="71" y="549" type="curve" smooth="yes"/>
      <point x="107" y="545" type="line" smooth="yes"/>
      <point x="111" y="544"/>
      <point x="113" y="546"/>
      <point x="114" y="552" type="curve" smooth="yes"/>
      <point x="138" y="647"/>
      <point x="222" y="710"/>
      <point x="328" y="710" type="curve" smooth="yes"/>
      <point x="491" y="710"/>
      <point x="579" y="591"/>
      <point x="579" y="368" type="curve" smooth="yes"/>
      <point x="579" y="153"/>
      <point x="493" y="32"/>
      <point x="320" y="32" type="curve" smooth="yes"/>
      <point x="211" y="32"/>
      <point x="142" y="81"/>
      <point x="100" y="186" type="curve" smooth="yes"/>
      <point x="99" y="188"/>
      <point x="97" y="189"/>
      <point x="94" y="188" type="curve" smooth="yes"/>
      <point x="60" y="178" type="line" smooth="yes"/>
      <point x="58" y="177"/>
      <point x="57" y="175"/>
      <point x="58" y="171" type="curve" smooth="yes"/>
      <point x="94" y="61"/>
      <point x="198" y="-10"/>
      <point x="324" y="-10" type="curve" smooth="yes"/>
      <point x="517" y="-10"/>
      <point x="627" y="127"/>
      <point x="627" y="368" type="curve" smooth="yes"/>
      <point x="627" y="610"/>
      <point x="517" y="752"/>
      <point x="330" y="752" type="curve" smooth="yes"/>
    </contour>
    <contour>
      <point x="594" y="407" type="line"/>
      <point x="265" y="406" type="line" smooth="yes"/>
      <point x="262" y="406"/>
      <point x="260" y="404"/>
      <point x="260" y="399" type="curve" smooth="yes"/>
      <point x="260" y="373" type="line" smooth="yes"/>
      <point x="260" y="368"/>
      <point x="262" y="366"/>
      <point x="268" y="366" type="curve" smooth="yes"/>
      <point x="594" y="367" type="line"/>
    </contour>
    <contour>
      <point x="329" y="742" type="move" name="top"/>
    </contour>
  </outline>
</glyph>
<glyph name="uni042E" format="1">
  <advance width="1024"/>
  <unicode hex="042E"/>
  <outline>
    <contour>
      <point x="373" y="406" type="line"/>
      <point x="175" y="406" type="line" smooth="yes"/>
      <point x="168" y="406"/>
      <point x="166" y="407"/>
      <point x="166" y="415" type="curve" smooth="yes"/>
      <point x="166" y="732" type="line" smooth="yes"/>
      <point x="166" y="740"/>
      <point x="164" y="742"/>
      <point x="157" y="742" type="curve" smooth="yes"/>
      <point x="129" y="742" type="line" smooth="yes"/>
      <point x="122" y="742"/>
      <point x="120" y="740"/>
      <point x="120" y="732" type="curve" smooth="yes"/>
      <point x="120" y="10" type="line" smooth="yes"/>
      <point x="120" y="3"/>
      <point x="122" y="0"/>
      <point x="129" y="0" type="curve" smooth="yes"/>
      <point x="156" y="0" type="line" smooth="yes"/>
      <point x="163" y="0"/>
      <point x="166" y="3"/>
      <point x="166" y="9" type="curve" smooth="yes"/>
      <point x="166" y="360" type="line" smooth="yes"/>
      <point x="166" y="363"/>
      <point x="168" y="366"/>
      <point x="172" y="366" type="curve" smooth="yes"/>
      <point x="374" y="366" type="line"/>
    </contour>
    <contour>
      <point x="833" y="-10"/>
      <point x="946" y="122"/>
      <point x="946" y="369" type="curve" smooth="yes"/>
      <point x="946" y="618"/>
      <point x="833" y="752"/>
      <point x="646" y="752" type="curve" smooth="yes"/>
      <point x="464" y="752"/>
      <point x="354" y="617"/>
      <point x="354" y="367" type="curve" smooth="yes"/>
      <point x="354" y="121"/>
      <point x="462" y="-10"/>
      <point x="645" y="-10" type="curve" smooth="yes"/>
    </contour>
    <contour>
      <point x="488" y="32"/>
      <point x="402" y="143"/>
      <point x="402" y="369" type="curve" smooth="yes"/>
      <point x="402" y="597"/>
      <point x="487" y="710"/>
      <point x="646" y="710" type="curve" smooth="yes"/>
      <point x="810" y="710"/>
      <point x="898" y="598"/>
      <point x="898" y="369" type="curve" smooth="yes"/>
      <point x="898" y="142"/>
      <point x="812" y="32"/>
      <point x="647" y="32" type="curve" smooth="yes"/>
    </contour>
  </outline>
</glyph>
<glyph name="uni042F" format="1">
  <advance width="672"/>
  <unicode hex="042F"/>
  <outline>
    <contour>
      <point x="75" y="394"/>
      <point x="183" y="329"/>
      <point x="320" y="329" type="curve"/>
      <point x="323" y="327" type="line"/>
      <point x="498" y="327" type="line" smooth="yes"/>
      <point x="504" y="327"/>
      <point x="506" y="324"/>
      <point x="506" y="318" type="curve" smooth="yes"/>
      <point x="506" y="9" type="line" smooth="yes"/>
      <point x="506" y="3"/>
      <point x="509" y="0"/>
      <point x="514" y="0" type="curve" smooth="yes"/>
      <point x="544" y="0" type="line" smooth="yes"/>
      <point x="549" y="0"/>
      <point x="552" y="3"/>
      <point x="552" y="8" type="curve" smooth="yes"/>
      <point x="552" y="732" type="line" smooth="yes"/>
      <point x="552" y="740"/>
      <point x="550" y="742"/>
      <point x="543" y="742" type="curve" smooth="yes"/>
      <point x="341" y="742" type="line" smooth="yes"/>
      <point x="186" y="742"/>
      <point x="75" y="684"/>
      <point x="75" y="535" type="curve" smooth="yes"/>
    </contour>
    <contour>
      <point x="123" y="662"/>
      <point x="207" y="702"/>
      <point x="342" y="702" type="curve" smooth="yes"/>
      <point x="497" y="702" type="line" smooth="yes"/>
      <point x="503" y="702"/>
      <point x="506" y="700"/>
      <point x="506" y="694" type="curve" smooth="yes"/>
      <point x="506" y="377" type="line" smooth="yes"/>
      <point x="506" y="370"/>
      <point x="504" y="367"/>
      <point x="499" y="367" type="curve" smooth="yes"/>
      <point x="335" y="367" type="line" smooth="yes"/>
      <point x="207" y="367"/>
      <point x="123" y="415"/>
      <point x="123" y="538" type="curve" smooth="yes"/>
    </contour>
    <contour>
      <point x="290" y="349" type="line"/>
      <point x="71" y="7" type="line" smooth="yes"/>
      <point x="68" y="3"/>
      <point x="70" y="0"/>
      <point x="74" y="0" type="curve" smooth="yes"/>
      <point x="113" y="0" type="line" smooth="yes"/>
      <point x="118" y="0"/>
      <point x="122" y="2"/>
      <point x="124" y="5" type="curve" smooth="yes"/>
      <point x="344" y="349" type="line"/>
    </contour>
  </outline>
</glyph>
<glyph name="uni0431" format="1">
  <advance width="602"/>
  <unicode hex="0431"/>
  <outline>
    <contour>
      <point x="462" y="-10"/>
      <point x="546" y="102"/>
      <point x="546" y="264" type="curve" smooth="yes"/>
      <point x="546" y="408"/>
      <point x="451" y="510"/>
      <point x="310" y="510" type="curve" smooth="yes"/>
      <point x="225" y="510"/>
      <point x="150" y="482"/>
      <point x="95" y="387" type="curve"/>
      <point x="89" y="387" type="line"/>
      <point x="60" y="302" type="line"/>
      <point x="60" y="97"/>
      <point x="153" y="-10"/>
      <point x="311" y="-10" type="curve" smooth="yes"/>
    </contour>
    <contour>
      <point x="184" y="28"/>
      <point x="103" y="123"/>
      <point x="103" y="264" type="curve" smooth="yes"/>
      <point x="103" y="387"/>
      <point x="184" y="472"/>
      <point x="311" y="472" type="curve" smooth="yes"/>
      <point x="428" y="472"/>
      <point x="504" y="388"/>
      <point x="504" y="264" type="curve" smooth="yes"/>
      <point x="504" y="122"/>
      <point x="430" y="28"/>
      <point x="311" y="28" type="curve" smooth="yes"/>
    </contour>
    <contour>
      <point x="97" y="359" type="line"/>
      <point x="102" y="410" type="line" smooth="yes"/>
      <point x="121" y="595"/>
      <point x="222" y="653"/>
      <point x="349" y="678" type="curve" smooth="yes"/>
      <point x="406" y="689"/>
      <point x="446" y="694"/>
      <point x="509" y="705" type="curve"/>
      <point x="500" y="743" type="line"/>
      <point x="448" y="732"/>
      <point x="396" y="725"/>
      <point x="341" y="715" type="curve" smooth="yes"/>
      <point x="178" y="685"/>
      <point x="60" y="586"/>
      <point x="60" y="345" type="curve" smooth="yes"/>
      <point x="60" y="302" type="line"/>
    </contour>
  </outline>
</glyph>
<glyph name="uni0432" format="1">
  <advance width="538"/>
  <unicode hex="0432"/>
  <outline>
    <contour>
      <point x="311" y="0" type="line" smooth="yes"/>
      <point x="433" y="0"/>
      <point x="498" y="44"/>
      <point x="498" y="142" type="curve" smooth="yes"/>
      <point x="498" y="209"/>
      <point x="459" y="254"/>
      <point x="403" y="268" type="curve" smooth="yes"/>
      <point x="398" y="269"/>
      <point x="398" y="274"/>
      <point x="403" y="276" type="curve" smooth="yes"/>
      <point x="460" y="299"/>
      <point x="481" y="337"/>
      <point x="481" y="397" type="curve" smooth="yes"/>
      <point x="481" y="485"/>
      <point x="421" y="530"/>
      <point x="299" y="530" type="curve" smooth="yes"/>
      <point x="95" y="530" type="line"/>
      <point x="95" y="0" type="line"/>
    </contour>
    <contour>
      <point x="135" y="35" type="line"/>
      <point x="135" y="251" type="line"/>
      <point x="289" y="251" type="line" smooth="yes"/>
      <point x="395" y="251"/>
      <point x="456" y="219"/>
      <point x="456" y="142" type="curve" smooth="yes"/>
      <point x="456" y="66"/>
      <point x="408" y="35"/>
      <point x="307" y="35" type="curve" smooth="yes"/>
    </contour>
    <contour>
      <point x="135" y="286" type="line"/>
      <point x="135" y="495" type="line"/>
      <point x="295" y="495" type="line" smooth="yes"/>
      <point x="384" y="495"/>
      <point x="439" y="465"/>
      <point x="439" y="397" type="curve" smooth="yes"/>
      <point x="439" y="311"/>
      <point x="367" y="286"/>
      <point x="289" y="286" type="curve" smooth="yes"/>
    </contour>
  </outline>
</glyph>
<glyph name="uni0433" format="1">
  <advance width="422"/>
  <unicode hex="0433"/>
  <outline>
    <contour>
      <point x="129" y="0" type="line" smooth="yes"/>
      <point x="133" y="0"/>
      <point x="135" y="2"/>
      <point x="135" y="6" type="curve" smooth="yes"/>
      <point x="135" y="488" type="line" smooth="yes"/>
      <point x="135" y="493"/>
      <point x="137" y="495"/>
      <point x="142" y="495" type="curve" smooth="yes"/>
      <point x="401" y="495" type="line" smooth="yes"/>
      <point x="406" y="495"/>
      <point x="407" y="497"/>
      <point x="407" y="501" type="curve" smooth="yes"/>
      <point x="407" y="524" type="line" smooth="yes"/>
      <point x="407" y="528"/>
      <point x="405" y="530"/>
      <point x="401" y="530" type="curve" smooth="yes"/>
      <point x="101" y="530" type="line" smooth="yes"/>
      <point x="97" y="530"/>
      <point x="95" y="528"/>
      <point x="95" y="524" type="curve" smooth="yes"/>
      <point x="95" y="6" type="line" smooth="yes"/>
      <point x="95" y="2"/>
      <point x="97" y="0"/>
      <point x="101" y="0" type="curve" smooth="yes"/>
    </contour>
    <contour>
      <point x="122" y="259" type="move" name="center"/>
    </contour>
    <contour>
      <point x="101" y="0" type="move" name="bottomright"/>
    </contour>
    <contour>
      <point x="258" y="530" type="move" name="top"/>
    </contour>
  </outline>
</glyph>
<glyph name="uni0434" format="1">
  <advance width="573"/>
  <unicode hex="0434"/>
  <outline>
    <contour>
      <point x="67" y="-142" type="line" smooth="yes"/>
      <point x="72" y="-142"/>
      <point x="75" y="-140"/>
      <point x="75" y="-135" type="curve" smooth="yes"/>
      <point x="75" y="-5" type="line" smooth="yes"/>
      <point x="75" y="-2"/>
      <point x="77" y="0"/>
      <point x="81" y="0" type="curve" smooth="yes"/>
      <point x="507" y="0" type="line" smooth="yes"/>
      <point x="511" y="0"/>
      <point x="513" y="-2"/>
      <point x="513" y="-5" type="curve" smooth="yes"/>
      <point x="513" y="-135" type="line" smooth="yes"/>
      <point x="513" y="-140"/>
      <point x="515" y="-142"/>
      <point x="521" y="-142" type="curve" smooth="yes"/>
      <point x="545" y="-142" type="line" smooth="yes"/>
      <point x="550" y="-142"/>
      <point x="553" y="-139"/>
      <point x="553" y="-134" type="curve" smooth="yes"/>
      <point x="553" y="28" type="line" smooth="yes"/>
      <point x="553" y="34"/>
      <point x="551" y="35"/>
      <point x="545" y="35" type="curve" smooth="yes"/>
      <point x="486" y="35" type="line"/>
      <point x="483" y="35"/>
      <point x="481" y="37"/>
      <point x="481" y="40" type="curve"/>
      <point x="481" y="523" type="line" smooth="yes"/>
      <point x="481" y="529"/>
      <point x="480" y="530"/>
      <point x="474" y="530" type="curve" smooth="yes"/>
      <point x="171" y="530" type="line" smooth="yes"/>
      <point x="165" y="530"/>
      <point x="164" y="529"/>
      <point x="164" y="523" type="curve"/>
      <point x="204" y="490" type="line"/>
      <point x="204" y="493"/>
      <point x="206" y="495"/>
      <point x="209" y="495" type="curve" smooth="yes"/>
      <point x="436" y="495" type="line" smooth="yes"/>
      <point x="440" y="495"/>
      <point x="441" y="493"/>
      <point x="441" y="490" type="curve" smooth="yes"/>
      <point x="441" y="40" type="line"/>
      <point x="441" y="37"/>
      <point x="440" y="35"/>
      <point x="437" y="35" type="curve"/>
      <point x="43" y="35" type="line" smooth="yes"/>
      <point x="37" y="35"/>
      <point x="35" y="34"/>
      <point x="35" y="28" type="curve" smooth="yes"/>
      <point x="35" y="-134" type="line" smooth="yes"/>
      <point x="35" y="-139"/>
      <point x="38" y="-142"/>
      <point x="43" y="-142" type="curve" smooth="yes"/>
    </contour>
    <contour>
      <point x="164" y="6"/>
      <point x="204" y="163"/>
      <point x="204" y="415" type="curve" smooth="yes"/>
      <point x="204" y="523" type="line"/>
      <point x="164" y="523" type="line"/>
      <point x="164" y="415" type="line" smooth="yes"/>
      <point x="164" y="173"/>
      <point x="135" y="35"/>
      <point x="67" y="35" type="curve"/>
      <point x="73" y="7" type="line"/>
    </contour>
  </outline>
</glyph>
